<?xml version="1.0" encoding="UTF-8" standalone="no"?>
<svg xmlns="http://www.w3.org/2000/svg" xmlns:xlink="http://www.w3.org/1999/xlink" width="297.000mm" height="210.000mm" viewBox="0.000000 0.000000 297.000000 210.000000" stroke-linejoin="round" stroke-linecap="round" fill="none" fill-rule="evenodd"><desc>3DVIA Composer Export</desc><script type="text/ecmascript"><![CDATA[
if(typeof(top) != "undefined")
{
	top.ShowPaper = ShowPaper;
}
function ShowHotSpot(evt,hotspotid)
{
	var svgDocument = evt.target.ownerDocument;
	var strId = "hotspot."+hotspotid;
	var hotspot = svgDocument.getElementById(strId);
	if(hotspot)
		hotspot.setAttribute("opacity",".5");
}
function HideHotSpot(evt,hotspotid)
{
	var svgDocument = evt.target.ownerDocument;
	var strId = "hotspot."+hotspotid;
	var hotspot = svgDocument.getElementById(strId);
	if(hotspot)
		hotspot.setAttribute("opacity","0");

	var toolTip = svgDocument.getElementById('ToolTip');
	if(toolTip)
		toolTip.setAttribute("visibility","hidden");
}
function ShowToolTip(evt,hotspotid,strTooltip)
{
	if(strTooltip=="")
	return;

	// change text
	var svgDocument = evt.target.ownerDocument;
	var tiptext = svgDocument.getElementById('ToolTipText');
	if( !tiptext )
	return;
	tiptext.firstChild.nodeValue = " " + strTooltip + "  " ;

	// show tooltip before, else some refresh issue

	var toolTip = svgDocument.getElementById('ToolTip');
	if(!toolTip)
	return;

	toolTip.setAttribute("visibility","visible");
	toolTip.setAttribute("opacity",".95");

	// move tooltip
	// get viewbox

	var root = svgDocument.documentElement;
	var vbox = (root.getAttribute("viewBox")).split(' ');
	var x0 = parseFloat(vbox[0]);
	var y0 = parseFloat(vbox[1]);
	var vboxW = parseFloat(vbox[2]);
	var vboxH = parseFloat(vbox[3]);

	// get default width of svg

	var strW = root.getAttribute("width");
	var svgW = parseFloat(strW);
	if(strW.indexOf('mm') != -1)
	svgW *= 3.779;

	var strH = root.getAttribute("height");
	var svgH = parseFloat(strH);
	if(strH.indexOf('mm') != -1)
	svgH *= 3.779;  	// 96 dpi  -> 96/25.4 = 3.779

	// update the viewbox / width / height if svg is embedded in html with zoom fit all
	var realx0 = x0;
	var realy0 = y0;
	var realvboxW = vboxW;
	var realvboxH = vboxH;
	var realsvgW = svgW;
	var realsvgH = svgH;

	if ((typeof(top) == "undefined") || (typeof(top.svgctl1) != "undefined")) // embedded in html
	{
		// get window size in pxl

		svgW = window.innerWidth;
		svgH = window.innerHeight;

		// calculate real viewbox

		realsvgW = svgW;
		realsvgH = svgH;
		if((svgW / svgH) > (vboxW / vboxH))
		{
			realvboxW = (vboxH * svgW) / svgH;
			realvboxH = vboxH;
			realx0 = x0 - (realvboxW - vboxW)/2 ;
		}
		else
		{
			realvboxH = (vboxW * svgH) / svgW;
			realvboxW = vboxW;
			realy0 = y0 - (realvboxH - vboxH)/2 ;
		}
	}

	// get user zoom/pan

	var newScale = root.currentScale;
	var translation = root.currentTranslate;

	// transform pxl to user unit

	var xPos = (((evt.clientX+10- translation.x)/newScale) * realvboxW)/realsvgW  + realx0 ;
	var yPos = (((evt.clientY+5- translation.y)/newScale) * realvboxH)/ realsvgH  + realy0 ;
	var scaleForWidth = ( (1 / newScale) * realvboxH) / realsvgH;

	// move tooltip

	toolTip.setAttribute("transform", "translate(" + xPos + "," + yPos + ")" );

	// resize tooltip

	var fontsize = 12;
	tiptext.setAttribute("font-size",fontsize*scaleForWidth);
	tiptext.setAttribute("y", fontsize*scaleForWidth);
	var tipBG = svgDocument.getElementById('ToolTipBG');
	var outline = tiptext.getBBox();
	if(tipBG)
	{
		tipBG.setAttribute("stroke-width", 1*scaleForWidth);
		tipBG.setAttribute("width", Number(outline.width) );
		tipBG.setAttribute("height", Number(outline.height) + fontsize*.5*scaleForWidth );
	}
	var ToolTipShadow = svgDocument.getElementById('ToolTipShadow');
	if(ToolTipShadow)
	{
		ToolTipShadow.setAttribute("width", Number(outline.width) );
		ToolTipShadow.setAttribute("height", Number(outline.height) + fontsize*.5*scaleForWidth );
		ToolTipShadow.setAttribute("x", 3*scaleForWidth);
		ToolTipShadow.setAttribute("y", 3*scaleForWidth);
	}
}
function ShowPaper()
{
  var svgDocument = getDocument();
  var paper = svgDocument.getElementById("paperID");
  if(paper)
  {
    paper.setAttribute("transform","scale(1)");
    paper.setAttribute("opacity","1");
    paper.setAttribute("visibility","visible");
  }
  var svg = svgDocument.getRootElement();
  if(svg)
  {
    svg.setAttribute("width","307.000mm");
    svg.setAttribute("height","220.000mm");
    svg.setAttribute("viewBox","-5.000000 -5.000000 307.000000 220.000000");
  }
}
]]></script><defs/><g><path style="fill:#000000;fill-opacity:0.098;fill-rule:evenodd" d="M139.95,68.51L140.41,68.11L141.01,68.12L141.05,69.54L139.94,69.18zM202.82,73.86L202.62,73.40L202.93,73.09L203.56,73.12L203.56,74.03zM193.73,76.00L195.35,74.93L195.67,74.95L195.59,76.85L194.91,76.82zM210.63,77.95L211.46,77.86L211.46,78.49L210.63,78.40zM169.72,90.40L169.52,89.96L170.91,89.12L171.23,89.14L171.24,90.85L170.20,90.73zM155.10,92.87L155.66,92.53L156.00,92.57L156.00,93.48L155.18,93.37zM128.14,93.75L127.53,93.74L127.62,92.90L128.14,92.82zM117.60,98.71L118.44,98.62L118.44,99.24L117.60,99.15zM177.00,98.97L177.81,98.87L177.81,99.78L177.00,99.68zM138.89,102.12L139.71,102.02L139.71,102.94L138.89,102.83zM166.03,105.92L165.83,105.45L166.14,105.15L166.77,105.17L166.78,106.09zM74.79,106.09L75.51,105.69L76.11,105.69L76.11,107.15L74.78,106.76zM218.44,114.11L218.96,113.58L219.85,113.59L219.85,114.76L218.79,114.65zM116.99,114.89L117.24,114.63L118.17,114.64L118.16,115.55L117.63,115.48zM149.66,121.05L150.50,120.96L150.50,121.58L149.66,121.49zM176.54,121.95L176.34,121.48L176.65,121.18L177.28,121.20L177.29,122.12zM71.54,122.25L72.37,121.70L72.70,121.72L72.70,122.91L72.18,122.84zM74.55,126.84L73.65,126.84L73.65,125.94L74.55,125.94zM166.66,127.01L167.59,127.01L167.58,127.62L166.74,127.53zM97.56,131.76L98.11,131.42L98.46,131.46L98.45,132.37L97.63,132.26zM102.05,132.52L105.22,130.64L105.54,130.65L105.57,132.37L104.13,133.30L102.90,133.33L102.10,132.76zM108.68,137.86L109.49,137.76L109.49,138.67L108.68,138.57zM94.22,140.22L95.30,140.13L95.30,141.30L94.22,141.20zM244.30,106.35L243.53,107.15L222.67,119.14L221.34,119.39L198.47,119.64L195.86,120.97L161.23,141.00L160.45,142.08L160.45,140.21L161.00,139.19L198.03,117.88L200.06,117.55L222.41,117.30L226.04,115.42L243.79,105.04L244.30,104.66zM83.45,142.07L84.26,141.96L84.26,142.88L83.45,142.78zM91.33,146.80L92.15,146.69L92.18,147.58L91.34,147.22zM153.53,151.46L154.07,151.14L154.68,151.15L154.69,152.34L153.61,152.24zM119.19,152.31L120.00,152.21L120.00,153.13L119.19,153.02zM127.10,154.17L126.20,154.16L126.29,153.36L127.09,153.26zM160.22,154.96L159.71,155.50L138.43,167.86L136.47,168.53L116.48,168.62L116.48,166.94L135.94,166.68L137.53,166.44L159.71,153.65L160.22,153.28z"/><g id="Actor_.0"><g style="stroke:#c00000;stroke-width:0.176"><path d="M160.44,152.28L160.31,152.85L159.92,153.39L159.31,153.85L138.23,166.02L137.43,166.37L136.51,166.59L135.51,166.67L116.99,166.67L116.00,166.59L115.07,166.37L114.28,166.02L51.14,129.57L50.53,129.11L50.14,128.57L50.03,128.08L50.01,129.88L50.01,129.85"/><path d="M50.03,128.08L50.01,128.00L50.03,128.08"/><path d="M50.01,128.02L50.01,126.92L50.01,128.00"/><path d="M50.01,126.92L50.01,124.62L50.01,125.66"/><path d="M50.01,124.62L50.01,120.26"/><path d="M50.01,120.53L50.01,120.60L50.01,120.56"/><path d="M71.58,122.38L71.72,122.55L71.95,122.68L72.25,122.77L72.57,122.79L72.89,122.75L73.17,122.65L73.36,122.52L73.50,122.33L73.52,122.15L73.42,121.96L73.23,121.81L72.97,121.70L72.65,121.65L72.33,121.66L72.02,121.72L71.77,121.85L71.61,122.01L71.54,122.19L71.58,122.38"/><path d="M73.67,125.92L73.50,126.08L73.43,126.27L73.47,126.46L73.62,126.62L73.85,126.76L74.14,126.84L74.46,126.87L74.78,126.83L75.07,126.73L75.28,126.59L75.40,126.41L75.41,126.22L75.32,126.04L75.12,125.89L74.86,125.78L74.55,125.72L74.22,125.73L73.92,125.80L73.67,125.92"/><path d="M74.70,106.25L74.76,106.50L74.99,106.73L75.21,106.86L75.57,106.96L75.97,106.99L76.37,106.94L76.72,106.82L76.98,106.65L77.13,106.43L77.14,106.20L77.03,105.97L76.79,105.78L76.46,105.65L76.08,105.58L75.67,105.59L75.30,105.67L74.99,105.82L74.78,106.03L74.70,106.25"/><path d="M83.28,142.25L83.38,142.09L83.57,141.97L83.82,141.88L84.10,141.85L84.39,141.87L84.76,141.99L84.98,142.21L85.01,142.37L84.95,142.54L84.80,142.68L84.58,142.79L84.32,142.85L84.03,142.86L83.75,142.81L83.52,142.71L83.35,142.58L83.26,142.42L83.28,142.25"/><path d="M91.27,146.86L91.26,147.03L91.35,147.20L91.51,147.33L91.74,147.42L92.02,147.47L92.31,147.46L92.58,147.40L92.80,147.30L92.95,147.15L93.01,146.99L92.97,146.82L92.84,146.67L92.64,146.56L92.38,146.48L92.09,146.46L91.81,146.50L91.56,146.58L91.38,146.71L91.27,146.86"/><path d="M94.47,141.17L94.19,141.00L94.02,140.81L93.96,140.56L94.04,140.33L94.25,140.13L94.56,139.98L94.93,139.90L95.34,139.88L95.73,139.95L96.05,140.09L96.29,140.28L96.41,140.50L96.39,140.73L96.24,140.95L95.98,141.13L95.63,141.25L95.24,141.30L94.84,141.27L94.47,141.17"/><path d="M97.57,131.82L97.64,131.65L97.79,131.50L98.02,131.39L98.31,131.32L98.61,131.32L98.90,131.37L99.14,131.47L99.32,131.61L99.41,131.78L99.39,131.97L99.27,132.13L99.09,132.25L98.83,132.34L98.53,132.38L98.23,132.35L97.96,132.28L97.74,132.15L97.61,132.00L97.57,131.82"/><path d="M103.52,133.51L101.89,132.57L105.57,130.44L105.57,132.32"/><path d="M105.57,130.44L111.94,134.11L110.31,135.05"/><path d="M108.63,137.78L108.49,137.92L108.43,138.09L108.46,138.26L108.64,138.45L108.81,138.54L109.08,138.62L109.38,138.64L109.68,138.61L109.94,138.52L110.12,138.39L110.25,138.22L110.26,138.05L110.17,137.88L110.00,137.73L109.75,137.63L109.46,137.58L109.16,137.59L108.87,137.65L108.63,137.78"/><path d="M117.64,115.39L118.02,115.43L118.31,115.39L118.57,115.30L118.75,115.18L118.88,115.01L118.89,114.83L118.80,114.67L118.63,114.52L118.38,114.42L118.09,114.37L117.79,114.38L117.51,114.44L117.27,114.56L117.12,114.70L117.06,114.88L117.09,115.05L117.23,115.21L117.44,115.33L117.64,115.39"/><path d="M117.62,98.68L117.77,98.54L117.98,98.44L118.24,98.38L118.52,98.38L118.78,98.42L119.01,98.51L119.17,98.64L119.25,98.80L119.24,98.96L119.13,99.12L118.96,99.23L118.72,99.31L118.45,99.34L118.17,99.33L117.92,99.25L117.73,99.14L117.60,99.00L117.57,98.84L117.62,98.68"/><path d="M119.02,152.37L118.96,152.55L119.01,152.76L119.14,152.91L119.37,153.04L119.66,153.13L119.99,153.15L120.31,153.11L120.59,153.01L120.80,152.87L120.92,152.69L120.93,152.50L120.84,152.32L120.65,152.17L120.38,152.06L120.07,152.01L119.74,152.01L119.44,152.08L119.19,152.21L119.02,152.37"/><path d="M126.08,153.46L126.02,153.64L126.06,153.83L126.20,154.00L126.43,154.13L126.72,154.22L127.05,154.24L127.37,154.20L127.65,154.11L127.84,153.98L127.98,153.79L127.99,153.60L127.90,153.42L127.71,153.26L127.44,153.15L127.12,153.10L126.81,153.11L126.50,153.18L126.25,153.30L126.08,153.46"/><path d="M127.69,93.62L127.49,93.50L127.37,93.36L127.34,93.20L127.39,93.04L127.53,92.90L127.75,92.80L128.01,92.74L128.28,92.74L128.55,92.78L128.78,92.88L128.94,93.01L129.02,93.16L129.00,93.32L128.89,93.48L128.72,93.59L128.48,93.67L128.21,93.71L127.94,93.69L127.69,93.62"/><path d="M135.21,77.85L135.21,80.07"/><path d="M135.21,68.12L135.21,73.15"/><path d="M139.42,102.88L139.15,102.80L138.93,102.68L138.80,102.52L138.76,102.35L138.82,102.17L138.98,102.02L139.21,101.91L139.49,101.85L139.80,101.84L140.09,101.89L140.33,101.99L140.51,102.13L140.60,102.30L140.58,102.48L140.47,102.64L140.28,102.77L140.02,102.86L139.72,102.90L139.42,102.88"/><path d="M139.81,68.66L139.90,68.43L140.10,68.23L140.41,68.08L140.79,68.00L141.19,67.99L141.58,68.05L141.91,68.19L142.14,68.38L142.26,68.60L142.24,68.83L142.09,69.05L141.83,69.23L141.49,69.35L141.09,69.40L140.69,69.37L140.32,69.27L140.04,69.10L139.86,68.89L139.81,68.66"/><path d="M149.65,121.32L149.78,121.47L150.06,121.62L150.27,121.67L150.57,121.69L150.87,121.66L151.13,121.57L151.33,121.44L151.44,121.27L151.45,121.10L151.36,120.93L151.19,120.79L150.94,120.69L150.65,120.64L150.35,120.64L150.06,120.71L149.83,120.82L149.68,120.97L149.61,121.15L149.65,121.32"/><path d="M153.46,151.45L153.67,151.25L153.98,151.10L154.35,151.02L154.76,151.01L155.14,151.07L155.47,151.21L155.71,151.40L155.82,151.62L155.81,151.85L155.66,152.07L155.40,152.25L155.14,152.34L154.66,152.42L154.25,152.39L153.89,152.29L153.61,152.12L153.43,151.91L153.38,151.68L153.46,151.45"/><path d="M155.70,93.48L156.00,93.50L156.30,93.46L156.56,93.37L156.74,93.25L156.86,93.08L156.87,92.90L156.79,92.73L156.61,92.59L156.37,92.49L156.07,92.44L155.77,92.45L155.49,92.51L155.26,92.62L155.10,92.78L155.04,92.95L155.08,93.12L155.21,93.28L155.43,93.40L155.70,93.48"/><path d="M160.44,151.47L160.44,151.15L160.44,151.57"/><path d="M160.44,151.15L160.44,148.85L160.44,148.93"/><path d="M160.44,148.85L160.44,146.54L160.44,147.69"/><path d="M160.44,146.54L160.44,143.12"/><path d="M160.44,142.21L160.44,140.33L160.57,139.76L160.95,139.22L161.56,138.76L197.30,118.13L198.09,117.78L199.02,117.56L200.01,117.48L220.71,117.48L221.70,117.41L222.63,117.19L223.42,116.83L243.42,105.29L244.03,104.83L244.41,104.29L244.54,103.73"/><path d="M160.44,141.32L160.44,141.92L160.44,141.50"/><path d="M165.89,105.48L165.95,105.31L166.11,105.16L166.34,105.04L166.62,104.98L166.93,104.97L167.22,105.02L167.47,105.12L167.64,105.27L167.73,105.43L167.71,105.61L167.61,105.77L167.41,105.91L167.15,106.00L166.85,106.03L166.55,106.01L166.28,105.93L166.06,105.81L165.93,105.65L165.89,105.48"/><path d="M166.76,126.92L166.68,127.00L166.62,127.16L166.66,127.32L166.78,127.46L166.97,127.58L167.22,127.65L167.50,127.67L167.77,127.63L168.01,127.55L168.18,127.44L168.29,127.28L168.30,127.12L168.22,126.97L168.06,126.83L167.84,126.74L167.57,126.70L167.29,126.70L167.03,126.76L166.76,126.92"/><path d="M183.36,97.51L184.99,96.57L171.43,88.74L169.26,90.00L170.88,90.93"/><path d="M171.43,90.62L171.43,88.74"/><path d="M176.59,121.23L176.44,121.36L176.39,121.52L176.42,121.68L176.55,121.82L176.74,121.94L176.99,122.01L177.27,122.03L177.54,122.00L177.78,121.91L177.95,121.80L178.06,121.64L178.07,121.48L177.99,121.33L177.83,121.20L177.60,121.10L177.34,121.06L177.06,121.06L176.80,121.12L176.59,121.23"/><path d="M176.78,99.39L176.92,99.54L177.13,99.67L177.40,99.74L177.70,99.77L178.00,99.73L178.26,99.64L178.44,99.52L178.57,99.34L178.58,99.17L178.49,99.00L178.32,98.86L178.07,98.76L177.78,98.71L177.48,98.71L177.20,98.78L176.96,98.89L176.81,99.04L176.74,99.23L176.78,99.39"/><path d="M195.84,76.52L195.84,74.64L193.67,75.89L195.30,76.83"/><path d="M195.84,74.64L209.41,82.47L207.78,83.41"/><path d="M203.39,73.93L203.13,73.89L202.89,73.79L202.72,73.65L202.64,73.49L202.66,73.33L202.76,73.17L202.95,73.04L203.19,72.96L203.48,72.92L203.76,72.95L204.02,73.02L204.23,73.14L204.35,73.29L204.39,73.45L204.33,73.61L204.18,73.76L203.96,73.87L203.69,73.93L203.39,73.93"/><path d="M211.40,78.55L211.12,78.50L210.89,78.40L210.73,78.28L210.65,78.13L210.65,77.94L210.75,77.79L210.94,77.66L211.19,77.57L211.47,77.54L211.76,77.56L212.02,77.63L212.22,77.75L212.35,77.90L212.38,78.07L212.33,78.23L212.18,78.37L211.96,78.48L211.69,78.54L211.40,78.55"/><path d="M219.37,114.79L219.77,114.82L220.17,114.78L220.51,114.66L220.78,114.48L220.92,114.26L220.94,114.03L220.82,113.80L220.59,113.61L220.26,113.48L219.87,113.41L219.47,113.42L219.09,113.51L218.78,113.66L218.58,113.86L218.49,114.09L218.54,114.32L218.72,114.53L219.01,114.69L219.37,114.79"/><path d="M244.54,103.27L244.54,101.54L244.55,102.18"/><path d="M244.54,101.54L244.55,94.58"/><path d="M244.55,100.38L244.55,99.63"/></g><g style="stroke:#c00000;stroke-width:0.529"><path d="M50.01,129.88L50.14,130.45L50.53,130.99L51.14,131.45L114.28,167.90L115.07,168.25L116.00,168.47L116.99,168.55L135.51,168.55L136.51,168.47L137.43,168.25L138.23,167.90L159.31,155.73L159.92,155.27L160.31,154.73L160.44,154.16L160.44,148.93"/><path d="M50.01,129.85L50.01,120.31"/><path d="M50.01,120.26L50.01,120.00L50.01,120.56"/><path d="M50.01,120.06L50.01,120.53"/><path d="M135.21,78.33L135.21,80.07L135.07,80.64L134.69,81.17L134.08,81.63L98.35,102.27L97.55,102.62L96.62,102.84L95.63,102.92L74.94,102.92L73.96,102.99L73.02,103.21L72.22,103.56L51.14,115.74L50.53,116.20L50.14,116.73L50.01,117.30L50.01,120.00L50.01,118.93"/><path d="M50.01,117.35L50.01,117.30L50.01,117.37"/><path d="M104.01,133.22L103.52,133.51L108.25,136.24L110.31,135.05L105.57,132.32L104.01,133.22"/><path d="M135.21,78.46L135.21,68.12L135.34,67.55L135.72,67.01L136.33,66.55L156.33,55.01L157.12,54.65L158.05,54.43L159.04,54.36L179.74,54.36L180.73,54.43L181.66,54.65L182.45,55.01L243.42,90.21L244.03,90.66L244.41,91.20L244.54,91.77L244.55,94.58L244.55,93.74"/><path d="M160.44,149.00L160.44,143.08L160.44,143.12"/><path d="M160.44,143.08L160.44,142.21L160.57,141.64L160.95,141.10L161.56,140.64L197.30,120.01L198.09,119.66L199.02,119.44L200.01,119.36L220.71,119.36L221.70,119.29L222.18,119.17L222.63,119.07L223.42,118.71L243.42,107.17L244.03,106.71L244.41,106.17L244.55,105.60L244.55,94.58"/><path d="M171.04,90.85L170.88,90.93L182.82,97.82L183.36,97.51L171.43,90.62L171.04,90.85"/><path d="M196.12,77.31L207.24,83.73L207.78,83.41L195.84,76.52L195.30,76.83L196.12,77.31"/></g></g><g/><g id="paperID" visibility="hidden" opacity="0.00" transform="scale(0.000100)"><path style="stroke:#000000;stroke-width:0.500;fill:#e6e6e6;fill-rule:evenodd" d="M-2000.00,-2000.00L2297.00,-2000.00L2297.00,2210.00L-2000.00,2210.00zM0.00,0.00L297.00,0.00L297.00,210.00L0.00,210.00z"/><path style="fill:#000000;fill-opacity:0.118" d="M3.00,210.00L297.00,210.00L297.00,3.00L300.00,3.00L300.00,213.00L3.00,213.00z"/></g><g id="ToolTip" visibility="hidden" opacity="0" transform="translate(0,0)"><rect id="ToolTipShadow" opacity="0.20" fill="black" stroke="none" x="0" y="0" width="30" height="8"/><rect id="ToolTipBG" fill="#ffffe1" stroke="black" x="0" y="0" width="30" height="8"/><text xml:space="preserve" id="ToolTipText" fill="black" x="0" y="0" width="30" height="8">tooltip</text></g></g></svg>
