<?xml version="1.0" encoding="UTF-8" standalone="no"?>
<svg xmlns="http://www.w3.org/2000/svg" xmlns:xlink="http://www.w3.org/1999/xlink" width="297.000mm" height="210.000mm" viewBox="0.000000 0.000000 297.000000 210.000000" stroke-linejoin="round" stroke-linecap="round" fill="none" fill-rule="evenodd"><desc>3DVIA Composer Export</desc><script type="text/ecmascript"><![CDATA[
if(typeof(top) != "undefined")
{
	top.ShowPaper = ShowPaper;
}
function ShowHotSpot(evt,hotspotid)
{
	var svgDocument = evt.target.ownerDocument;
	var strId = "hotspot."+hotspotid;
	var hotspot = svgDocument.getElementById(strId);
	if(hotspot)
		hotspot.setAttribute("opacity",".5");
}
function HideHotSpot(evt,hotspotid)
{
	var svgDocument = evt.target.ownerDocument;
	var strId = "hotspot."+hotspotid;
	var hotspot = svgDocument.getElementById(strId);
	if(hotspot)
		hotspot.setAttribute("opacity","0");

	var toolTip = svgDocument.getElementById('ToolTip');
	if(toolTip)
		toolTip.setAttribute("visibility","hidden");
}
function ShowToolTip(evt,hotspotid,strTooltip)
{
	if(strTooltip=="")
	return;

	// change text
	var svgDocument = evt.target.ownerDocument;
	var tiptext = svgDocument.getElementById('ToolTipText');
	if( !tiptext )
	return;
	tiptext.firstChild.nodeValue = " " + strTooltip + "  " ;

	// show tooltip before, else some refresh issue

	var toolTip = svgDocument.getElementById('ToolTip');
	if(!toolTip)
	return;

	toolTip.setAttribute("visibility","visible");
	toolTip.setAttribute("opacity",".95");

	// move tooltip
	// get viewbox

	var root = svgDocument.documentElement;
	var vbox = (root.getAttribute("viewBox")).split(' ');
	var x0 = parseFloat(vbox[0]);
	var y0 = parseFloat(vbox[1]);
	var vboxW = parseFloat(vbox[2]);
	var vboxH = parseFloat(vbox[3]);

	// get default width of svg

	var strW = root.getAttribute("width");
	var svgW = parseFloat(strW);
	if(strW.indexOf('mm') != -1)
	svgW *= 3.779;

	var strH = root.getAttribute("height");
	var svgH = parseFloat(strH);
	if(strH.indexOf('mm') != -1)
	svgH *= 3.779;  	// 96 dpi  -> 96/25.4 = 3.779

	// update the viewbox / width / height if svg is embedded in html with zoom fit all
	var realx0 = x0;
	var realy0 = y0;
	var realvboxW = vboxW;
	var realvboxH = vboxH;
	var realsvgW = svgW;
	var realsvgH = svgH;

	if ((typeof(top) == "undefined") || (typeof(top.svgctl1) != "undefined")) // embedded in html
	{
		// get window size in pxl

		svgW = window.innerWidth;
		svgH = window.innerHeight;

		// calculate real viewbox

		realsvgW = svgW;
		realsvgH = svgH;
		if((svgW / svgH) > (vboxW / vboxH))
		{
			realvboxW = (vboxH * svgW) / svgH;
			realvboxH = vboxH;
			realx0 = x0 - (realvboxW - vboxW)/2 ;
		}
		else
		{
			realvboxH = (vboxW * svgH) / svgW;
			realvboxW = vboxW;
			realy0 = y0 - (realvboxH - vboxH)/2 ;
		}
	}

	// get user zoom/pan

	var newScale = root.currentScale;
	var translation = root.currentTranslate;

	// transform pxl to user unit

	var xPos = (((evt.clientX+10- translation.x)/newScale) * realvboxW)/realsvgW  + realx0 ;
	var yPos = (((evt.clientY+5- translation.y)/newScale) * realvboxH)/ realsvgH  + realy0 ;
	var scaleForWidth = ( (1 / newScale) * realvboxH) / realsvgH;

	// move tooltip

	toolTip.setAttribute("transform", "translate(" + xPos + "," + yPos + ")" );

	// resize tooltip

	var fontsize = 12;
	tiptext.setAttribute("font-size",fontsize*scaleForWidth);
	tiptext.setAttribute("y", fontsize*scaleForWidth);
	var tipBG = svgDocument.getElementById('ToolTipBG');
	var outline = tiptext.getBBox();
	if(tipBG)
	{
		tipBG.setAttribute("stroke-width", 1*scaleForWidth);
		tipBG.setAttribute("width", Number(outline.width) );
		tipBG.setAttribute("height", Number(outline.height) + fontsize*.5*scaleForWidth );
	}
	var ToolTipShadow = svgDocument.getElementById('ToolTipShadow');
	if(ToolTipShadow)
	{
		ToolTipShadow.setAttribute("width", Number(outline.width) );
		ToolTipShadow.setAttribute("height", Number(outline.height) + fontsize*.5*scaleForWidth );
		ToolTipShadow.setAttribute("x", 3*scaleForWidth);
		ToolTipShadow.setAttribute("y", 3*scaleForWidth);
	}
}
function ShowPaper()
{
  var svgDocument = getDocument();
  var paper = svgDocument.getElementById("paperID");
  if(paper)
  {
    paper.setAttribute("transform","scale(1)");
    paper.setAttribute("opacity","1");
    paper.setAttribute("visibility","visible");
  }
  var svg = svgDocument.getRootElement();
  if(svg)
  {
    svg.setAttribute("width","307.000mm");
    svg.setAttribute("height","220.000mm");
    svg.setAttribute("viewBox","-5.000000 -5.000000 307.000000 220.000000");
  }
}
]]></script><defs/><g><path style="fill:#000000;fill-opacity:0.098;fill-rule:evenodd" d="M138.67,47.11L138.67,50.64L134.33,53.69L133.66,53.72L131.56,52.90L125.17,52.91L106.51,53.96L103.62,54.48L33.47,101.00L31.45,102.66L31.42,105.29L32.41,104.15L103.35,57.11L104.93,56.59L126.22,55.27L131.30,55.26L132.07,55.54L161.26,68.18L161.77,68.25L161.96,66.28L162.29,66.26L163.36,67.35L166.22,81.83L166.52,82.32L167.84,83.37L168.08,85.75L215.65,106.51L218.79,107.57L222.92,107.56L247.70,106.25L249.79,106.78L275.82,118.07L277.66,118.70L277.84,116.73L278.17,116.71L279.24,117.80L281.86,130.95L281.88,135.25L281.50,135.93L213.80,180.95L211.18,182.28L185.87,183.76L182.00,183.77L178.85,182.72L152.58,171.16L151.55,170.34L150.99,169.07L148.39,155.63L147.33,154.33L96.62,132.26L95.29,132.00L69.72,133.31L66.12,133.32L63.77,132.52L34.85,119.88L34.22,120.13L31.90,121.50L28.80,121.50L25.15,119.90L24.87,119.65L21.46,102.57L21.46,100.81L98.36,49.75L99.40,49.21L130.69,47.39L134.19,47.38L137.35,48.74L137.86,48.81L138.13,46.57zM104.49,89.17L104.51,93.17L104.33,93.29L104.24,93.12L103.34,93.10L104.33,93.29L104.24,96.36L102.03,96.51L101.51,96.82L100.99,96.90L101.11,95.56L101.37,95.17L96.09,92.82L95.20,92.82L91.39,95.34L90.75,95.59L90.83,93.99L94.94,91.26L96.36,91.26L99.75,92.86L100.55,92.96L100.82,89.52L102.30,88.90L103.71,88.90zM104.33,93.29L103.34,93.10L104.24,93.12zM122.92,70.21L122.90,71.40L120.42,71.54L119.90,71.86L119.39,71.93L119.47,70.59L120.42,69.97L122.66,69.95zM157.63,70.72L157.88,71.39L157.24,71.84L155.46,71.84L155.37,70.50L157.32,70.49zM114.22,71.82L114.21,72.96L113.90,73.17L111.75,73.38L111.23,73.70L110.72,73.77L110.80,72.43L112.56,71.54zM121.85,72.41L120.78,72.98L120.77,71.90L121.86,71.83zM114.22,74.14L113.98,74.57L113.84,73.95zM113.37,74.17L112.02,74.55L112.01,73.66L113.46,73.67zM80.60,80.99L80.24,81.54L78.99,81.55L78.99,80.57L79.79,80.47zM71.70,86.79L71.59,87.33L69.97,87.42L69.97,86.53L71.42,86.51zM86.66,87.29L86.64,88.48L83.64,88.64L82.57,89.15L81.82,89.28L81.90,87.94L83.37,87.05L86.39,87.03zM86.42,90.32L85.51,90.76L84.14,90.82L84.14,90.23L85.50,89.97L86.03,89.64L86.37,89.68zM106.88,94.65L106.53,94.97L106.59,95.73L109.77,97.28L109.78,98.70L105.28,96.79L105.27,94.48L105.55,93.88zM91.39,96.26L93.73,96.25L96.08,97.32L96.12,101.33L93.47,100.19L92.04,100.19L91.11,101.35L89.69,101.77L89.39,102.04L88.91,102.16L89.00,98.19L89.51,97.84L88.12,97.55L84.00,100.31L83.92,98.63L87.84,95.99L91.11,95.99zM104.26,97.28L104.28,97.68L103.36,98.13L102.62,98.09L102.56,97.83L103.62,97.56L104.01,97.02zM102.85,97.07L102.04,97.07L102.54,96.76L103.45,96.77zM178.91,98.61L178.80,99.15L177.44,99.24L177.44,98.36L178.63,98.34zM94.26,101.20L93.93,101.55L93.18,101.52L93.18,101.01L94.05,101.01zM92.37,102.55L91.23,102.64L91.22,102.33L92.42,102.30zM92.17,104.11L91.83,104.44L89.68,104.66L89.40,104.92L88.65,105.05L88.71,103.67L89.00,103.11L90.30,103.06zM192.31,104.39L192.20,104.93L190.84,105.02L190.84,104.14L192.04,104.12zM92.15,105.40L91.80,105.98L90.46,105.99L91.53,105.71L91.93,105.18zM90.48,105.23L89.92,105.19L90.17,104.91L91.10,104.92zM63.53,105.69L63.51,106.87L61.30,107.02L60.49,107.56L60.09,107.59L60.09,106.07L61.04,105.44L63.27,105.43zM159.41,106.25L159.42,107.40L157.47,107.55L156.26,108.20L156.26,106.59L157.21,105.97L158.91,105.97zM158.65,108.05L158.56,108.34L157.20,108.70L157.21,108.11L158.40,107.79zM159.42,108.56L159.18,108.99L159.04,108.37zM62.73,107.89L61.39,108.45L61.38,107.37L62.75,107.31zM247.49,109.91L247.49,110.56L246.58,110.99L245.33,110.99L245.25,109.67L245.77,109.36L246.38,109.38zM61.92,110.45L61.93,111.60L59.47,112.02L59.17,112.29L58.70,112.41L58.77,110.80L59.99,110.17L61.14,110.19zM61.97,112.80L61.92,113.20L61.59,113.18L61.54,112.56zM61.20,112.64L60.08,113.18L59.98,112.29L61.17,112.30zM120.26,115.70L120.18,117.04L117.80,117.27L117.50,117.55L117.03,117.66L117.03,116.24L117.81,115.71L119.19,115.44zM120.30,118.05L120.26,118.45L119.92,118.43L119.87,117.81zM119.58,117.71L118.88,118.10L118.06,118.17L118.12,117.64L119.52,117.57zM183.35,123.29L183.33,124.48L181.12,124.63L180.47,125.03L179.83,125.28L179.92,123.94L181.12,123.05L183.09,123.03zM183.33,125.64L183.09,126.07L182.95,125.45zM182.49,125.42L181.20,125.78L181.12,125.20L181.65,124.87L182.56,124.90zM150.21,128.84L150.22,129.99L148.29,130.16L147.20,130.68L146.72,130.80L146.81,129.46L148.01,128.57L149.71,128.56zM69.88,129.07L70.04,129.65L69.22,130.18L67.69,130.17L67.61,128.83L69.56,128.83zM198.33,129.86L198.31,131.04L196.10,131.19L195.60,131.49L194.80,131.58L194.89,130.24L195.84,129.62L198.07,129.60zM149.46,130.65L149.37,130.94L148.09,131.30L148.01,130.72L148.55,130.38L149.20,130.39zM150.22,131.16L149.98,131.59L149.84,130.97zM206.22,132.78L206.48,133.16L192.16,142.76L190.67,142.78L188.73,141.69L203.46,131.98L204.35,131.98zM197.46,131.99L196.18,132.35L196.18,131.55L197.54,131.48zM124.22,134.91L124.15,135.41L122.52,135.50L122.52,134.62L123.70,134.61zM172.55,138.57L172.56,139.72L170.88,139.88L169.32,140.52L169.40,138.92L170.61,138.29L172.05,138.29zM137.62,140.69L137.65,141.02L136.99,141.49L136.27,141.51L135.93,141.27L136.01,140.49L137.09,140.38zM171.81,140.52L170.70,141.03L170.60,140.43zM239.85,147.50L240.11,147.88L225.56,157.51L224.57,157.51L222.37,156.41L237.34,146.45zM245.09,152.74L245.02,153.01L243.40,153.11L243.40,152.23L244.57,152.22zM236.16,158.50L235.80,159.06L234.46,159.15L234.57,158.07L235.07,157.99zM159.73,168.25L159.69,168.86L159.36,169.08L157.22,169.15L157.23,168.00L157.74,167.71L158.62,167.72z"/><g id="Actor_.0"><g style="stroke:#000000;stroke-width:0.088"><path d="M21.25,101.52L21.28,101.11L21.49,100.72L21.88,100.38L98.35,49.59L98.90,49.31L99.56,49.12L100.29,49.02L132.91,47.18L133.66,47.19L134.38,47.31L135.02,47.52L137.83,48.74L138.44,49.10L138.80,49.55L138.90,50.03"/></g><g style="stroke:#000000;stroke-width:0.265"><path d="M134.02,53.74L138.26,50.92L138.71,50.50L138.90,50.03L138.90,47.60L138.80,47.11L138.44,46.67L137.83,46.31L135.02,45.08L134.38,44.87L133.66,44.76L132.91,44.75L100.29,46.59L99.56,46.69L98.90,46.88L98.34,47.17L24.75,96.04L21.88,97.95L21.49,98.29L21.28,98.68L21.25,99.09L21.25,101.52L24.68,119.06L24.86,119.45L25.22,119.81L25.74,120.10L28.55,121.33L29.33,121.57L30.21,121.67L31.11,121.62L31.94,121.42L32.61,121.10L34.73,119.69"/><path d="M72.13,75.24L72.00,75.33"/></g></g><g id="Actor_.1"><g style="stroke:#0000ff;stroke-width:0.176"><path d="M102.22,97.43L102.22,97.43"/><path d="M102.10,97.12L102.19,96.96L102.27,96.89L102.37,96.83L102.38,96.83L102.62,96.74L102.90,96.69L103.20,96.70L103.48,96.76L103.71,96.87L103.86,97.01L103.92,97.17"/><path d="M103.59,97.57L103.70,97.46L103.73,97.33L103.68,97.21L103.56,97.10L103.38,97.01L103.16,96.96L102.93,96.96L102.70,96.99L102.50,97.07L102.42,97.11L102.36,97.17L102.29,97.29L102.30,97.42L102.38,97.54"/></g><g style="stroke:#0000ff;stroke-width:0.529"><path d="M103.92,96.88L103.92,97.17L103.88,97.33L103.75,97.47L103.59,97.57L103.42,97.66L103.21,97.72L102.97,97.73L102.74,97.70L102.53,97.64L102.38,97.54L102.22,97.43L102.11,97.28L102.10,97.12L102.10,96.88"/></g></g><g id="Actor_.2"><g style="stroke:#000000;stroke-width:0.088"><path d="M182.59,126.09L182.72,125.98L182.78,125.86L182.77,125.73L182.68,125.61L182.52,125.52L182.31,125.45L182.08,125.43L181.84,125.45L181.63,125.51L181.47,125.60L181.37,125.71L181.34,125.84L181.40,125.97L181.52,126.07"/><path d="M181.15,125.69L181.18,125.52L181.31,125.38L181.52,125.26L181.78,125.19L182.08,125.16L182.38,125.19L182.64,125.27L182.84,125.39L182.95,125.54L182.97,125.70"/></g><g style="stroke:#000000;stroke-width:0.265"><path d="M181.15,125.04L181.15,125.69L181.22,125.84L181.38,125.98L181.52,126.07L181.61,126.12L181.71,126.15L181.93,126.20L182.17,126.20L182.40,126.16L182.59,126.09L182.72,125.99L182.89,125.86L182.97,125.70L182.97,125.02"/></g></g><g id="Actor_.3"><g style="stroke:#000000;stroke-width:0.088"><path d="M159.71,109.10L159.97,108.87L160.11,108.61L160.12,108.33L160.01,108.08L159.77,107.84L159.42,107.64L158.99,107.50L158.51,107.42L157.41,107.19L156.46,108.02L156.31,108.28L156.30,108.56L156.41,108.82L156.65,109.05L156.60,109.01"/><path d="M159.61,106.04L159.61,107.37L158.51,107.42L158.02,107.42L157.52,107.48L157.08,107.61L156.72,107.79L156.02,108.11"/><path d="M158.36,109.15L158.51,109.14L158.92,109.05L159.24,108.89L159.46,108.69L159.54,108.46L159.47,108.23L159.27,108.02L158.96,107.86L158.72,107.80L158.56,107.76L158.13,107.73L157.70,107.79L157.33,107.91L157.18,108.00L157.06,108.09L156.91,108.31L156.90,108.55L157.03,108.77L157.29,108.96L157.65,109.09L158.08,109.16L158.16,109.15"/><path d="M156.65,109.05L157.00,109.25L157.18,109.31"/><path d="M157.36,107.90L157.27,108.04L157.26,108.21L157.30,108.28"/><path d="M157.41,107.19L157.41,105.85"/><path d="M156.72,106.17L157.20,105.95"/><path d="M159.24,105.96L158.51,105.80L157.64,105.84"/><path d="M159.23,109.32L158.90,109.41L158.78,109.43"/><path d="M159.06,107.91L159.13,107.98L159.17,108.15L159.12,108.30"/><path d="M159.61,107.37L160.01,108.08L160.41,108.49"/></g><g style="stroke:#000000;stroke-width:0.265"><path d="M156.38,108.75L156.02,108.11L156.02,106.78L156.72,106.17L157.08,105.99L157.20,105.95L157.41,105.85L157.64,105.84L158.02,105.79L158.51,105.80L158.99,105.88L159.24,105.96L159.61,106.04L160.01,106.45L160.41,107.16L160.41,108.49L159.71,109.10L159.35,109.28L159.23,109.32L159.01,109.42L158.78,109.43L158.41,109.48L157.91,109.47L157.43,109.39L157.18,109.31L156.81,109.23L156.41,108.82L156.38,108.75"/></g></g><g id="Actor_.4"><g style="stroke:#000000;stroke-width:0.088"><path d="M157.30,108.64L157.33,108.48L157.46,108.33L157.66,108.21L157.93,108.14L158.23,108.12L158.52,108.15L158.79,108.23L158.99,108.35L159.10,108.50L159.12,108.66"/><path d="M157.67,109.03L157.54,108.92L157.49,108.79L157.52,108.67L157.61,108.55L157.78,108.46L157.99,108.40L158.23,108.38L158.46,108.41L158.67,108.47L158.82,108.56L158.91,108.68L158.93,108.81L158.87,108.93L158.73,109.04"/></g><g style="stroke:#000000;stroke-width:0.265"><path d="M157.30,107.99L157.30,108.64L157.37,108.80L157.53,108.93L157.67,109.03L157.76,109.07L157.86,109.11L158.08,109.15L158.32,109.15L158.54,109.12L158.73,109.04L158.87,108.95L159.04,108.81L159.12,108.66L159.12,107.97"/></g></g><g id="Actor_.5"><g style="stroke:#0000ff;stroke-width:0.176"><path d="M92.39,106.04L92.39,106.04L92.65,105.81L92.80,105.55L92.81,105.27L92.69,105.02L92.46,104.78L92.11,104.58L91.68,104.44L91.20,104.36L90.10,104.13L89.40,104.73L88.70,105.05"/><path d="M91.74,104.85L91.64,104.80L91.25,104.70L90.81,104.67L90.39,104.73L90.02,104.85L89.87,104.94L89.74,105.03L89.59,105.26L89.59,105.49L89.72,105.71L89.98,105.90L90.00,105.91L90.34,106.03L90.76,106.10L91.20,106.08L91.60,105.99L91.93,105.84L92.14,105.63L92.22,105.40L92.16,105.17L91.96,104.96L91.74,104.85L91.81,104.92L91.86,105.09L91.80,105.26L91.80,105.26"/><path d="M92.30,103.90L92.30,104.31L91.20,104.36L90.70,104.36L90.21,104.42L89.76,104.55L89.40,104.73L89.14,104.96L89.00,105.22L88.98,105.50L89.10,105.76L89.34,105.99L89.69,106.19L89.87,106.25"/><path d="M89.34,105.99L89.29,105.95"/><path d="M90.00,105.24L89.95,105.15L89.95,104.98L90.05,104.84"/><path d="M89.88,102.89L89.40,103.11"/><path d="M90.10,104.13L90.10,102.95"/><path d="M91.47,106.37L91.59,106.35L91.91,106.26"/><path d="M93.09,105.43L92.69,105.02L92.30,104.31"/></g><g style="stroke:#0000ff;stroke-width:0.529"><path d="M92.39,106.04L92.03,106.22L91.91,106.26L91.69,106.36L91.47,106.37L91.09,106.42L90.60,106.41L90.12,106.33L89.87,106.25L89.50,106.17L89.10,105.76L88.70,105.05L88.70,103.72L89.40,103.11L89.76,102.93L89.88,102.89L89.93,102.87"/><path d="M92.83,103.64L93.09,104.10L93.09,105.43L92.39,106.04"/></g></g><g id="Actor_.6"><g style="stroke:#000000;stroke-width:0.088"><path d="M118.13,118.21L118.16,118.05L118.28,117.90L118.49,117.79L118.76,117.71L119.06,117.69L119.35,117.72L119.61,117.80L119.80,117.91L119.81,117.92L119.93,118.07L119.95,118.23"/><path d="M118.50,118.60L118.37,118.49L118.32,118.37L118.34,118.24L118.44,118.12L118.61,118.03L118.82,117.97L119.05,117.95L119.29,117.98L119.49,118.04L119.65,118.14L119.74,118.25L119.76,118.38L119.69,118.51L119.56,118.61"/></g><g style="stroke:#000000;stroke-width:0.265"><path d="M118.13,117.57L118.13,118.21L118.19,118.37L118.35,118.51L118.50,118.60L118.58,118.64L118.68,118.68L118.91,118.72L119.14,118.73L119.37,118.69L119.56,118.61L119.70,118.52L119.87,118.39L119.95,118.23L119.95,117.55"/></g></g><g id="Actor_.7"><g style="stroke:#0000ff;stroke-width:0.176"><path d="M102.21,94.75L102.21,96.08L101.25,96.92L101.11,97.18L101.09,97.45L101.21,97.71L101.45,97.95L101.80,98.15L101.98,98.21"/><path d="M104.50,97.99L104.50,97.99L104.76,97.77L104.91,97.51L104.92,97.23L104.80,96.97L104.57,96.74L104.22,96.54L103.78,96.40L103.31,96.32L102.81,96.31L102.32,96.38L101.87,96.51L101.51,96.69L100.81,97.01"/><path d="M103.85,96.80L103.75,96.75L103.36,96.66L102.92,96.63L102.50,96.68L102.13,96.81L101.98,96.89L101.85,96.99L101.70,97.21L101.69,97.45L101.83,97.67L102.09,97.86L102.45,97.99L102.87,98.05L103.31,98.04L103.71,97.95L104.04,97.79L104.25,97.59L104.33,97.36L104.27,97.12L104.07,96.92L103.85,96.80L103.92,96.88L103.97,97.05L103.91,97.21L103.91,97.22"/><path d="M101.45,97.95L101.40,97.91"/><path d="M102.16,96.80L102.06,96.94L102.06,97.11L102.11,97.20"/><path d="M102.21,96.08L103.31,96.32L104.41,96.27L104.41,94.94"/><path d="M101.99,94.85L101.51,95.07L101.51,95.07"/><path d="M102.44,94.74L103.31,94.70L104.04,94.86"/><path d="M103.58,98.32L103.70,98.31L104.02,98.21"/><path d="M104.41,96.27L104.80,96.97L105.20,97.39"/></g><g style="stroke:#0000ff;stroke-width:0.529"><path d="M104.50,97.99L105.20,97.39L105.20,96.05L104.80,95.35L104.41,94.94L104.04,94.86L103.78,94.77L103.31,94.70L102.81,94.69L102.44,94.74L102.21,94.75L101.99,94.85L101.87,94.89L101.51,95.07L100.81,95.68L100.81,97.01L101.21,97.71L101.61,98.13L101.98,98.21L102.23,98.29L102.71,98.37L103.20,98.37L103.58,98.32L103.80,98.31L104.02,98.21L104.14,98.18L104.50,97.99"/></g></g><g id="Actor_.8"><g style="stroke:#000000;stroke-width:0.088"><path d="M81.77,89.33L82.29,89.14L82.74,88.89L83.18,88.55L83.70,88.05L84.51,88.28L85.21,88.38L85.86,88.48L86.46,88.68L86.94,88.95L87.26,89.28L87.01,88.88L86.71,88.31L85.90,88.40L85.21,88.38L84.52,88.37L83.84,88.46L83.23,88.64L82.74,88.89L82.38,89.20L82.18,89.56L82.16,89.94L82.32,90.30L82.65,90.62L83.13,90.89L83.72,91.09L84.38,91.19L85.06,91.20L85.74,91.11L86.35,90.93L86.85,90.68L87.20,90.37L87.40,90.01L87.42,89.63L87.26,89.28L87.51,89.58L87.81,89.84"/><path d="M83.01,89.84L83.00,89.93L83.19,90.23L83.54,90.49L84.03,90.67L84.61,90.75L85.20,90.73L85.75,90.61L86.20,90.40L86.49,90.12L86.60,89.81L86.51,89.49L86.24,89.20L86.02,89.09L86.17,89.24L86.23,89.49L86.15,89.75L85.91,89.97L85.56,90.14L85.12,90.23L84.64,90.25L84.19,90.18L83.79,90.04L83.52,89.84L83.51,89.84L83.36,89.59L83.37,89.34L83.54,89.10L83.56,89.08L83.39,89.17L83.22,89.31L83.01,89.61L83.01,89.84"/><path d="M83.82,88.98L83.59,89.06L83.56,89.08"/><path d="M83.70,88.05L83.70,86.83"/><path d="M86.02,89.09L85.81,88.98L85.76,88.97"/><path d="M86.71,88.31L86.71,87.09"/></g><g style="stroke:#000000;stroke-width:0.265"><path d="M82.12,89.99L82.07,89.90L81.77,89.33L81.77,88.11L82.29,87.61L82.74,87.27L83.18,87.02L83.70,86.83L84.51,86.74L85.21,86.76L85.90,86.86L86.71,87.09L87.01,87.35L87.26,87.65L87.51,88.05L87.81,88.62L87.81,89.84L87.29,90.34L86.85,90.68L86.41,90.93L85.89,91.12L85.07,91.21L84.38,91.19L83.69,91.09L82.87,90.86L82.57,90.60L82.32,90.30L82.12,89.99"/><path d="M85.76,88.97L85.27,88.85L84.68,88.82L84.10,88.89L83.82,88.98"/></g></g><g id="Actor_.9"><g style="stroke:#000000;stroke-width:0.088"><path d="M172.87,141.46L173.13,141.24L173.28,140.97L173.29,140.70L173.17,140.44L172.94,140.21L172.59,140.01L172.15,139.87L171.68,139.79L170.58,139.55L169.62,140.39L169.48,140.65L169.46,140.92L169.58,141.18L169.82,141.42L170.17,141.62L170.35,141.68"/><path d="M173.57,140.85L173.17,140.44L172.78,139.74L171.68,139.79L171.18,139.78L170.69,139.85L170.24,139.98L169.88,140.16L169.18,140.48"/><path d="M169.82,141.42L169.77,141.38"/><path d="M171.29,141.52L171.24,141.52L170.82,141.46L170.46,141.33L170.20,141.14L170.06,140.92L170.07,140.68L170.22,140.46L170.35,140.36L170.50,140.28L170.53,140.27L170.43,140.41L170.43,140.58L170.47,140.66"/><path d="M170.58,139.55L170.58,138.22"/><path d="M170.53,140.27L170.87,140.15L171.29,140.10L171.73,140.12L172.12,140.22L172.44,140.39L172.64,140.59L172.70,140.83L172.62,141.06L172.41,141.26L172.08,141.42L171.68,141.51L171.56,141.51"/><path d="M169.88,138.54L169.88,138.54L170.36,138.32"/><path d="M172.41,138.33L171.68,138.17L170.81,138.21"/><path d="M172.39,141.68L172.07,141.78L171.95,141.79"/><path d="M172.22,140.27L172.29,140.35L172.34,140.52L172.29,140.65"/><path d="M172.78,139.74L172.78,138.41"/></g><g style="stroke:#000000;stroke-width:0.265"><path d="M169.88,138.54L170.24,138.36L170.36,138.32L170.58,138.22L170.81,138.21L171.18,138.16L171.68,138.17L172.15,138.24L172.41,138.33L172.78,138.41L173.17,138.82L173.57,139.52L173.57,140.85L172.87,141.46L172.51,141.65L172.39,141.68L172.17,141.78L171.95,141.79L171.57,141.84L171.08,141.83L170.60,141.76L170.35,141.68L169.98,141.60L169.58,141.18L169.18,140.48L169.18,139.15L169.88,138.54"/></g></g><g id="Actor_.10"><g style="stroke:#000000;stroke-width:0.088"><path d="M120.53,118.67L120.79,118.44L120.94,118.18L120.95,117.91L120.84,117.65L120.60,117.41L120.25,117.21L119.82,117.07L119.34,117.00L118.24,116.76L117.54,117.37L116.84,117.69"/><path d="M119.19,118.72L119.34,118.71L119.74,118.62L120.07,118.47L120.29,118.26L120.37,118.03L120.30,117.80L120.10,117.59L119.79,117.43L119.71,117.41L119.39,117.33L118.95,117.31L118.53,117.36L118.16,117.48L118.01,117.57L117.88,117.67L117.73,117.89L117.73,117.91L117.73,118.12L117.86,118.35L118.12,118.53L118.48,118.67L118.90,118.73L118.99,118.73"/><path d="M121.23,118.06L120.84,117.65L120.44,116.94L119.34,117.00L118.84,116.99L118.35,117.05L117.90,117.18L117.54,117.37L117.28,117.59L117.14,117.86L117.13,118.13L117.24,118.39L117.48,118.62L117.43,118.59"/><path d="M117.48,118.62L117.83,118.82L118.01,118.88"/><path d="M118.13,117.85L118.09,117.79L118.09,117.62L118.19,117.47"/><path d="M118.02,115.53L117.54,115.75"/><path d="M118.24,116.76L118.24,115.43"/><path d="M120.07,115.53L119.34,115.37L118.47,115.41"/><path d="M120.05,118.89L119.73,118.98L119.61,119.00"/><path d="M119.88,117.48L119.95,117.55L120.00,117.72L119.95,117.87"/><path d="M120.44,116.94L120.44,115.61"/></g><g style="stroke:#000000;stroke-width:0.265"><path d="M116.97,117.91L116.84,117.69L116.84,116.35L117.54,115.74L117.90,115.56L118.02,115.53L118.24,115.43L118.47,115.41L118.84,115.37L119.34,115.37L119.82,115.45L120.07,115.53L120.44,115.61L120.84,116.03L121.23,116.73L121.23,118.06L120.53,118.67L120.17,118.85L120.05,118.89L119.83,118.99L119.61,119.00L119.23,119.05L118.74,119.04L118.26,118.96L118.01,118.88L117.64,118.80L117.24,118.39L116.97,117.91"/></g></g><g id="Actor_.11"><g style="stroke:#000000;stroke-width:0.088"><path d="M194.82,131.67L195.52,131.35L195.26,131.58L195.12,131.84L195.10,132.12L195.22,132.38L195.46,132.61L195.41,132.57"/><path d="M195.46,132.61L195.81,132.81L195.99,132.87"/><path d="M197.17,132.71L197.32,132.70L197.72,132.61L198.05,132.45L198.26,132.25L198.34,132.02L198.28,131.79L198.08,131.58L197.76,131.42L197.37,131.32L196.93,131.29L196.51,131.35L196.14,131.47L195.99,131.56L195.86,131.65L195.71,131.87L195.71,132.11L195.84,132.33L196.10,132.52L196.46,132.65L196.88,132.72L196.97,132.71"/><path d="M199.21,132.05L198.81,131.63L198.42,130.93L197.32,130.98L196.82,130.98L196.33,131.04L195.88,131.17L195.52,131.35L196.22,130.74L197.32,130.98L197.80,131.06L198.23,131.20L198.58,131.40L198.81,131.63L198.93,131.89L198.92,132.17L198.77,132.43L198.51,132.66"/><path d="M196.00,129.51L195.52,129.73"/><path d="M196.17,131.46L196.07,131.60L196.07,131.77L196.11,131.84"/><path d="M196.22,129.41L196.22,130.74"/><path d="M198.05,129.52L197.32,129.36L196.45,129.40"/><path d="M198.03,132.88L197.71,132.97L197.59,132.99"/><path d="M197.86,131.47L197.93,131.54L197.98,131.71L197.93,131.86"/><path d="M198.42,130.93L198.42,129.60"/></g><g style="stroke:#000000;stroke-width:0.265"><path d="M195.52,129.73L194.82,130.34L194.82,131.67L195.22,132.38L195.62,132.79L195.99,132.87L196.24,132.95L196.72,133.03L197.21,133.03L197.59,132.99L197.81,132.98L198.03,132.88L198.15,132.84L198.51,132.66L199.21,132.05L199.21,130.71L198.81,130.01L198.42,129.60L198.05,129.52L197.80,129.44L197.32,129.36L196.82,129.35L196.45,129.40L196.22,129.41L196.00,129.51L195.88,129.55L195.52,129.73"/></g></g><g id="Actor_.12"><g style="stroke:#ff0000;stroke-width:0.176"><path d="M88.20,95.71L88.20,97.33L83.91,100.19L83.80,100.28L83.74,100.42"/><path d="M89.82,101.61L88.72,102.34L88.72,98.29L89.82,97.56L89.82,101.61L89.88,101.61L90.52,101.47L91.05,101.23L91.38,100.90L91.50,100.53L91.49,100.50L92.11,100.09L93.19,100.03L93.19,95.97L92.11,96.04L92.11,100.09"/><path d="M88.72,102.34L92.38,103.94L96.26,101.37L93.19,100.03"/><path d="M88.20,97.33L88.52,97.44L89.18,97.56L89.82,97.56L89.18,97.56"/><path d="M88.89,102.89L89.33,103.08L89.12,103.25L88.97,103.49"/><path d="M91.24,102.03L91.26,102.05L91.39,102.13L91.49,102.19L91.61,102.22L91.75,102.22L91.89,102.21L92.01,102.17L92.21,102.03L92.02,101.96L91.79,101.93L91.56,101.94L91.34,101.99L91.16,102.07L91.09,102.14L91.01,102.25L91.01,102.38L91.05,102.43L91.09,102.50L91.23,102.60L91.43,102.67L91.66,102.70L91.89,102.69L92.11,102.64L92.29,102.56L92.36,102.50L92.44,102.38L92.44,102.26L92.44,102.25L92.36,102.13L92.21,102.03L92.02,102.16"/><path d="M104.36,94.93L104.28,94.88L103.67,94.70L102.99,94.63L102.30,94.70L101.70,94.89L101.44,95.04L96.13,92.73L95.95,92.67L95.70,92.63L95.43,92.65L95.19,92.71L95.05,92.79L90.75,95.64"/><path d="M91.49,100.50L91.49,96.45L91.37,96.11L91.02,95.78L90.79,95.67"/><path d="M92.04,102.15L92.19,102.05"/><path d="M92.11,96.04L91.49,96.45"/><path d="M94.03,100.82L94.18,100.92L94.25,101.05L94.25,101.17L94.18,101.29L94.10,101.35L93.93,101.44L93.71,101.49L93.48,101.50L93.25,101.46L93.05,101.39L92.91,101.30L92.83,101.17L92.83,101.05L92.90,100.93L92.98,100.87L93.16,100.78L93.38,100.73L93.61,100.72L93.84,100.76L94.03,100.82L93.99,100.85L94.00,100.84"/><path d="M93.84,100.95L93.93,100.89L93.82,100.96L93.70,101.00L93.57,101.02L93.43,101.01L93.30,100.98L93.20,100.93L93.07,100.84L93.06,100.83"/><path d="M93.19,95.97L96.26,97.31L96.26,101.37"/><path d="M93.93,100.89L93.99,100.85"/><path d="M100.99,93.22L101.44,93.42L101.44,95.04"/><path d="M101.44,93.42L101.88,93.20L102.41,93.06L103.00,93.01L103.58,93.06L104.12,93.19L104.56,93.40L104.87,93.68L105.02,93.99L105.01,95.71"/><path d="M103.11,102.20L102.86,102.32L102.52,102.64L102.41,103.01L102.54,103.38L102.89,103.70L103.16,103.84"/><path d="M105.00,95.69L104.99,95.51L104.74,95.16L104.45,94.98"/><path d="M110.17,99.07L110.14,98.93L110.03,98.80L109.89,98.72L105.20,96.68"/><path d="M106.47,95.61L105.01,94.97"/></g><g style="stroke:#ff0000;stroke-width:0.529"><path d="M100.99,93.22L96.13,91.10L95.96,91.05L95.71,91.01L95.47,91.02L95.23,91.07L95.05,91.16L90.75,94.02L90.75,95.64L90.79,95.67L90.52,95.79L89.88,95.93L89.18,95.94L88.52,95.82L88.20,95.71L83.91,98.56L83.80,98.65L83.74,98.79L83.74,100.42L83.76,100.56L83.88,100.69L84.02,100.77L88.89,102.89L88.90,103.55"/><path d="M93.09,104.72L97.78,106.76L97.95,106.82L98.21,106.85L98.47,106.84L98.71,106.77L98.86,106.70L103.16,103.84L103.16,102.22L103.11,102.20L103.38,102.07L104.03,101.93L104.72,101.92L105.38,102.04L105.70,102.15L110.00,99.30L110.11,99.21L110.17,99.07L110.17,97.45L110.15,97.32L110.05,97.20L109.89,97.10L106.47,95.61"/><path d="M106.47,95.61L106.47,94.21"/></g></g><g id="Actor_.13"><g style="stroke:#000000;stroke-width:0.088"><path d="M150.44,131.69L150.70,131.47L150.85,131.21L150.86,130.93L150.74,130.67L150.51,130.44L150.16,130.24L149.72,130.10L149.25,130.02L148.15,129.78L147.19,130.62L147.05,130.88L147.03,131.15L147.15,131.41L147.39,131.65L147.74,131.85L147.92,131.91"/><path d="M147.34,131.61L147.39,131.65"/><path d="M151.14,131.09L150.74,130.67L150.34,129.97L149.25,130.02L148.75,130.01L148.26,130.08L147.81,130.21L147.45,130.39L146.75,130.71"/><path d="M149.10,131.74L149.25,131.74L149.65,131.65L149.98,131.49L150.19,131.29L150.27,131.06L150.21,130.82L150.01,130.62L149.69,130.45L149.30,130.36L148.86,130.33L148.44,130.38L148.37,130.41L148.07,130.51L147.92,130.59L147.79,130.69L147.64,130.91L147.63,131.15L147.77,131.37L148.03,131.56L148.39,131.69L148.81,131.75L148.90,131.75"/><path d="M148.10,130.50L148.00,130.64L147.99,130.81L148.03,130.88"/><path d="M148.15,129.78L148.15,128.45"/><path d="M147.45,128.77L147.93,128.55"/><path d="M149.98,128.56L149.25,128.40L148.37,128.44"/><path d="M149.52,132.02L149.64,132.01L149.96,131.91"/><path d="M149.79,130.50L149.86,130.58L149.91,130.75L149.86,130.90"/><path d="M150.34,129.97L150.34,128.64"/></g><g style="stroke:#000000;stroke-width:0.265"><path d="M147.15,131.41L146.75,130.71L146.75,129.38L147.45,128.77L147.81,128.59L147.93,128.55L148.15,128.45L148.37,128.44L148.75,128.39L149.25,128.40L149.72,128.47L149.98,128.56L150.34,128.64L150.74,129.05L151.14,129.75L151.14,131.09L150.44,131.69L150.08,131.88L149.96,131.91L149.74,132.01L149.52,132.02L149.14,132.07L148.65,132.07L148.17,131.99L147.92,131.91L147.55,131.83L147.15,131.41"/></g></g><g id="Actor_.14"><g style="stroke:#000000;stroke-width:0.088"><path d="M148.41,131.63L148.28,131.52L148.23,131.39L148.25,131.27L148.35,131.15L148.51,131.06L148.73,131.00L148.96,130.98L149.19,131.00L149.40,131.07L149.56,131.16L149.63,131.25L149.65,131.28L149.66,131.41L149.60,131.53L149.47,131.64"/><path d="M148.03,131.24L148.06,131.08L148.19,130.93L148.40,130.81L148.67,130.74L148.96,130.71L149.26,130.74L149.52,130.82L149.72,130.94L149.84,131.09L149.86,131.26"/></g><g style="stroke:#000000;stroke-width:0.265"><path d="M148.03,130.59L148.03,131.24L148.10,131.39L148.26,131.53L148.41,131.63L148.49,131.67L148.59,131.71L148.81,131.75L149.05,131.75L149.28,131.71L149.47,131.64L149.61,131.55L149.78,131.41L149.86,131.26L149.86,130.57"/></g></g><g id="Actor_.15"><g style="stroke:#0000ff;stroke-width:0.176"><path d="M89.99,105.16L90.08,105.00L90.16,104.93L90.26,104.87L90.51,104.78L90.80,104.74L91.10,104.74L91.37,104.80L91.60,104.91L91.75,105.05L91.81,105.21"/><path d="M91.48,105.62L91.59,105.50L91.62,105.37L91.57,105.25L91.45,105.14L91.27,105.05L91.05,105.01L90.82,105.00L90.59,105.04L90.39,105.11L90.32,105.16L90.25,105.21L90.18,105.33L90.19,105.46L90.27,105.58"/><path d="M90.11,105.47L90.11,105.47"/></g><g style="stroke:#0000ff;stroke-width:0.529"><path d="M91.81,104.92L91.81,105.21L91.77,105.37L91.64,105.51L91.48,105.62L91.31,105.70L91.10,105.76L90.86,105.77L90.63,105.75L90.43,105.68L90.27,105.58L90.11,105.47L90.00,105.32L89.99,105.16L89.99,104.92"/></g></g><g id="Actor_.16"><g style="stroke:#000000;stroke-width:0.088"><path d="M183.56,126.14L183.82,125.92L183.96,125.65L183.98,125.38L183.86,125.12L183.62,124.89L183.28,124.69L182.84,124.55L182.37,124.47L181.27,124.23L180.57,124.84L179.87,125.16"/><path d="M182.22,126.19L182.37,126.19L182.77,126.10L183.10,125.94L183.31,125.74L183.39,125.51L183.33,125.27L183.13,125.07L182.81,124.90L182.41,124.80L181.98,124.78L181.55,124.83L181.18,124.96L181.03,125.04L180.91,125.14L180.76,125.36L180.75,125.60L180.89,125.82L181.15,126.01L181.51,126.14L181.93,126.20L182.02,126.20"/><path d="M183.46,123.09L183.46,124.42L182.37,124.47L181.87,124.46L181.37,124.53L180.93,124.66L180.57,124.84L180.31,125.07L180.16,125.33L180.15,125.60L180.27,125.86L180.50,126.10L180.46,126.06"/><path d="M180.50,126.10L180.85,126.30L181.04,126.36"/><path d="M181.15,125.33L181.11,125.26L181.12,125.09L181.21,124.95"/><path d="M180.57,123.22L181.05,123.00"/><path d="M181.27,124.23L181.27,122.90"/><path d="M183.09,123.01L182.37,122.85L181.49,122.89"/><path d="M182.64,126.47L182.75,126.46L183.08,126.36"/><path d="M182.91,124.95L182.98,125.03L183.03,125.20L182.97,125.35"/><path d="M184.26,125.53L183.86,125.12L183.46,124.42"/></g><g style="stroke:#000000;stroke-width:0.265"><path d="M180.57,123.22L179.87,123.83L179.87,125.16L180.27,125.86L180.67,126.28L181.04,126.36L181.29,126.44L181.76,126.51L182.26,126.52L182.64,126.47L182.86,126.46L183.08,126.36L183.20,126.33L183.56,126.14L184.26,125.53L184.26,124.20L183.86,123.50L183.46,123.09L183.09,123.01L182.84,122.92L182.37,122.85L181.87,122.84L181.49,122.89L181.27,122.90L181.05,123.00L180.93,123.04L180.57,123.22"/></g></g><g id="Actor_.17"><g style="stroke:#000000;stroke-width:0.088"><path d="M122.08,73.13L122.19,73.02L122.22,72.89L122.17,72.77L122.05,72.66L121.87,72.57L121.65,72.53L121.42,72.52L121.19,72.55L120.99,72.63L120.92,72.67L120.85,72.73L120.78,72.85L120.79,72.98L120.87,73.10"/><path d="M120.59,72.68L120.68,72.52L120.76,72.45L120.86,72.39L121.11,72.30L121.40,72.25L121.70,72.26L121.98,72.32L122.20,72.43L122.35,72.57L122.41,72.73"/><path d="M120.71,72.99L120.71,72.99"/></g><g style="stroke:#000000;stroke-width:0.265"><path d="M120.71,72.99L120.87,73.10L121.03,73.20L121.23,73.26L121.46,73.29L121.70,73.28L121.91,73.22L122.08,73.13L122.24,73.03L122.37,72.89L122.41,72.73L122.41,71.88"/><path d="M120.59,71.89L120.59,72.68L120.60,72.84L120.71,72.99"/></g></g><g id="Actor_.18"><g style="stroke:#000000;stroke-width:0.088"><path d="M61.23,108.22L61.30,108.06L61.46,107.92L61.69,107.82L61.97,107.76L62.27,107.76L62.56,107.81L62.80,107.90L62.97,108.04L63.06,108.19"/><path d="M62.76,108.61L62.85,108.49L62.86,108.37L62.80,108.24L62.67,108.14L62.47,108.06L62.25,108.02L62.01,108.03L61.79,108.07L61.60,108.15L61.48,108.26L61.43,108.38L61.45,108.51L61.55,108.63"/></g><g style="stroke:#000000;stroke-width:0.265"><path d="M61.23,107.40L61.23,108.22L61.27,108.38L61.39,108.52L61.55,108.63L61.72,108.72L61.82,108.75L61.93,108.78L62.16,108.80L62.40,108.77L62.60,108.71L62.76,108.61L62.92,108.50L63.04,108.35L63.06,108.19L63.06,107.38"/></g></g><g id="Actor_.19"><g style="stroke:#0000ff;stroke-width:0.176"><path d="M105.39,93.91L105.14,93.51L104.67,93.16L104.02,92.92L103.50,92.85L103.25,92.81L102.46,92.84L101.73,93.00L101.14,93.29"/></g><g style="stroke:#0000ff;stroke-width:0.529"><path d="M105.01,94.81L105.10,94.74L105.37,94.34L105.39,93.91L105.39,89.86L105.14,89.45L104.67,89.11L104.02,88.87L103.25,88.76L102.46,88.78L101.73,88.95L101.14,89.23L100.75,89.60L100.60,90.02L100.60,93.05"/></g></g><g id="Actor_.20"><g style="stroke:#000000;stroke-width:0.088"><path d="M112.04,74.44L112.13,74.29L112.21,74.22L112.30,74.16L112.55,74.06L112.84,74.02L113.14,74.03L113.42,74.09L113.65,74.19L113.80,74.33L113.86,74.49"/><path d="M113.53,74.90L113.63,74.79L113.66,74.66L113.62,74.53L113.50,74.42L113.32,74.34L113.10,74.29L112.86,74.28L112.63,74.32L112.44,74.39L112.36,74.44L112.30,74.50L112.23,74.62L112.24,74.75L112.32,74.87"/></g><g style="stroke:#000000;stroke-width:0.265"><path d="M113.86,73.65L113.86,74.49L113.82,74.65L113.68,74.80L113.53,74.90L113.36,74.99L113.14,75.04L112.91,75.06L112.67,75.03L112.47,74.96L112.32,74.87L112.15,74.75L112.05,74.60L112.04,74.44L112.04,73.66"/></g></g><g id="Actor_.21"><g style="stroke:#000000;stroke-width:0.088"><path d="M59.68,113.59L59.50,113.53L59.15,113.33L58.92,113.09L58.80,112.83L58.81,112.56L58.96,112.30L59.92,111.46L61.01,111.70L61.49,111.78L61.92,111.92L62.27,112.12L62.51,112.35L62.63,112.61L62.61,112.88L62.47,113.15L62.21,113.37L62.21,113.37"/><path d="M61.58,113.25L61.74,113.17L61.96,112.97L62.04,112.74L61.98,112.50L61.78,112.29L61.46,112.13L61.06,112.03L60.63,112.01L60.20,112.06L59.83,112.19L59.68,112.27L59.56,112.37L59.41,112.59L59.40,112.83L59.53,113.05L59.80,113.24L59.84,113.25"/><path d="M58.52,112.39L59.22,112.07L59.58,111.89L60.02,111.76L60.52,111.69L61.01,111.70L62.11,111.65L62.51,112.35L62.91,112.76"/><path d="M59.11,113.29L59.15,113.33"/><path d="M59.70,110.23L59.22,110.45"/><path d="M59.86,112.18L59.77,112.32L59.76,112.49L59.80,112.55"/><path d="M59.92,111.46L59.92,110.13"/><path d="M61.74,110.24L61.01,110.08L60.14,110.12"/><path d="M61.29,113.70L61.40,113.69L61.73,113.59"/><path d="M61.56,112.18L61.63,112.26L61.68,112.42L61.62,112.59"/><path d="M62.11,111.65L62.11,110.32"/></g><g style="stroke:#000000;stroke-width:0.265"><path d="M62.21,113.37L61.85,113.56L61.73,113.59L61.51,113.69L61.29,113.70L60.91,113.75L60.41,113.74L59.94,113.67L59.68,113.59L59.31,113.51L58.92,113.09L58.52,112.39L58.52,111.06L59.22,110.45L59.58,110.26L59.70,110.23L59.92,110.13L60.14,110.12L60.52,110.07L61.01,110.08L61.49,110.15L61.74,110.24L62.11,110.32L62.51,110.73L62.91,111.43L62.91,112.76L62.21,113.37"/></g></g><g id="Actor_.22"><g style="stroke:#000000;stroke-width:0.088"><path d="M123.00,73.00L122.99,73.00L123.25,72.77L123.40,72.51L123.41,72.24L123.30,71.98L123.06,71.75L122.71,71.55L122.28,71.40L121.80,71.33L120.70,71.09L119.74,71.93L119.60,72.19L119.59,72.46L119.70,72.72L119.94,72.96L120.29,73.16L120.47,73.21"/><path d="M122.38,72.87L122.53,72.80L122.74,72.60L122.83,72.36L122.76,72.13L122.56,71.92L122.25,71.76L121.85,71.66L121.41,71.64L120.99,71.69L120.62,71.82L120.47,71.90L120.34,72.00L120.19,72.22L120.19,72.45L120.32,72.68L120.58,72.87L120.64,72.89"/><path d="M119.94,72.96L119.89,72.92"/><path d="M119.30,72.02L120.00,71.70L120.36,71.52L120.81,71.38L121.30,71.32L121.80,71.33L122.90,71.28L123.30,71.98L123.69,72.39"/><path d="M120.48,69.86L120.00,70.08"/><path d="M120.65,71.81L120.55,71.95L120.55,72.12L120.59,72.20"/><path d="M120.70,71.09L120.70,69.76"/><path d="M122.53,69.86L121.80,69.71L120.93,69.75"/><path d="M122.51,73.22L122.19,73.32L122.07,73.33"/><path d="M122.34,71.81L122.41,71.89L122.46,72.05L122.41,72.19"/><path d="M122.90,71.28L122.90,69.94"/></g><g style="stroke:#000000;stroke-width:0.265"><path d="M122.99,73.00L122.63,73.19L122.51,73.22L122.29,73.32L122.07,73.33L121.69,73.38L121.20,73.37L120.72,73.30L120.47,73.21L120.10,73.13L119.70,72.72L119.30,72.02L119.30,70.69L120.00,70.08L120.36,69.89L120.48,69.86L120.70,69.76L120.93,69.75L121.30,69.70L121.80,69.71L122.28,69.78L122.53,69.86L122.90,69.94L123.30,70.36L123.69,71.06L123.69,72.39L123.00,73.00"/></g></g><g id="Actor_.23"><g style="stroke:#000000;stroke-width:0.088"><path d="M170.47,141.05L170.48,140.88L170.58,140.73L170.77,140.61L171.00,140.53L171.03,140.52L171.32,140.48L171.47,140.49L171.62,140.50L171.89,140.57L172.11,140.68L172.25,140.82L172.29,140.98"/><path d="M170.88,141.42L170.74,141.32L170.66,141.19L170.67,141.07L170.75,140.95L170.90,140.85L171.10,140.78L171.33,140.75L171.45,140.75L171.57,140.76L171.78,140.82L171.95,140.90L172.06,141.02L172.10,141.14L172.05,141.27L171.94,141.38"/></g><g style="stroke:#000000;stroke-width:0.265"><path d="M172.29,140.34L172.29,140.98L172.24,141.14L172.09,141.28L171.94,141.38L171.76,141.47L171.54,141.52L171.30,141.52L171.07,141.49L170.88,141.42L170.75,141.33L170.56,141.20L170.47,141.05L170.47,140.35"/></g></g><g id="Actor_.24"><g style="stroke:#000000;stroke-width:0.088"><path d="M83.75,89.71L83.61,89.51L83.60,89.29L83.72,89.09L83.90,88.95"/><path d="M85.68,88.95L85.72,88.97L85.92,89.15L85.99,89.36L85.94,89.57L85.87,89.67L85.76,89.76"/></g><g style="stroke:#000000;stroke-width:0.265"><path d="M86.17,89.26L86.12,89.44L86.04,89.56L85.92,89.66L85.76,89.76L85.48,89.91L85.12,90.00L84.73,90.03L84.34,89.98L84.00,89.87L83.75,89.71L83.58,89.60L83.42,89.36L83.42,89.27"/></g></g><g id="Actor_.25"><g style="stroke:#000000;stroke-width:0.088"><path d="M61.20,113.56L61.20,113.56L61.34,113.46L61.42,113.34L61.43,113.21L61.35,113.09L61.21,112.99L61.01,112.92L60.78,112.89L60.54,112.90L60.32,112.95L60.15,113.03L60.03,113.15L59.99,113.27L60.03,113.40L60.14,113.51"/><path d="M59.80,113.11L59.85,112.95L60.00,112.81L60.22,112.70L60.50,112.64L60.80,112.62L61.09,112.66L61.34,112.75L61.52,112.88L61.62,113.04"/><path d="M61.33,113.48L61.32,113.48"/><path d="M61.61,113.20L61.61,113.20"/></g><g style="stroke:#000000;stroke-width:0.265"><path d="M59.80,112.27L59.80,113.11L59.85,113.27L59.99,113.41L60.14,113.51L60.31,113.60L60.53,113.65L60.77,113.66L61.00,113.63L61.10,113.60L61.20,113.56"/><path d="M61.20,113.56L61.33,113.48L61.51,113.35L61.61,113.20"/><path d="M61.62,112.24L61.62,113.04L61.61,113.20"/></g></g><g id="Actor_.26"><g style="stroke:#000000;stroke-width:0.088"><path d="M63.64,108.50L63.64,108.51L63.90,108.28L64.05,108.02L64.06,107.74L63.94,107.48L63.71,107.25L63.36,107.05L62.92,106.91L62.45,106.83L61.35,106.59L60.39,107.43L60.25,107.69L60.23,107.97L60.35,108.23L60.59,108.46L60.54,108.42"/><path d="M60.59,108.46L60.94,108.66L61.12,108.72"/><path d="M64.34,107.90L63.94,107.48L63.55,106.78L62.45,106.83L61.95,106.82L61.46,106.89L61.01,107.02L60.65,107.20L59.95,107.52"/><path d="M61.13,105.36L60.65,105.58"/><path d="M63.02,108.38L63.18,108.30L63.39,108.10L63.47,107.87L63.41,107.64L63.21,107.43L62.89,107.26L62.50,107.17L62.06,107.14L61.64,107.20L61.27,107.32L61.12,107.41L60.99,107.50L60.84,107.72L60.83,107.96L60.97,108.18L61.23,108.37L61.27,108.39"/><path d="M61.30,107.31L61.20,107.45L61.19,107.62L61.23,107.69"/><path d="M61.35,106.59L61.35,105.26"/><path d="M61.57,105.25L62.45,105.21L63.18,105.37"/><path d="M62.72,108.84L62.84,108.82L63.16,108.72"/><path d="M62.99,107.32L63.06,107.39L63.11,107.56L63.06,107.71"/><path d="M63.55,106.78L63.55,105.45"/></g><g style="stroke:#000000;stroke-width:0.265"><path d="M63.64,108.51L63.28,108.69L63.16,108.72L62.94,108.82L62.72,108.84L62.34,108.88L61.85,108.88L61.37,108.80L61.12,108.72L60.75,108.64L60.35,108.23L59.95,107.52L59.95,106.19L60.65,105.58L61.01,105.40L61.13,105.36L61.35,105.26L61.57,105.25L61.95,105.20L62.45,105.21L62.92,105.29L63.18,105.37L63.55,105.45L63.94,105.86L64.34,106.56L64.34,107.90L63.64,108.50"/></g></g><g id="Actor_.27"><g style="stroke:#000000;stroke-width:0.088"><path d="M282.10,134.34L279.39,120.46L279.09,119.80L278.49,119.21L277.63,118.72L250.07,106.72L249.00,106.36L247.80,106.17L246.54,106.15L220.74,107.61L219.48,107.59L218.28,107.40L217.21,107.05L167.97,85.60L167.10,85.11L166.50,84.52L166.21,83.86L163.50,69.99L163.20,69.33L162.60,68.74L161.74,68.24L132.69,55.59L131.61,55.24L130.41,55.05L129.15,55.03L106.06,56.33L104.83,56.49L103.73,56.82L102.82,57.28L32.37,104.07L31.71,104.65L31.36,105.29L31.32,105.97"/><path d="M67.50,129.97L67.19,129.75L67.04,129.49L67.05,129.21L67.22,128.96L67.54,128.75L67.97,128.60L68.46,128.54L68.97,128.57L69.43,128.68L69.79,128.87L70.02,129.11L70.10,129.38L70.01,129.65L69.75,129.89L69.38,130.07L68.91,130.17L68.40,130.19L67.91,130.12L67.50,129.97"/><path d="M69.51,86.88L69.56,87.07L69.75,87.26L69.99,87.38L70.32,87.46L70.68,87.48L71.03,87.44L71.34,87.34L71.57,87.18L71.69,87.00L71.70,86.81L71.59,86.62L71.38,86.47L71.07,86.36L70.72,86.30L70.36,86.32L70.03,86.39L69.75,86.53L69.58,86.69L69.51,86.88"/><path d="M78.43,80.96L78.48,81.15L78.65,81.32L78.91,81.46L79.24,81.54L79.60,81.56L79.95,81.51L80.26,81.41L80.49,81.26L80.61,81.08L80.62,80.88L80.46,80.66L80.30,80.55L79.99,80.43L79.64,80.38L79.28,80.39L78.95,80.47L78.65,80.62L78.50,80.77L78.43,80.96"/><path d="M106.47,94.95L107.15,94.50L105.39,93.74"/><path d="M122.18,135.08L122.28,135.26L122.49,135.41L122.78,135.51L123.11,135.56L123.46,135.55L123.78,135.48L124.04,135.35L124.21,135.19L124.28,135.01L124.23,134.82L124.04,134.64L123.82,134.53L123.50,134.45L123.16,134.43L122.81,134.47L122.49,134.59L122.30,134.72L122.18,134.89L122.18,135.08"/><path d="M135.74,141.12L135.95,141.27L136.24,141.37L136.57,141.42L136.92,141.41L137.24,141.34L137.50,141.21L137.67,141.05L137.74,140.87L137.69,140.68L137.50,140.50L137.27,140.39L136.96,140.31L136.38,140.32L135.98,140.43L135.76,140.58L135.64,140.75L135.63,140.94L135.74,141.12"/><path d="M154.83,71.18L154.98,71.44L155.29,71.66L155.71,71.81L156.20,71.88L156.70,71.87L157.17,71.76L157.55,71.58L157.80,71.34L157.89,71.07L157.82,70.81L157.59,70.56L157.22,70.37L156.76,70.26L156.25,70.23L155.76,70.30L155.33,70.44L155.01,70.65L154.84,70.91L154.83,71.18"/><path d="M156.76,168.56L156.91,168.82L157.22,169.04L157.64,169.20L158.13,169.27L158.62,169.25L159.10,169.14L159.48,168.96L159.73,168.73L159.82,168.46L159.75,168.20L159.52,167.95L159.15,167.76L158.69,167.64L158.18,167.62L157.69,167.68L157.26,167.82L157.03,167.98L156.94,168.03L156.77,168.29L156.76,168.56"/><path d="M176.97,98.82L177.01,98.90L177.22,99.05L177.51,99.16L177.85,99.21L178.20,99.20L178.52,99.13L178.78,99.00L178.95,98.84L179.01,98.66L178.96,98.47L178.78,98.29L178.55,98.17L178.23,98.09L177.89,98.08L177.55,98.12L177.25,98.22L177.04,98.36L176.92,98.54L176.91,98.73L176.97,98.82"/><path d="M191.62,140.58L191.62,143.01L188.63,141.71L190.84,140.24"/><path d="M190.37,104.59L190.47,104.77L190.68,104.92L190.97,105.02L191.30,105.07L191.65,105.06L191.98,104.99L192.23,104.86L192.41,104.70L192.47,104.52L192.42,104.33L192.23,104.15L192.01,104.03L191.69,103.96L191.35,103.94L191.01,103.98L190.71,104.08L190.49,104.22L190.37,104.40L190.37,104.59"/><path d="M204.54,132.00L206.76,132.96L191.62,143.01"/><path d="M225.27,155.23L225.27,157.67L222.28,156.36L224.49,154.89"/><path d="M225.27,157.67L240.40,147.61L238.19,146.65"/><path d="M234.06,158.71L234.22,158.89L234.48,159.02L234.81,159.10L235.17,159.12L235.53,159.08L235.83,158.98L236.06,158.82L236.18,158.64L236.19,158.44L236.08,158.26L235.86,158.10L235.56,158.00L235.22,157.94L234.85,157.96L234.52,158.03L234.25,158.16L234.07,158.33L234.00,158.52L234.06,158.71"/><path d="M242.98,152.79L242.92,152.60L242.99,152.41L243.17,152.24L243.44,152.11L243.77,152.03L244.13,152.02L244.49,152.07L244.78,152.18L245.00,152.34L245.10,152.51L245.10,152.73L244.98,152.90L244.75,153.05L244.45,153.15L244.09,153.20L243.73,153.18L243.40,153.10L243.14,152.96L242.98,152.79"/><path d="M244.71,110.52L245.01,110.73L245.43,110.89L245.92,110.96L246.42,110.94L246.89,110.84L247.27,110.66L247.52,110.42L247.61,110.15L247.54,109.88L247.31,109.64L246.94,109.45L246.48,109.34L245.98,109.31L245.48,109.37L245.05,109.51L244.73,109.73L244.56,109.98L244.55,110.25L244.71,110.52"/></g><g style="stroke:#000000;stroke-width:0.265"><path d="M31.46,106.68L33.75,118.39L34.04,119.05L34.64,119.64L35.51,120.13L64.56,132.79L65.63,133.14L66.84,133.33L68.09,133.35L93.90,131.89L95.15,131.91L96.36,132.10L97.43,132.45L146.67,153.90L147.53,154.39L148.13,154.98L148.43,155.64L151.14,169.52L151.43,170.17L152.03,170.77L152.90,171.26L180.45,183.26L181.52,183.61L182.73,183.80L183.99,183.82L209.79,182.36L211.01,182.20L212.11,181.88L213.03,181.42L281.05,136.24L281.71,135.66L282.07,135.01L282.10,131.90L279.39,118.03L279.09,117.37L278.49,116.77L277.63,116.28L250.07,104.28L249.00,103.93L247.80,103.74L246.54,103.72L220.74,105.18L219.48,105.16L218.28,104.97L217.21,104.62L167.97,83.17L167.10,82.68L166.50,82.09L166.21,81.43L163.50,67.55L163.20,66.90L162.60,66.30L161.74,65.81L132.69,53.16L131.63,52.81L130.41,52.61L129.15,52.60L106.03,53.90L104.83,54.06L103.73,54.38L102.82,54.85L32.37,101.64L31.71,102.21L31.36,102.86L31.32,105.97L31.46,106.68"/><path d="M191.25,140.42L190.84,140.24L203.77,131.66L204.54,132.00L191.62,140.58L191.25,140.42"/><path d="M224.67,154.97L224.49,154.89L237.41,146.31L238.19,146.65L225.27,155.23L224.67,154.97"/></g></g><g id="Actor_.28"><g style="stroke:#000000;stroke-width:0.088"><path d="M196.48,132.59L196.35,132.48L196.30,132.35L196.32,132.23L196.42,132.11L196.59,132.02L196.80,131.96L197.03,131.94L197.27,131.97L197.47,132.03L197.63,132.12L197.72,132.24L197.74,132.37L197.67,132.49L197.54,132.60"/><path d="M196.11,132.20L196.14,132.04L196.26,131.89L196.47,131.77L196.74,131.70L197.04,131.68L197.33,131.71L197.59,131.79L197.79,131.91L197.91,132.06L197.93,132.22"/></g><g style="stroke:#000000;stroke-width:0.265"><path d="M196.11,131.55L196.11,132.20L196.17,132.36L196.33,132.49L196.48,132.59L196.56,132.63L196.66,132.67L196.89,132.71L197.12,132.71L197.35,132.67L197.54,132.60L197.68,132.51L197.85,132.37L197.93,132.22L197.93,131.53"/></g></g><g id="Actor_.29"><g style="stroke:#000000;stroke-width:0.088"><path d="M112.15,71.52L112.15,72.86L111.19,73.69L111.04,73.96L111.03,74.23L111.15,74.49L111.38,74.72L111.34,74.69"/><path d="M114.44,74.77L114.44,74.77L114.70,74.54L114.84,74.28L114.86,74.01L114.74,73.75L114.50,73.51L114.15,73.31L113.72,73.17L113.24,73.10L112.75,73.09L112.25,73.15L111.81,73.28L111.45,73.47L110.75,73.79"/><path d="M113.82,74.64L113.97,74.57L114.19,74.36L114.27,74.13L114.21,73.90L114.01,73.69L113.69,73.53L113.29,73.43L112.86,73.41L112.43,73.46L112.06,73.58L111.91,73.67L111.79,73.77L111.64,73.99L111.63,74.22L111.76,74.44L112.03,74.63L112.08,74.65"/><path d="M111.38,74.72L111.73,74.92L111.91,74.98"/><path d="M112.09,73.57L112.00,73.71L111.99,73.89L112.04,73.96"/><path d="M112.15,72.86L113.24,73.10L114.34,73.04L114.34,71.71"/><path d="M111.93,71.62L111.45,71.84L111.45,71.85"/><path d="M112.37,71.51L113.24,71.47L113.97,71.63"/><path d="M113.52,75.10L113.63,75.08L113.96,74.99"/><path d="M113.79,73.58L113.86,73.65L113.91,73.82L113.86,73.96"/><path d="M115.14,74.16L114.74,73.75L114.34,73.04"/></g><g style="stroke:#000000;stroke-width:0.265"><path d="M114.44,74.77L114.08,74.95L113.96,74.99L113.74,75.09L113.52,75.10L113.14,75.15L112.64,75.14L112.17,75.06L111.91,74.98L111.55,74.90L111.15,74.49L110.75,73.79L110.75,72.45L111.45,71.84L111.81,71.66L111.93,71.62L112.15,71.52L112.37,71.51L112.75,71.47L113.24,71.47L113.72,71.55L113.97,71.63L114.34,71.71L114.74,72.12L115.14,72.83L115.14,74.16L114.44,74.77"/></g></g><g/><g id="paperID" visibility="hidden" opacity="0.00" transform="scale(0.000100)"><path style="stroke:#000000;stroke-width:0.500;fill:#e6e6e6;fill-rule:evenodd" d="M-2000.00,-2000.00L2297.00,-2000.00L2297.00,2210.00L-2000.00,2210.00zM0.00,0.00L297.00,0.00L297.00,210.00L0.00,210.00z"/><path style="fill:#000000;fill-opacity:0.118" d="M3.00,210.00L297.00,210.00L297.00,3.00L300.00,3.00L300.00,213.00L3.00,213.00z"/></g><g id="ToolTip" visibility="hidden" opacity="0" transform="translate(0,0)"><rect id="ToolTipShadow" opacity="0.20" fill="black" stroke="none" x="0" y="0" width="30" height="8"/><rect id="ToolTipBG" fill="#ffffe1" stroke="black" x="0" y="0" width="30" height="8"/><text xml:space="preserve" id="ToolTipText" fill="black" x="0" y="0" width="30" height="8">tooltip</text></g></g></svg>
