<?xml version="1.0" encoding="UTF-8" standalone="no"?>
<svg xmlns="http://www.w3.org/2000/svg" xmlns:xlink="http://www.w3.org/1999/xlink" width="297.000mm" height="210.000mm" viewBox="0.000000 0.000000 297.000000 210.000000" stroke-linejoin="round" stroke-linecap="round" fill="none" fill-rule="evenodd"><desc>3DVIA Composer Export</desc><script type="text/ecmascript"><![CDATA[
if(typeof(top) != "undefined")
{
	top.ShowPaper = ShowPaper;
}
function ShowHotSpot(evt,hotspotid)
{
	var svgDocument = evt.target.ownerDocument;
	var strId = "hotspot."+hotspotid;
	var hotspot = svgDocument.getElementById(strId);
	if(hotspot)
		hotspot.setAttribute("opacity",".5");
}
function HideHotSpot(evt,hotspotid)
{
	var svgDocument = evt.target.ownerDocument;
	var strId = "hotspot."+hotspotid;
	var hotspot = svgDocument.getElementById(strId);
	if(hotspot)
		hotspot.setAttribute("opacity","0");

	var toolTip = svgDocument.getElementById('ToolTip');
	if(toolTip)
		toolTip.setAttribute("visibility","hidden");
}
function ShowToolTip(evt,hotspotid,strTooltip)
{
	if(strTooltip=="")
	return;

	// change text
	var svgDocument = evt.target.ownerDocument;
	var tiptext = svgDocument.getElementById('ToolTipText');
	if( !tiptext )
	return;
	tiptext.firstChild.nodeValue = " " + strTooltip + "  " ;

	// show tooltip before, else some refresh issue

	var toolTip = svgDocument.getElementById('ToolTip');
	if(!toolTip)
	return;

	toolTip.setAttribute("visibility","visible");
	toolTip.setAttribute("opacity",".95");

	// move tooltip
	// get viewbox

	var root = svgDocument.documentElement;
	var vbox = (root.getAttribute("viewBox")).split(' ');
	var x0 = parseFloat(vbox[0]);
	var y0 = parseFloat(vbox[1]);
	var vboxW = parseFloat(vbox[2]);
	var vboxH = parseFloat(vbox[3]);

	// get default width of svg

	var strW = root.getAttribute("width");
	var svgW = parseFloat(strW);
	if(strW.indexOf('mm') != -1)
	svgW *= 3.779;

	var strH = root.getAttribute("height");
	var svgH = parseFloat(strH);
	if(strH.indexOf('mm') != -1)
	svgH *= 3.779;  	// 96 dpi  -> 96/25.4 = 3.779

	// update the viewbox / width / height if svg is embedded in html with zoom fit all
	var realx0 = x0;
	var realy0 = y0;
	var realvboxW = vboxW;
	var realvboxH = vboxH;
	var realsvgW = svgW;
	var realsvgH = svgH;

	if ((typeof(top) == "undefined") || (typeof(top.svgctl1) != "undefined")) // embedded in html
	{
		// get window size in pxl

		svgW = window.innerWidth;
		svgH = window.innerHeight;

		// calculate real viewbox

		realsvgW = svgW;
		realsvgH = svgH;
		if((svgW / svgH) > (vboxW / vboxH))
		{
			realvboxW = (vboxH * svgW) / svgH;
			realvboxH = vboxH;
			realx0 = x0 - (realvboxW - vboxW)/2 ;
		}
		else
		{
			realvboxH = (vboxW * svgH) / svgW;
			realvboxW = vboxW;
			realy0 = y0 - (realvboxH - vboxH)/2 ;
		}
	}

	// get user zoom/pan

	var newScale = root.currentScale;
	var translation = root.currentTranslate;

	// transform pxl to user unit

	var xPos = (((evt.clientX+10- translation.x)/newScale) * realvboxW)/realsvgW  + realx0 ;
	var yPos = (((evt.clientY+5- translation.y)/newScale) * realvboxH)/ realsvgH  + realy0 ;
	var scaleForWidth = ( (1 / newScale) * realvboxH) / realsvgH;

	// move tooltip

	toolTip.setAttribute("transform", "translate(" + xPos + "," + yPos + ")" );

	// resize tooltip

	var fontsize = 12;
	tiptext.setAttribute("font-size",fontsize*scaleForWidth);
	tiptext.setAttribute("y", fontsize*scaleForWidth);
	var tipBG = svgDocument.getElementById('ToolTipBG');
	var outline = tiptext.getBBox();
	if(tipBG)
	{
		tipBG.setAttribute("stroke-width", 1*scaleForWidth);
		tipBG.setAttribute("width", Number(outline.width) );
		tipBG.setAttribute("height", Number(outline.height) + fontsize*.5*scaleForWidth );
	}
	var ToolTipShadow = svgDocument.getElementById('ToolTipShadow');
	if(ToolTipShadow)
	{
		ToolTipShadow.setAttribute("width", Number(outline.width) );
		ToolTipShadow.setAttribute("height", Number(outline.height) + fontsize*.5*scaleForWidth );
		ToolTipShadow.setAttribute("x", 3*scaleForWidth);
		ToolTipShadow.setAttribute("y", 3*scaleForWidth);
	}
}
function ShowPaper()
{
  var svgDocument = getDocument();
  var paper = svgDocument.getElementById("paperID");
  if(paper)
  {
    paper.setAttribute("transform","scale(1)");
    paper.setAttribute("opacity","1");
    paper.setAttribute("visibility","visible");
  }
  var svg = svgDocument.getRootElement();
  if(svg)
  {
    svg.setAttribute("width","307.000mm");
    svg.setAttribute("height","220.000mm");
    svg.setAttribute("viewBox","-5.000000 -5.000000 307.000000 220.000000");
  }
}
]]></script><defs/><g><path style="fill:#000000;fill-opacity:0.098;fill-rule:evenodd" d="M139.95,68.51L140.41,68.11L141.01,68.12L141.05,69.54L139.94,69.18zM202.82,73.86L202.62,73.40L202.93,73.09L203.56,73.12L203.56,74.03zM140.18,75.51L139.58,75.59L139.60,75.25L140.22,75.20zM141.04,76.38L140.78,76.33L140.74,75.49zM193.73,76.00L195.35,74.93L195.67,74.95L195.59,76.85L194.91,76.82zM139.17,76.13L138.83,76.15L138.91,75.56L139.22,75.51zM210.63,77.95L211.46,77.86L211.46,78.49L210.63,78.40zM140.22,82.72L139.63,82.72L139.62,77.08L140.47,76.77zM143.14,83.71L141.96,84.00L142.05,83.50L142.79,83.07L143.14,83.12zM144.99,84.74L143.81,85.06L143.98,84.33L145.00,84.46zM147.60,86.26L147.58,89.77L147.32,91.12L147.28,86.54L147.02,86.36L147.05,84.95zM148.73,86.12L148.99,87.25L148.56,87.17L148.63,86.00zM146.62,85.37L146.80,90.30L145.38,90.99L144.95,91.61L144.08,91.63L144.16,88.46L144.89,86.03L146.21,85.18zM148.63,87.72L148.99,87.25L150.48,86.78L150.45,89.56L150.17,89.53L149.96,88.94L149.17,88.93zM138.89,87.94L139.73,87.85L139.73,88.47L138.89,88.38zM118.18,88.21L118.09,87.87L118.39,87.82zM154.78,89.87L154.60,89.43L154.90,89.38zM169.72,90.40L169.52,89.96L170.91,89.12L171.23,89.14L171.24,90.85L170.20,90.73zM147.63,92.16L147.20,92.40L147.25,91.78L147.59,91.76zM139.14,92.92L139.46,93.23L135.76,95.32L135.69,93.90L138.93,92.07zM148.66,93.20L148.57,92.86L148.87,92.81zM149.96,93.61L149.62,93.70L149.71,93.37zM128.14,93.75L127.53,93.74L127.62,92.90L128.14,92.82zM160.62,94.18L161.18,93.84L161.52,93.88L161.52,94.79L160.70,94.68zM150.73,94.51L150.68,93.89L150.97,93.83zM150.03,94.57L149.70,95.06L149.70,94.49L149.99,94.42zM131.21,94.95L132.37,94.42L132.36,95.83L131.27,95.18zM152.07,94.76L151.59,95.37L151.75,94.66zM119.19,89.23L118.88,89.46L118.61,95.23L117.81,95.32L117.90,89.52L118.93,88.96L119.22,88.37zM155.74,93.72L155.48,94.52L153.37,95.85L153.37,90.83L154.68,90.07L154.78,89.87L155.73,89.67zM147.59,97.78L147.03,98.71L146.55,98.64L146.28,99.18L146.05,99.20L144.35,100.25L143.81,100.30L143.90,99.50L147.23,97.57zM121.08,97.88L119.89,98.19L119.96,97.67L121.09,97.59zM132.63,97.69L131.30,98.48L131.30,96.87L132.63,96.26zM117.60,98.71L118.44,98.62L118.44,99.24L117.60,99.15zM153.37,98.94L153.65,98.91L153.65,99.48L153.37,99.45zM123.26,98.79L122.55,99.18L121.73,99.16L122.26,98.60L123.19,98.64zM177.00,98.97L177.81,98.87L177.81,99.78L177.00,99.68zM125.53,100.27L126.06,100.21L125.74,100.72L126.05,101.62L127.03,100.95L127.38,101.00L127.37,101.29L126.04,102.13L125.76,104.01L125.45,104.01L125.25,101.49L125.02,104.26L124.38,104.68L124.20,108.19L123.94,103.60L123.67,104.50L123.09,105.48L122.86,107.43L122.56,107.43L122.34,103.08L122.18,102.99L122.61,101.06L123.10,100.24L124.89,99.14zM152.30,100.01L151.96,99.92L152.35,99.71zM166.80,98.47L163.00,100.77L162.47,100.83L162.47,99.95L166.80,97.59zM117.36,100.27L117.90,100.18L117.90,101.10L117.36,101.01zM161.52,100.81L160.10,101.08L160.19,100.29L160.63,99.92L161.52,99.93zM149.37,101.22L149.67,101.27L149.72,101.57L149.42,101.52zM151.29,95.84L150.91,101.55L150.40,101.63L150.48,95.82L151.59,95.37zM119.19,102.28L118.91,103.48L118.62,103.49L118.62,101.47L118.91,101.49zM142.59,102.38L141.28,103.21L141.01,102.29L140.78,103.47L139.98,103.99L139.69,103.36L139.46,104.25L138.65,104.78L138.39,103.59L138.16,105.04L137.34,105.57L137.07,104.38L136.80,105.58L136.25,105.54L134.87,104.65L136.29,103.71L142.27,100.16L142.59,100.17zM119.45,103.95L119.12,103.86L119.51,103.65zM130.75,104.54L130.45,104.54L130.45,102.79L130.75,102.79zM156.00,101.86L151.53,104.49L150.66,104.78L150.66,102.57L155.67,99.63L155.99,99.65zM120.80,104.55L120.54,104.80L120.46,102.52L120.76,102.52zM133.43,104.98L132.24,105.28L132.31,104.77L133.44,104.69zM121.04,105.29L120.96,104.96L121.56,104.89zM166.03,105.92L165.83,105.45L166.14,105.15L166.77,105.17L166.78,106.09zM122.10,106.09L122.04,103.08L122.18,102.99zM137.80,107.66L138.71,107.59L138.70,107.89L138.05,108.36L137.86,111.09L137.60,108.59L137.37,111.35L135.24,112.64L134.36,112.92L134.43,109.47L134.97,107.80L135.24,109.77L135.47,107.35L136.98,106.23L137.12,106.24zM135.27,106.03L134.08,106.34L134.15,105.82L135.28,105.74zM151.70,106.27L159.87,101.47L160.21,101.51L160.12,102.30L152.50,106.81L151.77,106.78zM74.79,106.09L75.51,105.69L76.11,105.69L76.11,107.15L74.78,106.76zM148.93,105.84L147.85,106.59L146.98,106.88L146.98,105.46L148.92,104.40zM149.95,106.57L150.48,106.48L150.48,107.41L149.95,107.32zM118.18,107.12L116.99,107.12L117.09,106.33L118.17,106.24zM131.27,108.62L131.58,109.41L131.18,110.47L130.69,110.57L130.78,108.32zM151.82,108.19L151.19,108.63L150.39,108.72L150.39,107.83L151.82,107.31zM116.81,108.18L118.17,108.07L118.16,109.24L117.10,109.14L116.83,108.86zM140.01,108.68L138.64,109.50L138.64,108.99L140.01,108.37zM141.33,109.46L139.95,110.29L139.95,109.78L141.33,109.16zM133.66,110.69L133.09,111.61L132.81,111.63L132.81,109.62L133.10,109.63zM142.94,110.07L141.69,110.99L141.18,111.06L141.18,110.76L142.53,109.88zM127.92,110.54L127.28,111.00L126.46,111.07L126.46,110.47L127.92,109.94zM131.91,110.86L131.28,111.34L131.19,111.02L131.88,110.74zM119.75,110.82L119.21,111.32L117.81,111.61L117.80,109.65L119.14,109.41L119.76,109.14zM149.46,108.46L141.16,113.35L140.67,113.45L140.66,112.56L149.46,107.57zM138.37,112.92L138.82,112.53L139.71,112.54L139.72,113.43L138.82,113.60L138.65,114.74L134.45,117.13L134.37,116.25L138.40,113.94zM128.19,113.54L128.00,113.07L128.30,112.77L128.93,112.79L128.94,113.71zM218.44,114.11L218.96,113.58L219.85,113.59L219.85,114.76L218.79,114.65zM150.75,114.34L150.74,115.56L149.94,115.47L149.42,115.16L149.40,114.49L150.53,114.12zM129.72,114.73L128.58,115.02L128.58,114.14L129.73,113.85zM116.99,114.89L117.24,114.63L118.17,114.64L118.16,115.55L117.63,115.48zM152.34,117.13L151.72,117.56L150.12,117.64L150.12,115.96L151.72,115.72L152.34,115.45zM149.66,121.05L150.50,120.96L150.50,121.58L149.66,121.49zM176.54,121.95L176.34,121.48L176.65,121.18L177.28,121.20L177.29,122.12zM71.54,122.25L72.37,121.70L72.70,121.72L72.70,122.91L72.18,122.84zM74.55,126.84L73.65,126.84L73.65,125.94L74.55,125.94zM166.66,127.01L167.59,127.01L167.58,127.62L166.74,127.53zM97.56,131.76L98.11,131.42L98.46,131.46L98.45,132.37L97.63,132.26zM102.05,132.52L105.22,130.64L105.54,130.65L105.57,132.37L104.13,133.30L102.90,133.33L102.10,132.76zM108.68,137.86L109.49,137.76L109.49,138.67L108.68,138.57zM94.22,140.22L95.30,140.13L95.30,141.30L94.22,141.20zM244.30,106.35L243.53,107.15L222.67,119.14L221.34,119.39L198.47,119.64L195.86,120.97L161.23,141.00L160.45,142.08L160.45,140.21L161.00,139.19L198.03,117.88L200.06,117.55L222.41,117.30L226.04,115.42L243.79,105.04L244.30,104.66zM83.45,142.07L84.26,141.96L84.26,142.88L83.45,142.78zM91.33,146.80L92.15,146.69L92.18,147.58L91.34,147.22zM153.53,151.46L154.07,151.14L154.68,151.15L154.69,152.34L153.61,152.24zM119.19,152.31L120.00,152.21L120.00,153.13L119.19,153.02zM127.10,154.17L126.20,154.16L126.29,153.36L127.09,153.26zM160.22,154.96L159.71,155.50L138.43,167.86L136.47,168.53L116.48,168.62L116.48,166.94L135.94,166.68L137.53,166.44L159.71,153.65L160.22,153.28zM138.56,171.40L139.74,171.42L139.72,172.03L138.92,171.94zM141.30,172.56L140.76,173.35L139.36,173.63L139.35,172.45L140.93,172.19L141.30,171.67zM117.02,184.03L117.95,183.79L117.91,184.37L117.06,184.27zM119.49,185.45L119.12,185.87L117.53,185.96L117.55,185.09L119.20,184.59L119.49,184.29zM149.60,190.33L150.14,190.02L150.50,190.07L150.50,190.69L149.65,190.59zM152.08,191.49L151.47,192.20L150.11,192.26L150.13,191.39L150.63,191.10L151.79,190.90L152.08,190.60z"/><g id="Actor_.0"><g style="stroke:#000000;stroke-width:0.088"><path d="M50.01,129.85L50.01,129.88L50.01,128.00L50.14,128.57L50.53,129.11L51.15,129.57L114.28,166.02L115.07,166.37L116.00,166.59L116.99,166.67L135.51,166.67L136.51,166.59L137.43,166.37L138.23,166.02L159.31,153.85L159.92,153.39L160.31,152.85L160.44,152.28"/><path d="M50.01,128.02L50.01,127.34L50.01,128.00"/><path d="M50.01,127.34L50.01,125.11L50.01,125.66"/><path d="M50.01,125.11L50.01,120.26"/><path d="M50.01,120.53L50.01,120.60L50.01,120.56"/><path d="M71.77,121.85L71.61,122.01L71.54,122.19L71.58,122.38L71.72,122.55L71.95,122.68L72.16,122.74L72.58,122.79L72.89,122.75L73.17,122.65L73.36,122.52L73.50,122.33L73.52,122.15L73.42,121.96L73.23,121.81L72.97,121.70L72.65,121.65L72.33,121.66L72.02,121.72L71.77,121.85"/><path d="M73.45,126.22L73.47,126.46L73.62,126.62L73.85,126.76L74.14,126.84L74.46,126.87L74.78,126.83L75.07,126.73L75.28,126.59L75.40,126.41L75.41,126.22L75.32,126.04L75.12,125.89L74.86,125.78L74.55,125.72L74.22,125.73L73.92,125.80L73.67,125.92L73.50,126.08L73.45,126.22"/><path d="M74.76,106.50L74.93,106.70L75.21,106.86L75.57,106.96L75.97,106.99L76.37,106.94L76.72,106.82L76.98,106.65L77.13,106.43L77.14,106.20L77.03,105.97L76.79,105.78L76.46,105.65L76.08,105.58L75.67,105.59L75.30,105.67L74.99,105.82L74.78,106.03L74.70,106.25L74.76,106.50"/><path d="M83.28,142.25L83.38,142.09L83.57,141.97L83.82,141.88L84.10,141.85L84.39,141.87L84.76,141.99L84.98,142.21L85.01,142.37L84.95,142.54L84.80,142.68L84.58,142.79L84.32,142.85L84.03,142.86L83.75,142.81L83.52,142.71L83.35,142.58L83.26,142.42L83.28,142.25"/><path d="M91.56,146.59L91.38,146.71L91.27,146.86L91.26,147.03L91.35,147.20L91.51,147.33L91.74,147.42L92.02,147.47L92.31,147.46L92.58,147.40L92.80,147.30L92.95,147.15L93.01,146.99L92.97,146.82L92.84,146.67L92.64,146.56L92.38,146.48L92.09,146.46L91.81,146.50L91.56,146.59"/><path d="M94.00,140.74L94.19,141.00L94.47,141.17L94.84,141.27L95.24,141.30L95.63,141.25L95.98,141.13L96.24,140.95L96.38,140.74L96.41,140.50L96.29,140.28L96.05,140.09L95.73,139.95L95.34,139.88L94.93,139.90L94.56,139.98L94.25,140.13L94.04,140.33L93.96,140.56L94.00,140.74"/><path d="M97.57,131.82L97.61,132.00L97.74,132.15L97.96,132.28L98.23,132.35L98.53,132.38L98.83,132.34L99.09,132.25L99.27,132.13L99.39,131.95L99.41,131.78L99.32,131.61L99.14,131.47L98.90,131.37L98.61,131.32L98.31,131.32L98.02,131.39L97.79,131.50L97.64,131.65L97.57,131.82"/><path d="M103.52,133.51L101.89,132.57L105.57,130.44L111.94,134.11L110.31,135.05"/><path d="M105.57,132.32L105.57,130.44"/><path d="M109.08,138.62L108.81,138.54L108.60,138.42L108.46,138.26L108.43,138.09L108.49,137.92L108.64,137.77L108.87,137.65L109.16,137.59L109.46,137.58L109.75,137.63L110.00,137.73L110.17,137.88L110.26,138.05L110.25,138.22L110.12,138.39L109.94,138.52L109.68,138.61L109.38,138.64L109.08,138.62"/><path d="M117.12,115.08L117.24,115.21L117.44,115.33L117.71,115.41L118.02,115.43L118.31,115.39L118.57,115.30L118.75,115.18L118.88,115.01L118.89,114.83L118.80,114.67L118.63,114.52L118.38,114.42L118.09,114.37L117.79,114.38L117.51,114.44L117.27,114.56L117.12,114.70L117.06,114.88L117.12,115.08"/><path d="M118.65,99.32L118.17,99.33L117.92,99.25L117.73,99.14L117.60,99.00L117.57,98.84L117.62,98.68L117.77,98.54L117.98,98.44L118.24,98.38L118.52,98.38L118.90,98.47"/><path d="M119.44,153.06L119.14,152.91L118.99,152.74L118.96,152.55L119.02,152.37L119.19,152.21L119.44,152.08L119.74,152.01L120.07,152.01L120.38,152.06L120.65,152.17L120.84,152.32L120.93,152.50L120.92,152.69L120.80,152.87L120.59,153.01L120.31,153.11L119.99,153.15L119.66,153.13L119.44,153.06"/><path d="M126.08,153.46L126.02,153.64L126.06,153.83L126.20,154.00L126.43,154.13L126.72,154.22L127.05,154.24L127.37,154.20L127.65,154.11L127.84,153.98L127.98,153.79L127.99,153.60L127.90,153.42L127.71,153.26L127.44,153.15L127.13,153.10L126.81,153.11L126.50,153.18L126.25,153.30L126.08,153.46"/><path d="M128.28,92.74L128.01,92.74L127.75,92.80L127.53,92.90L127.39,93.04L127.34,93.20L127.37,93.36L127.49,93.50L127.69,93.62L127.94,93.69L128.21,93.71L128.48,93.67L128.72,93.59L128.89,93.48L129.00,93.32L129.02,93.16L128.94,93.01L128.78,92.88L128.55,92.78L128.28,92.74"/><path d="M135.21,77.85L135.21,80.07"/><path d="M135.21,68.14L135.21,73.15"/><path d="M140.53,69.32L140.32,69.27L140.04,69.10L139.86,68.89L139.81,68.66L139.90,68.43L140.10,68.23L140.41,68.08L140.79,68.00L141.19,67.99L141.58,68.05L141.91,68.19L142.14,68.38L142.26,68.60L142.24,68.83L142.09,69.05L141.83,69.23L141.49,69.35L141.09,69.40L140.69,69.37L140.53,69.32"/><path d="M149.68,120.97L149.83,120.82L150.06,120.71L150.35,120.64L150.65,120.64L150.94,120.69L151.19,120.79L151.36,120.93L151.45,121.10L151.44,121.27L151.33,121.44L151.13,121.57L150.87,121.66L150.57,121.69L150.27,121.67L150.00,121.60L149.78,121.47L149.65,121.32L149.62,121.15L149.68,120.97"/><path d="M153.58,152.09L153.43,151.91L153.38,151.68L153.46,151.45L153.67,151.25L153.98,151.10L154.35,151.02L154.76,151.01L155.14,151.07L155.47,151.21L155.71,151.40L155.82,151.62L155.81,151.85L155.66,152.07L155.40,152.25L155.05,152.37L154.66,152.42L154.25,152.39L153.89,152.29L153.58,152.09"/><path d="M160.44,151.47L160.44,150.80L160.44,151.57"/><path d="M160.44,148.93L160.44,148.56L160.44,150.80"/><path d="M160.44,148.56L160.44,146.33L160.44,147.45"/><path d="M160.44,146.33L160.44,143.12"/><path d="M160.44,142.21L160.44,141.50"/><path d="M244.55,103.72L244.41,104.29L244.03,104.83L243.41,105.30L223.42,116.83L222.63,117.19L221.70,117.41L220.71,117.48L200.01,117.48L199.02,117.56L198.09,117.78L197.30,118.13L161.56,138.76L160.95,139.22L160.57,139.76L160.44,140.33L160.44,141.86L160.44,141.32"/><path d="M165.95,105.31L166.11,105.16L166.34,105.04L166.62,104.98L166.93,104.97L167.22,105.02L167.48,105.14L167.64,105.27L167.73,105.43L167.71,105.61L167.61,105.77L167.41,105.91L167.15,106.00L166.85,106.03L166.55,106.01L166.28,105.93L166.06,105.81L165.93,105.65L165.89,105.48L165.95,105.31"/><path d="M167.22,127.65L166.97,127.58L166.78,127.46L166.66,127.32L166.62,127.16L166.68,127.00L166.82,126.86L167.03,126.76L167.29,126.70L167.57,126.70L167.84,126.74L168.06,126.83L168.22,126.97L168.30,127.12L168.29,127.28L168.18,127.44L168.01,127.55L167.77,127.63L167.48,127.66L167.22,127.65"/><path d="M170.88,90.93L169.26,89.99L171.43,88.74L171.43,90.62"/><path d="M171.43,88.74L184.99,96.57L183.36,97.51"/><path d="M176.39,121.52L176.44,121.36L176.59,121.23L176.80,121.12L177.06,121.06L177.34,121.06L177.60,121.10L177.83,121.20L177.99,121.33L178.07,121.48L178.06,121.64L177.95,121.80L177.78,121.91L177.60,121.97L177.27,122.03L176.99,122.01L176.71,121.92L176.55,121.82L176.42,121.68L176.39,121.52"/><path d="M177.13,99.67L176.92,99.54L176.78,99.39L176.74,99.21L176.81,99.04L176.96,98.89L177.20,98.78L177.48,98.71L177.78,98.71L178.07,98.76L178.32,98.86L178.49,99.00L178.58,99.17L178.57,99.34L178.49,99.45L178.26,99.64L178.00,99.73L177.70,99.77L177.40,99.74L177.13,99.67"/><path d="M195.30,76.83L193.67,75.89L195.84,74.64L209.41,82.47L207.78,83.41"/><path d="M195.84,76.52L195.84,74.64"/><path d="M202.89,73.79L203.13,73.89L203.40,73.93L203.69,73.93L203.96,73.87L204.18,73.76L204.33,73.62L204.39,73.45L204.35,73.29L204.23,73.14L204.02,73.02L203.76,72.95L203.48,72.92L203.19,72.96L202.95,73.04L202.76,73.17L202.66,73.33L202.64,73.49L202.72,73.65L202.89,73.79"/><path d="M210.92,78.42L210.73,78.28L210.68,78.19L210.65,78.13L210.65,77.94L210.75,77.79L210.94,77.66L211.19,77.57L211.47,77.54L211.76,77.56L212.02,77.63L212.22,77.75L212.35,77.90L212.38,78.07L212.33,78.23L212.18,78.37L211.96,78.48L211.69,78.54L211.40,78.55L211.12,78.50L210.92,78.42"/><path d="M218.55,113.94L218.49,114.09L218.54,114.32L218.72,114.53L219.01,114.69L219.37,114.79L219.77,114.82L220.17,114.78L220.51,114.66L220.78,114.48L220.92,114.26L220.94,114.03L220.82,113.80L220.59,113.61L220.26,113.48L219.87,113.41L219.47,113.42L219.09,113.51L218.78,113.66L218.58,113.86L218.55,113.94"/><path d="M244.54,103.27L244.54,101.65L244.55,102.18"/><path d="M244.54,101.65L244.55,94.58"/><path d="M244.55,100.53L244.55,99.63"/></g><g style="stroke:#000000;stroke-width:0.265"><path d="M50.01,129.88L50.14,130.45L50.53,130.99L51.14,131.45L114.28,167.90L115.07,168.25L116.00,168.47L116.99,168.55L135.51,168.55L136.51,168.47L137.43,168.25L138.23,167.90L159.31,155.73L159.92,155.27L160.31,154.73L160.44,154.16L160.44,148.93"/><path d="M50.01,129.85L50.01,120.31"/><path d="M50.01,120.26L50.01,119.52L50.01,120.56"/><path d="M50.01,120.06L50.01,120.53"/><path d="M50.01,117.37L50.01,117.30L50.01,119.52L50.01,118.93"/><path d="M117.24,91.36L98.35,102.27L97.55,102.62L96.62,102.84L95.63,102.92L74.94,102.92L73.94,102.99L73.02,103.21L72.22,103.56L51.14,115.74L50.53,116.20L50.14,116.73L50.01,117.35"/><path d="M103.84,133.32L103.52,133.51L108.25,136.24L110.31,135.05L105.57,132.32L103.84,133.32"/><path d="M135.21,78.33L135.21,80.07L135.07,80.64L134.69,81.17L134.08,81.63L118.70,90.51"/><path d="M135.21,79.31L135.21,68.14L135.34,67.55L135.71,67.02L136.33,66.55L156.32,55.01L157.12,54.65L158.05,54.43L159.04,54.36L179.74,54.36L180.73,54.43L181.66,54.65L182.45,55.01L201.33,65.90L243.41,90.20L244.03,90.66L244.41,91.20L244.54,91.77L244.55,105.60L244.41,106.17L244.03,106.71L243.41,107.18L223.42,118.71L222.63,119.07L221.70,119.29L220.71,119.36L200.01,119.36L199.02,119.44L198.09,119.66L197.30,120.01L161.56,140.64L160.95,141.10L160.57,141.64L160.44,142.21L160.44,143.12"/><path d="M160.44,149.00L160.44,142.98"/><path d="M171.95,91.55L170.88,90.93L171.43,90.62L183.36,97.51L182.82,97.82L171.95,91.55"/><path d="M195.30,76.83L195.84,76.52L207.78,83.41L207.24,83.73L195.30,76.83"/><path d="M244.55,93.83L244.55,93.74"/></g></g><g id="Actor_.1"><g style="stroke:#c00000;stroke-width:0.176"><path d="M130.32,102.81L130.32,104.69L130.59,104.53L130.69,104.49L130.80,104.47L130.92,104.47L131.04,104.49L131.14,104.53L131.68,104.85L131.68,103.59L131.95,103.44L132.02,103.38L132.06,103.32L132.06,103.25L132.02,103.18L131.95,103.12L131.14,102.65L131.04,102.61L130.92,102.59L130.80,102.59L130.69,102.61L130.59,102.65L130.32,102.81L128.02,101.48"/><path d="M130.32,104.69L131.23,105.22"/><path d="M131.68,103.59L132.76,104.22"/><path d="M132.06,103.25L132.06,103.32L132.06,103.27"/><path d="M134.80,104.61L134.80,104.46L142.67,99.91"/><path d="M134.80,104.46L134.53,104.46"/><path d="M135.63,105.09L135.86,104.96L135.91,104.99L135.96,105.03L136.01,105.08L136.04,105.14L136.07,105.21L136.07,105.27L136.07,105.35"/><path d="M137.00,105.54L137.00,104.61L136.99,104.59L136.99,104.57L136.97,104.55L136.96,104.53L136.94,104.52L136.89,104.49L136.89,104.36L136.94,104.39L136.99,104.43L137.04,104.48L137.07,104.55L137.10,104.61L137.10,104.68L137.10,105.60L137.11,105.62L137.12,105.64L137.13,105.66L137.14,105.68L137.16,105.69L137.59,105.94L137.59,106.01"/><path d="M136.35,105.51L136.35,104.99L136.34,104.97L136.33,104.95L136.32,104.93L136.31,104.91L136.29,104.89L136.24,104.86L136.24,104.74L136.29,104.77L136.34,104.81L136.39,104.86L136.42,104.92L136.45,104.99L136.45,105.05L136.45,105.57"/><path d="M136.24,104.74L136.51,104.58L136.56,104.61L136.61,104.65L136.66,104.70L136.69,104.77L136.72,104.83L136.73,104.89L136.73,105.69"/><path d="M137.38,105.32L137.38,104.52L137.37,104.46L137.35,104.39L137.31,104.33L137.26,104.27L137.21,104.24L137.16,104.21L136.89,104.36"/><path d="M138.24,105.63L138.24,105.57L137.81,105.32L137.79,105.30L137.78,105.29L137.77,105.27L137.76,105.24L137.76,105.22L137.76,104.30L137.75,104.24L137.72,104.17L137.69,104.11L137.64,104.06L137.59,104.02L137.54,103.99L137.54,104.11L137.59,104.14L137.61,104.16L137.63,104.17L137.64,104.19L137.64,104.22L137.65,104.24L137.65,105.16"/><path d="M138.24,105.57L138.52,105.41"/><path d="M137.59,105.94L137.86,105.79"/><path d="M138.30,104.78L138.30,103.86L138.30,103.84L138.29,103.82L138.28,103.80L138.26,103.78L138.24,103.77L138.19,103.74L138.19,103.61L138.24,103.64L138.29,103.68L138.34,103.73L138.38,103.79L138.40,103.86L138.41,103.92L138.41,104.85L138.41,104.87L138.42,104.89L138.43,104.91L138.44,104.93L138.46,104.94L138.90,105.19L138.90,105.25"/><path d="M138.03,104.94L138.03,104.14L138.02,104.08L138.00,104.01L137.96,103.95L137.91,103.90L137.86,103.86L137.81,103.83L137.54,103.99"/><path d="M138.19,103.61L138.46,103.45L138.52,103.48L138.57,103.52L138.61,103.58L138.65,103.64L138.67,103.70L138.68,103.77L138.68,104.57"/><path d="M138.90,105.19L139.17,105.04"/><path d="M139.55,104.88L139.55,104.82L139.11,104.57L139.10,104.55L139.08,104.54L139.07,104.51L139.06,104.49L139.06,104.47L139.06,103.55L139.05,103.48L139.03,103.42L138.99,103.36L138.95,103.30L138.90,103.27L138.84,103.23L138.84,103.36L138.90,103.39L138.91,103.40L138.93,103.42L138.94,103.44L138.95,103.46L138.95,103.48L138.95,104.41"/><path d="M139.55,104.82L139.82,104.66"/><path d="M139.33,104.19L139.33,103.39L139.32,103.33L139.30,103.26L139.26,103.20L139.22,103.15L139.17,103.11L139.11,103.08L138.84,103.23"/><path d="M140.47,104.28L140.20,104.44L139.76,104.19L139.75,104.18L139.73,104.16L139.72,104.14L139.71,104.12L139.71,104.10L139.71,103.17L139.70,103.11L139.68,103.04L139.64,102.98L139.60,102.93L139.55,102.89L139.49,102.86L139.49,102.98L139.55,103.01L139.56,103.03L139.58,103.05L139.59,103.07L139.60,103.09L139.60,103.11L139.60,104.03"/><path d="M139.49,102.86L139.76,102.70L139.82,102.73L139.87,102.77L139.91,102.82L139.95,102.89L139.97,102.95L139.98,103.01L139.98,103.81"/><path d="M139.00,97.80L138.73,97.96L138.66,98.01L138.63,98.08L138.63,98.15L138.66,98.21L138.73,98.27L139.00,98.43"/><path d="M140.20,104.44L140.20,104.50"/><path d="M140.85,104.13L140.85,104.06L140.41,103.81L140.40,103.80L140.38,103.78L140.37,103.76L140.36,103.74L140.36,103.72L140.36,102.80L140.35,102.73L140.33,102.67L140.29,102.60L140.25,102.55L140.20,102.51L140.14,102.48L140.14,102.61L140.20,102.64L140.22,102.65L140.23,102.67L140.24,102.69L140.25,102.71L140.25,102.73L140.25,103.66"/><path d="M140.63,103.44L140.63,102.64L140.62,102.58L140.60,102.51L140.56,102.45L140.52,102.40L140.47,102.36L140.41,102.33L140.14,102.48"/><path d="M140.85,104.06L141.12,103.91"/><path d="M140.90,103.28L140.90,102.36L140.90,102.34L140.89,102.31L140.88,102.29L140.87,102.28L140.85,102.26L140.80,102.23L140.79,102.11L140.85,102.14L140.90,102.18L140.94,102.23L140.98,102.29L141.00,102.36L141.01,102.42L141.01,103.34L141.01,103.36L141.02,103.39L141.03,103.41L141.05,103.43L141.07,103.44L141.50,103.69L141.50,103.75"/><path d="M141.50,103.69L141.77,103.53"/><path d="M142.15,103.38L142.15,103.31L141.72,103.06L141.70,103.05L141.69,103.03L141.67,103.01L141.67,102.99L141.66,102.97L141.66,102.04L141.65,101.98L141.63,101.92L141.60,101.85L141.55,101.80L141.50,101.76L141.45,101.73L141.45,101.86L141.50,101.89L141.52,101.90L141.53,101.92L141.54,101.94L141.55,101.96L141.55,101.98L141.55,102.91"/><path d="M140.79,102.11L141.07,101.95L141.12,101.98L141.17,102.02L141.22,102.07L141.25,102.13L141.28,102.20L141.28,102.26L141.28,103.06"/><path d="M141.45,101.73L141.72,101.57L141.77,101.61L141.82,101.64L141.87,101.70L141.90,101.76L141.93,101.82L141.93,101.89L141.93,102.69"/><path d="M142.15,103.31L142.42,103.16"/></g><g style="stroke:#c00000;stroke-width:0.529"><path d="M131.12,105.62L128.02,103.83L128.02,101.48L136.70,96.47L139.00,97.80L139.00,98.43L139.55,98.74L139.64,98.78L139.76,98.80L139.88,98.80L139.99,98.78L140.09,98.74L140.36,98.58L142.67,99.91L142.67,102.26L141.93,102.69L141.93,102.81L141.94,102.83L141.94,102.85L141.96,102.87L141.97,102.89L141.99,102.91L142.42,103.16L142.42,103.22"/><path d="M136.73,105.72L136.73,105.69L137.00,105.54L137.00,105.60L137.03,105.67L137.04,105.69"/><path d="M138.34,104.94L138.33,104.91L138.31,104.85L138.30,104.78L138.03,104.94L138.03,105.07L138.03,105.09L138.04,105.11L138.05,105.13L138.06,105.15L138.08,105.16L138.52,105.41L138.52,105.47"/><path d="M137.86,105.85L137.86,105.79L137.43,105.54L137.41,105.52L137.40,105.51L137.39,105.49L137.38,105.46L137.38,105.44L137.38,105.32L137.65,105.16L137.66,105.22L137.68,105.29L137.69,105.31"/><path d="M138.99,104.56L138.98,104.54L138.96,104.47L138.95,104.41L138.68,104.57L138.68,104.69L138.68,104.71L138.69,104.73L138.70,104.75L138.72,104.77L138.73,104.79L139.17,105.04L139.17,105.10"/><path d="M139.82,104.72L139.82,104.66L139.38,104.41L139.37,104.40L139.35,104.38L139.34,104.36L139.33,104.34L139.33,104.31L139.33,104.19L139.60,104.03L139.61,104.10L139.63,104.16L139.64,104.18"/><path d="M140.30,103.81L140.28,103.79L140.26,103.72L140.25,103.66L139.98,103.81L139.98,103.94L139.98,103.96L139.99,103.98L140.00,104.00L140.02,104.02L140.04,104.03L140.47,104.28L140.47,104.35"/><path d="M141.12,103.97L141.12,103.91L140.69,103.66L140.67,103.64L140.65,103.63L140.64,103.61L140.63,103.58L140.63,103.56L140.63,103.44L140.90,103.28L140.91,103.34L140.93,103.41L140.95,103.43"/><path d="M141.77,103.59L141.77,103.53L141.34,103.28L141.32,103.27L141.31,103.25L141.29,103.23L141.29,103.21L141.28,103.19L141.28,103.06L141.55,102.91L141.56,102.97L141.59,103.03L141.60,103.06"/></g></g><g id="Actor_.2"><g style="stroke:#c00000;stroke-width:0.176"><path d="M139.18,109.50L139.29,109.49L139.41,109.54L139.53,109.63L139.64,109.76L139.73,109.92L139.78,110.08L139.79,110.23L139.76,110.35L139.69,110.43"/></g><g style="stroke:#c00000;stroke-width:0.529"><path d="M139.47,110.44L139.41,110.41L139.35,110.37L139.23,110.25L139.13,110.11L139.07,109.95L139.04,109.79L139.05,109.65L139.10,109.55L139.18,109.50L140.92,108.49L141.02,108.49L141.15,108.53L141.27,108.63L141.38,108.76L141.46,108.91L141.51,109.07L141.52,109.22L141.49,109.34L141.42,109.43L139.69,110.43L139.59,110.46L139.47,110.44"/></g></g><g id="Actor_.3"><g style="stroke:#c00000;stroke-width:0.176"><path d="M136.14,106.47L134.37,106.55"/><path d="M134.78,106.71L135.81,106.66"/></g><g style="stroke:#c00000;stroke-width:0.529"><path d="M134.28,106.48L134.31,106.40L134.47,106.24L134.71,106.13L135.01,106.06L135.32,106.05L135.63,106.10L135.88,106.21L136.07,106.36L136.14,106.47L136.14,106.48"/></g></g><g id="Actor_.4"><g style="stroke:#c00000;stroke-width:0.176"><path d="M131.36,109.23L131.36,109.23"/></g><g style="stroke:#c00000;stroke-width:0.529"><path d="M131.29,108.54L131.29,109.12L131.30,109.17L131.32,109.21L132.09,109.65"/></g></g><g id="Actor_.5"><g style="stroke:#c00000;stroke-width:0.176"><path d="M132.09,110.31L131.99,110.28L131.82,110.16L131.65,109.99L131.52,109.77L131.44,109.54L131.41,109.32L131.42,109.27"/></g><g style="stroke:#c00000;stroke-width:0.529"><path d="M132.09,110.80L131.29,110.34L131.29,108.54"/></g></g><g id="Actor_.6"><g style="stroke:#c00000;stroke-width:0.176"><path d="M133.31,110.36L133.31,110.42L133.34,110.64L133.42,110.87L133.55,111.08L133.72,111.26L133.89,111.38L133.98,111.41"/></g><g style="stroke:#c00000;stroke-width:0.529"><path d="M133.18,109.63L133.18,111.43L133.98,111.90"/></g></g><g id="Actor_.7"><g style="stroke:#c00000;stroke-width:0.176"><path d="M133.25,110.33L133.25,110.33"/><path d="M133.22,110.31L133.22,110.31"/></g><g style="stroke:#c00000;stroke-width:0.529"><path d="M133.22,110.31L133.98,110.75"/><path d="M133.19,109.64L133.19,110.22L133.20,110.27L133.22,110.31"/></g></g><g id="Actor_.8"><g style="stroke:#c00000;stroke-width:0.176"><path d="M143.81,103.67L146.90,105.46L146.90,107.02"/><path d="M146.90,105.46L148.91,104.30"/></g><g style="stroke:#c00000;stroke-width:0.529"><path d="M143.81,105.00L143.81,105.24L146.90,107.02L148.91,105.87L148.91,104.30L145.81,102.51L143.81,103.67L143.81,105.00"/></g></g><g id="Actor_.9"><g style="stroke:#c00000;stroke-width:0.176"/><g style="stroke:#c00000;stroke-width:0.529"><path d="M138.05,108.24L138.71,107.86L138.78,107.78L138.81,107.66L138.80,107.51L138.75,107.35L138.67,107.19L138.56,107.06L138.43,106.97L138.31,106.92L138.20,106.93L137.71,107.21"/></g></g><g id="Actor_.10"><g style="stroke:#c00000;stroke-width:0.176"><path d="M127.47,94.74L129.48,95.90L129.48,97.47"/><path d="M129.48,95.90L132.57,94.12"/></g><g style="stroke:#c00000;stroke-width:0.529"><path d="M129.59,97.41L129.48,97.47L127.47,96.31L127.47,94.74L130.57,92.96L132.57,94.12L132.57,95.68L132.47,95.75"/></g></g><g id="Actor_.11"><g style="stroke:#c00000;stroke-width:0.176"><path d="M112.55,103.67L117.00,106.24L117.35,106.09L117.76,106.02L118.19,106.02L118.60,106.09L118.95,106.24L119.21,106.44L119.34,106.68L119.34,106.70"/><path d="M117.00,106.24L117.00,107.24"/><path d="M118.44,100.14L118.22,100.07L117.94,100.05L117.67,100.09L117.43,100.17L117.25,100.29L117.15,100.44L117.14,100.60L117.22,100.75L117.38,100.88L117.61,100.98L117.87,101.02L118.15,101.02L118.21,101.00"/><path d="M116.61,100.66L116.75,100.90L117.00,101.10L116.61,101.33"/><path d="M118.95,107.37L127.85,112.51L127.60,112.71L127.47,112.95L127.47,113.20L127.60,113.43L127.85,113.64L128.20,113.78L128.61,113.86L129.05,113.86L129.46,113.78L129.81,113.64L134.26,116.20L134.26,117.21"/><path d="M119.34,106.68L119.34,106.93L119.21,107.17L119.03,107.31"/><path d="M128.00,112.97L128.11,112.82L128.28,112.70L128.52,112.62L128.79,112.58L129.07,112.60L129.32,112.67L129.43,112.73L129.52,112.79L129.64,112.93L129.67,113.09L129.62,113.25L129.47,113.39L129.43,113.41L129.26,113.49L129.00,113.55L128.73,113.56L128.46,113.51L128.23,113.42L128.07,113.29L127.99,113.13L128.00,112.97"/><path d="M127.47,113.20L127.47,113.29"/><path d="M129.81,113.64L129.81,114.64"/><path d="M134.26,116.20L138.71,113.64"/><path d="M138.63,113.57L138.45,113.43L138.32,113.20L138.32,112.95L138.45,112.71L138.71,112.51L139.06,112.36L139.47,112.28L139.90,112.28L140.31,112.36L140.66,112.51L140.66,113.51"/><path d="M138.32,88.80L138.71,88.57L138.45,88.37L138.32,88.13"/><path d="M140.22,87.64L140.17,87.61L139.92,87.54L139.65,87.52L139.38,87.55L139.14,87.64L138.96,87.76L138.86,87.91L138.84,88.07L138.92,88.22L139.09,88.35L139.31,88.45L139.58,88.49L139.86,88.49L140.11,88.43L140.22,88.37"/><path d="M140.66,112.51L149.56,107.37L149.56,108.37"/><path d="M149.56,107.37L149.91,107.52L150.32,107.59L150.75,107.59L151.16,107.52L151.51,107.37L151.77,107.17L151.90,106.93L151.90,106.68L151.77,106.44L151.51,106.24L160.41,101.10"/><path d="M150.25,107.26L150.16,107.24L149.94,107.15L149.78,107.02L149.70,106.87L149.71,106.71L149.81,106.56L149.99,106.43L150.23,106.35L150.50,106.32L150.78,106.34L151.03,106.41L151.13,106.46L151.22,106.52L151.34,106.67L151.38,106.83L151.32,106.98L151.18,107.12L150.97,107.22L150.71,107.28L150.43,107.29L150.25,107.26"/><path d="M151.90,106.93L151.90,107.93"/><path d="M151.90,106.68L151.90,107.02"/><path d="M166.81,97.41L162.36,99.98L162.01,99.83L161.60,99.75L161.17,99.75L160.76,99.83L160.41,99.98L160.16,100.18L160.02,100.42L160.02,100.66L160.16,100.90L160.33,101.04"/><path d="M160.66,94.02L160.56,94.17L160.55,94.33L160.63,94.49L160.79,94.62L161.02,94.71L161.28,94.76L161.56,94.75L161.82,94.69L162.03,94.59L162.17,94.45L162.23,94.29L162.20,94.14L162.07,93.99L161.98,93.93L161.88,93.88L161.63,93.81L161.35,93.79L161.08,93.82L160.84,93.90L160.66,94.02"/><path d="M162.36,100.98L162.36,99.98"/><path d="M162.75,94.15L162.75,94.40L162.62,94.64L162.36,94.84L162.75,95.06"/></g><g style="stroke:#c00000;stroke-width:0.529"><path d="M118.53,99.82L118.19,99.75L117.76,99.75L117.35,99.83L117.00,99.98L116.75,100.18L116.61,100.42L116.61,101.33L112.55,103.67L112.55,104.68L117.00,107.24L117.35,107.10L117.76,107.02L118.19,107.02L118.60,107.10L118.95,107.24L119.03,107.31L118.95,107.37L118.95,108.37L127.47,113.29L127.47,114.20L127.60,114.44L127.85,114.64L128.20,114.78L128.61,114.86L129.05,114.86L129.46,114.78L129.81,114.64L134.26,117.21L138.71,114.64L138.71,113.64L138.63,113.57L138.71,113.51L139.06,113.36L139.47,113.29L139.90,113.29L140.31,113.36L140.66,113.51L149.56,108.37L149.91,108.52L150.32,108.60L150.75,108.60L151.16,108.52L151.51,108.37L151.77,108.17L151.90,107.93L151.90,107.02L160.41,102.11L160.41,101.10L160.33,101.04L160.41,100.98L160.76,100.83L161.17,100.75L161.60,100.75L162.01,100.83L162.36,100.98L166.81,98.41L166.81,97.41L162.75,95.06L162.75,94.15L162.62,93.91L162.36,93.71L162.01,93.56L161.60,93.49L161.17,93.49L160.76,93.56L160.41,93.71L155.96,91.14"/><path d="M127.47,95.06L122.86,97.72"/><path d="M130.84,93.12L132.36,92.24"/><path d="M140.22,87.28L139.90,87.22L139.47,87.22L139.06,87.30L138.71,87.44L138.45,87.65L138.32,87.88L138.32,88.80L136.16,90.05"/><path d="M148.30,86.72L147.66,86.35"/><path d="M151.46,88.60L151.51,88.57L154.06,90.04"/></g></g><g id="Actor_.12"><g style="stroke:#c00000;stroke-width:0.176"><path d="M131.18,111.29L131.18,110.92L131.73,110.60"/><path d="M131.64,111.18L132.09,111.44L132.09,110.93"/><path d="M132.09,110.77L132.09,109.00L130.73,108.22L130.73,110.66L131.18,110.92"/><path d="M130.73,110.66L131.29,110.34"/><path d="M137.24,106.02L135.42,107.07L135.69,107.17L135.31,107.39L135.15,107.23L135.07,107.28L131.27,105.08"/><path d="M131.62,105.13L131.90,104.97L131.62,104.88"/><path d="M133.18,111.43L132.63,111.76L133.08,112.01L133.08,112.39"/><path d="M132.63,111.76L132.63,109.31L133.98,110.10L133.98,111.87"/><path d="M132.16,105.09L132.18,104.87L132.32,104.66L132.56,104.50L132.89,104.39L133.26,104.34L133.63,104.37L133.98,104.46L134.24,104.62L134.41,104.81L134.46,105.03L134.38,105.25L134.18,105.43L133.90,105.58L133.54,105.65L133.16,105.66L132.80,105.60L132.49,105.47L132.27,105.30L132.16,105.09"/><path d="M133.08,112.01L133.63,111.69"/><path d="M133.54,112.28L133.98,112.54L133.98,112.02"/><path d="M134.26,113.07L134.26,110.25L135.07,107.28"/><path d="M134.06,106.18L134.17,106.39L134.39,106.57L134.70,106.70L135.06,106.76L135.44,106.75L135.79,106.67L136.05,106.55L136.08,106.53L136.28,106.34L136.36,106.13L136.31,105.91L136.14,105.71L135.87,105.56L135.53,105.46L135.16,105.44L134.79,105.48L134.46,105.59L134.22,105.76L134.08,105.96L134.06,106.18"/><path d="M135.31,107.39L135.31,109.89L135.69,109.67L135.69,107.17"/><path d="M135.31,109.89L135.15,109.73L135.15,107.23"/><path d="M137.65,111.11L137.65,108.29L137.38,108.45L137.38,111.02"/><path d="M137.48,110.96L137.48,108.39"/></g><g style="stroke:#c00000;stroke-width:0.529"><path d="M132.06,110.78L131.18,111.29L130.46,110.88L130.46,108.06L131.27,105.08L131.35,105.04L131.52,105.19L131.62,105.13L131.62,104.88L133.44,103.83L137.24,106.02L138.05,108.06L138.05,110.88L137.65,111.11L137.48,110.96L137.38,111.02L137.38,111.27L134.26,113.07L133.54,112.66L133.54,112.28L133.98,112.02L133.98,111.87"/><path d="M133.96,111.88L133.08,112.39L131.64,111.56L131.64,111.18L132.09,110.93L132.09,110.77"/></g></g><g id="Actor_.13"><g style="stroke:#c00000;stroke-width:0.176"><path d="M132.47,105.45L134.24,105.37"/><path d="M132.88,105.62L133.91,105.57"/></g><g style="stroke:#c00000;stroke-width:0.529"><path d="M132.38,105.38L132.41,105.30L132.57,105.15L132.82,105.03L133.11,104.96L133.43,104.96L133.73,105.01L133.98,105.11L134.17,105.26L134.24,105.37L134.24,105.38"/></g></g><g id="Actor_.14"><g style="stroke:#c00000;stroke-width:0.176"/><g style="stroke:#c00000;stroke-width:0.529"><path d="M125.78,100.93L126.76,100.37L126.86,100.34L126.98,100.36L127.04,100.39L127.10,100.43L127.22,100.55L127.32,100.69L127.38,100.85L127.42,101.01L127.40,101.14L127.35,101.25L127.27,101.30L125.81,102.15"/></g></g><g id="Actor_.15"><g style="stroke:#c00000;stroke-width:0.176"><path d="M141.05,111.21L141.11,111.13L141.14,111.01L141.13,110.86L141.08,110.70L141.00,110.55L140.89,110.41L140.77,110.32L140.65,110.27L140.54,110.28"/></g><g style="stroke:#c00000;stroke-width:0.529"><path d="M140.49,110.89L140.59,111.04L140.71,111.15L140.77,111.19L140.83,111.22L140.95,111.24L141.05,111.21L142.78,110.21L142.85,110.13L142.88,110.01L142.87,109.86L142.82,109.70L142.74,109.54L142.63,109.41L142.50,109.32L142.38,109.27L142.27,109.28L140.54,110.28L140.45,110.34L140.40,110.44L140.39,110.58L140.42,110.73L140.49,110.89"/></g></g><g id="Actor_.16"><g style="stroke:#c00000;stroke-width:0.176"><path d="M151.13,89.92L151.13,89.31L151.00,89.23"/><path d="M150.89,89.29L151.13,89.43L151.38,89.29"/><path d="M151.27,89.23L151.13,89.31"/></g><g style="stroke:#c00000;stroke-width:0.529"><path d="M150.90,89.29L150.89,89.29L150.89,89.78"/><path d="M151.38,90.06L151.38,89.29L151.13,89.15L150.89,89.29"/></g></g><g id="Actor_.17"><g style="stroke:#c00000;stroke-width:0.176"><path d="M124.11,108.97L125.16,109.58L125.16,110.33"/><path d="M125.00,108.27L125.00,108.87L125.32,109.06L125.65,108.87L125.65,108.27"/><path d="M125.16,109.58L125.49,109.58L125.49,110.33"/><path d="M126.54,111.12L126.54,110.37L125.49,109.76L125.49,110.06"/><path d="M125.32,109.06L125.32,104.55L125.11,104.42"/><path d="M125.32,104.55L125.54,104.42"/><path d="M126.87,111.12L126.87,110.37L126.54,110.37"/><path d="M126.87,110.37L127.92,109.76"/><path d="M126.91,105.22L126.70,105.34L126.70,109.86L126.38,109.67L126.38,108.69"/><path d="M126.70,109.86L127.03,109.67L127.03,109.06"/><path d="M126.70,105.34L126.49,105.22"/></g><g style="stroke:#c00000;stroke-width:0.529"><path d="M124.11,109.47L124.11,109.72L124.11,108.78L124.11,109.47"/><path d="M124.11,109.72L125.16,110.33L125.49,110.33L125.49,110.51L126.54,111.12L126.87,111.12L127.92,110.51L127.92,109.58L127.03,109.06"/><path d="M124.11,108.78L125.00,108.27"/><path d="M125.65,108.27L125.65,105.68L125.54,104.42L125.32,104.30L125.11,104.42L125.00,105.68L125.00,108.27"/><path d="M125.49,110.51L125.49,110.41"/><path d="M126.38,108.69L125.65,108.27"/><path d="M126.38,108.69L126.38,106.47L126.49,105.22L126.70,105.10L126.91,105.22L127.03,106.47L127.03,109.06"/><path d="M127.92,110.51L127.92,109.58L127.92,110.51"/></g></g><g id="Actor_.18"><g style="stroke:#c00000;stroke-width:0.176"><path d="M140.60,98.57L140.60,98.41L140.61,98.37L140.63,98.32L140.65,98.28L140.68,98.25L140.71,98.22L140.77,98.19L140.77,98.13L140.71,98.16L140.66,98.20L140.62,98.25L140.58,98.31L140.56,98.38L140.55,98.44L140.55,98.66L140.55,98.68L140.55,98.69"/><path d="M139.85,98.75L139.85,98.69L140.12,98.53L140.13,98.52L140.15,98.50L140.16,98.48L140.17,98.46L140.17,98.44L140.17,98.22L140.18,98.16L140.20,98.09L140.24,98.03L140.28,97.98L140.33,97.94L140.39,97.91L140.39,97.97L140.33,98.00L140.30,98.03L140.27,98.06L140.25,98.10L140.23,98.15L140.22,98.19L140.22,98.35"/><path d="M139.85,98.69L139.74,98.63"/><path d="M140.77,98.13L140.66,98.06L140.60,98.10L140.55,98.13L140.51,98.19L140.47,98.25L140.45,98.32L140.44,98.38L140.44,98.47"/><path d="M140.39,97.91L140.28,97.85L140.22,97.88L140.17,97.92L140.13,97.97L140.09,98.03L140.07,98.10L140.06,98.16L140.06,98.25"/><path d="M139.74,97.63L139.95,97.75L139.95,97.81"/><path d="M139.95,97.75L139.95,97.63"/><path d="M143.75,100.38L143.75,99.44L139.95,97.25"/><path d="M141.68,99.35L141.69,99.34L141.69,99.32L141.69,99.10L141.70,99.04L141.72,98.97L141.76,98.91L141.80,98.86L141.85,98.82L141.91,98.79L141.80,98.72L141.74,98.75L141.69,98.79L141.65,98.85L141.61,98.91L141.59,98.97L141.58,99.04L141.58,99.13"/><path d="M141.30,99.13L141.31,99.12L141.31,99.10L141.31,98.88L141.32,98.82L141.34,98.75L141.38,98.69L141.42,98.64L141.47,98.60L141.53,98.57L141.42,98.50L141.36,98.53L141.31,98.57L141.27,98.63L141.23,98.69L141.21,98.75L141.20,98.82L141.20,98.91"/><path d="M140.98,98.79L140.98,98.63L140.99,98.59L141.01,98.54L141.03,98.50L141.06,98.47L141.09,98.44L141.15,98.41L141.15,98.35L141.09,98.38L141.04,98.42L141.00,98.47L140.96,98.53L140.94,98.60L140.93,98.66L140.93,98.88L140.93,98.90L140.93,98.91"/><path d="M141.91,98.79L141.91,98.85L141.85,98.88L141.82,98.91L141.79,98.94L141.77,98.98L141.75,99.03L141.74,99.07L141.74,99.22"/><path d="M141.53,98.57L141.53,98.63L141.47,98.66L141.44,98.69L141.41,98.72L141.39,98.76L141.37,98.81L141.36,98.85L141.36,99.00"/><path d="M140.82,98.69L140.82,98.60L140.83,98.53L140.85,98.47L140.87,98.43L140.89,98.41L140.93,98.35L140.98,98.32L141.04,98.28L141.15,98.35"/><path d="M142.06,99.57L142.07,99.56L142.07,99.54L142.07,99.32L142.08,99.26L142.10,99.19L142.14,99.13L142.18,99.07L142.23,99.04L142.29,99.00L142.29,99.07L142.23,99.10L142.20,99.12L142.17,99.16L142.14,99.20L142.13,99.25L142.12,99.29L142.12,99.44"/><path d="M142.34,99.57L142.34,99.47L142.35,99.41L142.37,99.35L142.39,99.31L142.41,99.28L142.45,99.23L142.50,99.19L142.56,99.16L142.67,99.22L142.61,99.26L142.56,99.29L142.52,99.35L142.48,99.41L142.46,99.47L142.45,99.54L142.45,99.76L142.45,99.78L142.44,99.79"/><path d="M142.88,99.88L142.88,99.73L142.89,99.68L142.90,99.64L142.93,99.60L142.96,99.56L142.99,99.54L143.05,99.51L143.05,99.44L142.99,99.47L142.94,99.51L142.90,99.57L142.86,99.63L142.84,99.69L142.83,99.76L142.83,99.98L142.83,100.00L142.82,100.02L142.81,100.04L142.79,100.06L142.78,100.07L142.67,100.13"/><path d="M142.78,100.38L142.88,100.45L142.88,100.51"/><path d="M142.88,100.45L143.16,100.29L143.17,100.28L143.19,100.26L143.20,100.24L143.21,100.22L143.21,100.20L143.21,99.98L143.22,99.91L143.24,99.85L143.28,99.79L143.32,99.73L143.37,99.69L143.43,99.66L143.32,99.60L143.26,99.63L143.21,99.67L143.17,99.72L143.13,99.78L143.11,99.85L143.10,99.91L143.10,100.01"/><path d="M142.72,99.79L142.72,99.69L142.73,99.63L142.75,99.57L142.79,99.50L142.83,99.45L142.88,99.41L142.94,99.38L143.05,99.44"/><path d="M142.67,99.22L142.67,99.29L142.61,99.32L142.58,99.34L142.55,99.38L142.52,99.42L142.51,99.46L142.50,99.51L142.50,99.66"/><path d="M142.29,99.00L142.18,98.94L142.12,98.97L142.07,99.01L142.03,99.06L141.99,99.13L141.97,99.19L141.96,99.26L141.96,99.35"/><path d="M143.75,99.44L147.55,97.25"/><path d="M143.26,100.10L143.26,99.94L143.27,99.90L143.28,99.86L143.31,99.82L143.34,99.78L143.37,99.76L143.43,99.73L143.43,99.66"/><path d="M145.38,100.07L145.38,100.01L145.11,99.85L145.09,99.84L145.08,99.82L145.06,99.80L145.06,99.78L145.05,99.76L145.05,99.54L145.05,99.47L145.02,99.41L144.99,99.35L144.94,99.29L144.89,99.26L144.84,99.22L144.84,99.29L144.89,99.32L144.93,99.34L144.96,99.38L144.98,99.42L144.99,99.46L145.00,99.51L145.00,99.66"/><path d="M145.00,100.29L145.00,100.23L145.11,100.16"/><path d="M145.00,100.23L144.73,100.07L144.71,100.06L144.70,100.04L144.68,100.02L144.68,100.00L144.67,99.98L144.67,99.76L144.67,99.69L144.64,99.63L144.61,99.57L144.56,99.51L144.51,99.47L144.46,99.44L144.46,99.51L144.51,99.54L144.55,99.56L144.58,99.60L144.60,99.64L144.61,99.68L144.62,99.73L144.62,99.88"/><path d="M144.73,100.38L144.62,100.45L144.35,100.29L144.33,100.28L144.32,100.26L144.31,100.24L144.30,100.22L144.29,100.20L144.29,99.98L144.29,99.91L144.26,99.85L144.23,99.79L144.18,99.73L144.13,99.69L144.08,99.66L144.19,99.60L144.24,99.63L144.29,99.67L144.34,99.72L144.36,99.76L144.37,99.78L144.40,99.85L144.40,99.91L144.40,100.01"/><path d="M144.62,100.45L144.62,100.51"/><path d="M144.24,100.10L144.24,99.94L144.24,99.90L144.22,99.86L144.20,99.82L144.17,99.78L144.13,99.76L144.08,99.73L144.08,99.66"/><path d="M144.78,99.79L144.78,99.69L144.78,99.63L144.75,99.57L144.72,99.50L144.67,99.45L144.62,99.41L144.57,99.38L144.46,99.44"/><path d="M145.16,99.57L145.16,99.47L145.15,99.41L145.13,99.35L145.11,99.31L145.10,99.28L145.05,99.23L145.00,99.19L144.95,99.16L144.84,99.22"/><path d="M145.76,99.22L145.76,99.07L145.75,99.03L145.74,98.98L145.71,98.94L145.68,98.91L145.65,98.88L145.60,98.85L145.60,98.79L145.65,98.82L145.70,98.86L145.75,98.91L145.78,98.97L145.81,99.04L145.81,99.10L145.81,99.32L145.82,99.34L145.82,99.36L145.84,99.38L145.85,99.40L145.87,99.41L146.14,99.57L146.14,99.63"/><path d="M146.14,99.57L146.25,99.51"/><path d="M145.76,99.85L145.76,99.79L145.87,99.73"/><path d="M145.76,99.79L145.49,99.63L145.47,99.62L145.46,99.60L145.44,99.58L145.44,99.56L145.43,99.54L145.43,99.32L145.43,99.26L145.40,99.19L145.37,99.13L145.32,99.07L145.27,99.04L145.22,99.00L145.22,99.07L145.27,99.10L145.30,99.12L145.34,99.16L145.36,99.20L145.37,99.25L145.38,99.29L145.38,99.44"/><path d="M145.38,100.01L145.49,99.94"/><path d="M146.63,99.29L146.52,99.35L146.25,99.19L146.23,99.18L146.22,99.16L146.20,99.14L146.20,99.12L146.19,99.10L146.19,98.88L146.19,98.82L146.16,98.75L146.13,98.69L146.08,98.64L146.03,98.60L145.98,98.57L145.98,98.63L146.03,98.66L146.06,98.69L146.09,98.72L146.12,98.76L146.13,98.81L146.14,98.85L146.14,99.00"/><path d="M145.22,99.00L145.33,98.94L145.38,98.97L145.43,99.01L145.48,99.06L145.51,99.13L145.53,99.19L145.54,99.26L145.54,99.35"/><path d="M145.92,99.13L145.92,99.04L145.91,98.97L145.89,98.91L145.86,98.85L145.81,98.79L145.76,98.75L145.71,98.72L145.60,98.79"/><path d="M145.98,98.57L146.09,98.50L146.14,98.53L146.19,98.57L146.24,98.63L146.27,98.69L146.29,98.75L146.30,98.82L146.30,98.91"/><path d="M146.52,99.35L146.52,99.41"/><path d="M146.68,98.69L146.68,98.60L146.67,98.53L146.65,98.47L146.63,98.43L146.62,98.41L146.57,98.35L146.52,98.32L146.47,98.28L146.36,98.35L146.41,98.38L146.46,98.42L146.51,98.47L146.54,98.53L146.57,98.60L146.57,98.66L146.57,98.88L146.58,98.90L146.58,98.92L146.60,98.94L146.61,98.96L146.63,98.97L146.90,99.13L147.01,99.07"/><path d="M146.90,99.13L146.90,99.19"/><path d="M147.28,98.97L147.28,98.91L147.01,98.75L146.99,98.74L146.98,98.72L146.96,98.70L146.96,98.68L146.95,98.66L146.95,98.44L146.95,98.38L146.92,98.31L146.89,98.25L146.84,98.20L146.79,98.16L146.74,98.13L146.74,98.19L146.79,98.22L146.82,98.25L146.85,98.28L146.88,98.32L146.89,98.37L146.90,98.41L146.90,98.57"/><path d="M147.28,98.91L147.39,98.85"/><path d="M147.66,98.75L147.66,98.69L147.39,98.53L147.37,98.52L147.36,98.50L147.34,98.48L147.34,98.46L147.33,98.44L147.33,98.22L147.33,98.16L147.30,98.09L147.27,98.03L147.22,97.98L147.17,97.94L147.12,97.91L147.12,97.97L147.17,98.00L147.20,98.03L147.23,98.06L147.26,98.10L147.27,98.15L147.28,98.19L147.28,98.35"/><path d="M146.52,98.79L146.52,98.63L146.51,98.59L146.50,98.54L146.47,98.50L146.44,98.47L146.41,98.44L146.36,98.41L146.36,98.35"/><path d="M146.74,98.13L146.84,98.07L146.90,98.10L146.95,98.13L146.99,98.19L147.03,98.25L147.05,98.32L147.06,98.38L147.06,98.47"/><path d="M147.12,97.91L147.22,97.85L147.28,97.88L147.33,97.92L147.37,97.97L147.41,98.03L147.43,98.10L147.44,98.16L147.44,98.25"/><path d="M147.66,98.69L147.77,98.63"/><path d="M147.77,97.63L147.55,97.75L147.55,97.63"/><path d="M147.55,97.75L147.55,97.81"/></g><g style="stroke:#c00000;stroke-width:0.529"><path d="M140.82,98.85L140.82,98.84L140.82,98.82L140.82,98.69L140.60,98.57L140.60,98.63L140.60,98.67L140.59,98.71"/><path d="M142.67,100.20L142.78,100.13L142.81,100.11L142.84,100.07L142.86,100.03L142.88,99.99L142.88,99.94L142.88,99.88L143.10,100.01L143.10,100.13L143.10,100.15L143.09,100.18L143.08,100.20L143.06,100.21L143.05,100.23L142.78,100.38L142.78,100.45L142.88,100.51L143.16,100.35L143.19,100.33L143.22,100.29L143.24,100.25L143.26,100.21L143.26,100.16L143.26,100.10L143.75,100.38L144.24,100.10L144.24,100.16L144.25,100.21L144.26,100.25L144.29,100.29L144.32,100.33L144.35,100.35L144.62,100.51L144.73,100.45L144.73,100.38L144.46,100.23L144.44,100.21L144.43,100.20L144.41,100.18L144.41,100.15L144.40,100.13L144.40,100.01L144.62,99.88L144.62,99.94L144.63,99.99L144.64,100.03L144.66,100.07L144.70,100.11L144.73,100.13L145.00,100.29L145.11,100.23L145.11,100.16L144.84,100.01L144.82,99.99L144.81,99.98L144.79,99.96L144.79,99.93L144.78,99.91L144.78,99.79L145.00,99.66L145.00,99.73L145.01,99.77L145.02,99.81L145.04,99.85L145.08,99.89L145.11,99.91L145.38,100.07L145.49,100.01L145.49,99.94L145.22,99.79L145.20,99.78L145.19,99.76L145.17,99.74L145.17,99.71L145.16,99.69L145.16,99.57L145.38,99.44L145.38,99.51L145.39,99.55L145.40,99.59L145.42,99.63L145.45,99.67L145.49,99.69L145.76,99.85L145.87,99.79L145.87,99.73L145.60,99.57L145.58,99.56L145.56,99.54L145.55,99.52L145.55,99.50L145.54,99.47L145.54,99.35L145.76,99.22L145.76,99.29L145.77,99.33L145.78,99.37L145.80,99.41L145.83,99.45L145.87,99.47L146.14,99.63L146.25,99.57L146.25,99.51L145.98,99.35L145.96,99.34L145.94,99.32L145.93,99.30L145.93,99.28L145.92,99.26L145.92,99.13L146.14,99.00L146.14,99.07L146.14,99.11L146.16,99.15L146.18,99.19L146.21,99.23L146.25,99.26L146.52,99.41L146.63,99.35L146.63,99.29L146.36,99.13L146.34,99.12L146.32,99.10L146.31,99.08L146.31,99.06L146.30,99.04L146.30,98.91L146.52,98.79L146.52,98.85L146.52,98.89L146.54,98.93L146.56,98.98L146.59,99.01L146.63,99.04L146.90,99.19L147.01,99.13L147.01,99.07L146.74,98.91L146.72,98.90L146.70,98.88L146.69,98.86L146.68,98.84L146.68,98.82L146.68,98.69L146.90,98.57L146.90,98.63L146.90,98.67L146.92,98.71L146.94,98.76L146.97,98.79L147.01,98.82L147.28,98.97L147.39,98.91L147.39,98.85L147.12,98.69L147.10,98.68L147.08,98.66L147.07,98.64L147.06,98.62L147.06,98.60L147.06,98.47L147.28,98.35L147.28,98.41L147.28,98.45L147.30,98.50L147.32,98.54L147.35,98.57L147.39,98.60L147.66,98.75L147.77,98.69L147.77,98.63L147.50,98.47L147.48,98.46L147.46,98.44L147.45,98.42L147.44,98.40L147.44,98.38L147.44,98.30L147.44,98.25L147.55,98.19L147.55,97.81L147.77,97.69L147.77,97.63L147.66,97.56L147.55,97.63L147.55,97.25L143.75,95.06L139.95,97.25L139.95,97.63L139.85,97.56L139.74,97.63L139.74,97.69L139.95,97.81L139.95,98.19L140.06,98.25L140.06,98.38L140.06,98.40L140.05,98.42L140.04,98.44L140.02,98.46L140.01,98.47L139.74,98.63L139.74,98.69L139.85,98.75L140.12,98.60L140.15,98.57L140.18,98.54L140.20,98.50L140.22,98.45L140.22,98.41L140.22,98.35L140.44,98.47L140.44,98.60L140.44,98.62L140.44,98.63"/><path d="M141.96,99.50L141.96,99.50L141.96,99.47L141.96,99.35L141.74,99.22L141.74,99.29L141.74,99.33L141.72,99.37"/><path d="M141.58,99.28L141.58,99.28L141.58,99.26L141.58,99.13L141.36,99.00L141.36,99.07L141.36,99.11L141.34,99.15"/><path d="M141.20,99.06L141.20,99.06L141.20,99.04L141.20,98.91L140.98,98.79L140.98,98.85L140.98,98.89L140.96,98.93"/><path d="M142.10,99.59L142.12,99.55L142.12,99.51L142.12,99.44L142.34,99.57L142.34,99.69L142.34,99.72L142.34,99.72"/><path d="M142.67,100.01L142.68,99.99L142.70,99.98L142.71,99.96L142.72,99.93L142.72,99.91L142.72,99.79L142.50,99.66L142.50,99.73L142.50,99.77L142.48,99.81"/></g></g><g id="Actor_.19"><g style="stroke:#c00000;stroke-width:0.176"><path d="M150.05,89.29L150.05,88.81L149.80,88.67"/><path d="M150.29,88.67L150.05,88.81L150.05,88.68L149.91,88.60"/><path d="M150.18,88.60L150.05,88.68"/></g><g style="stroke:#c00000;stroke-width:0.529"><path d="M150.29,88.66L150.29,88.67L150.29,89.43"/><path d="M149.80,89.15L149.80,88.67L150.05,88.53L150.29,88.67"/><path d="M149.80,88.67L149.81,88.66"/></g></g><g id="Actor_.20"><g style="stroke:#c00000;stroke-width:0.176"><path d="M121.07,103.29L121.06,103.34L121.09,103.56L121.17,103.79L121.30,104.01L121.47,104.19L121.64,104.31L121.74,104.33"/></g><g style="stroke:#c00000;stroke-width:0.529"><path d="M120.93,102.56L120.93,104.36L121.74,104.82"/></g></g><g id="Actor_.21"><g style="stroke:#c00000;stroke-width:0.176"><path d="M119.84,103.24L119.75,103.21L119.57,103.09L119.40,102.91L119.27,102.70L119.19,102.47L119.16,102.25L119.17,102.19"/></g><g style="stroke:#c00000;stroke-width:0.529"><path d="M119.84,103.73L119.04,103.27L119.04,101.46"/></g></g><g id="Actor_.22"><g style="stroke:#c00000;stroke-width:0.176"><path d="M147.17,100.67L150.53,102.61L156.02,99.44"/><path d="M149.81,100.90L149.32,100.62L149.32,100.55L149.81,100.84"/><path d="M149.32,100.62L148.80,100.92L149.34,101.23L149.81,100.96"/><path d="M149.34,101.23L149.34,101.29L149.83,101.57L149.86,101.56L149.86,101.28"/><path d="M149.32,100.55L148.69,100.92L149.34,101.29"/><path d="M148.80,100.92L148.80,100.98"/><path d="M150.53,104.93L150.53,102.61"/><path d="M149.83,101.57L150.10,101.73L150.39,101.57"/><path d="M150.19,101.68L149.86,101.49"/><path d="M151.26,100.95L151.36,101.01L151.98,100.64L151.26,100.22"/><path d="M151.44,100.96L151.26,100.85"/><path d="M151.26,99.43L151.83,99.10L153.24,99.92L152.61,100.28L152.34,100.12L152.37,100.11L152.37,99.48L151.85,99.78L151.31,99.47L151.31,99.53"/><path d="M151.31,99.47L151.83,99.17L151.83,99.10"/><path d="M151.85,99.78L151.85,99.84L151.26,99.50"/><path d="M151.83,99.17L152.37,99.48"/><path d="M152.34,100.12L151.85,99.84"/><path d="M152.70,100.23L152.37,100.04"/><path d="M153.11,99.12L153.11,99.05L152.57,98.74L152.57,98.80"/><path d="M152.97,98.45L152.46,98.74L153.87,99.56L154.50,99.19L153.09,98.38L152.97,98.45"/><path d="M152.57,98.74L153.09,98.44L153.09,98.38"/><path d="M153.63,99.32L153.95,99.51"/><path d="M153.60,99.40L153.63,99.38L153.63,98.75L153.11,99.05"/><path d="M153.63,98.75L153.09,98.44"/></g><g style="stroke:#c00000;stroke-width:0.529"><path d="M151.26,98.31L152.65,97.50L156.02,99.44L156.02,101.76L150.53,104.93L147.17,102.98L147.17,100.67L149.81,99.14"/></g></g><g id="Actor_.23"><g style="stroke:#c00000;stroke-width:0.176"><path d="M132.36,92.84L132.41,92.80L132.52,92.74L132.74,92.86L132.63,92.93L132.56,92.98L132.50,93.05L132.45,93.13L132.42,93.22L132.41,93.30L132.41,93.71L132.41,93.75L132.39,93.80L132.37,93.83L132.37,93.84L132.34,93.87L132.30,93.90L132.25,93.93"/><path d="M132.47,93.55L132.47,93.27L132.47,93.21L132.50,93.14L132.53,93.08L132.58,93.03L132.63,92.99L132.74,92.93L132.74,92.86"/><path d="M132.36,91.92L135.61,93.80L139.14,91.77L139.14,93.02L140.22,92.39"/><path d="M134.42,95.56L134.64,95.68L134.64,95.75"/><path d="M134.64,95.68L135.02,95.46L135.05,95.44L135.08,95.40L135.10,95.36L135.12,95.32L135.12,95.28L135.12,94.87L135.13,94.79L135.17,94.70L135.21,94.62L135.27,94.54L135.34,94.49L135.45,94.43L135.23,94.31L135.12,94.37L135.06,94.42L135.00,94.49L134.95,94.57L134.92,94.66L134.91,94.74L134.91,94.96"/><path d="M135.61,95.37L135.61,93.80"/><path d="M135.45,94.43L135.45,94.49L135.34,94.56L135.29,94.59L135.25,94.65L135.21,94.71L135.19,94.78L135.18,94.84L135.18,95.12"/></g><g style="stroke:#c00000;stroke-width:0.529"><path d="M139.14,91.77L140.22,92.39L140.22,92.71L135.61,95.37L135.18,95.12L135.18,95.25L135.17,95.31L135.15,95.37L135.11,95.44L135.07,95.49L135.02,95.53L134.64,95.75L134.42,95.62L134.42,95.56L134.80,95.34L134.83,95.31L134.86,95.28L134.89,95.24L134.90,95.19L134.91,95.15L134.91,94.96L132.47,93.55L132.47,93.68L132.46,93.74L132.43,93.81L132.40,93.87L132.35,93.92L132.30,93.96"/><path d="M139.14,91.77L135.88,89.89L132.36,91.92L132.36,92.84L132.34,92.85L132.28,92.92L132.24,93.01L132.20,93.09L132.19,93.18L132.19,93.59L132.19,93.63L132.17,93.67L132.15,93.71L132.12,93.75L132.09,93.77L132.03,93.80"/></g></g><g id="Actor_.24"><g style="stroke:#c00000;stroke-width:0.176"><path d="M152.22,90.17L152.22,90.06L151.97,89.92"/><path d="M152.35,89.86L152.22,89.94L152.22,90.06L152.46,89.92"/><path d="M152.08,89.86L152.22,89.94"/></g><g style="stroke:#c00000;stroke-width:0.529"><path d="M152.46,90.06L152.46,89.92L152.22,89.78L151.97,89.92L151.97,90.41"/><path d="M151.97,89.92L151.97,89.92"/><path d="M152.46,89.92L152.46,89.92"/></g></g><g id="Actor_.25"><g style="stroke:#c00000;stroke-width:0.176"><path d="M118.93,104.22L118.93,103.85L118.48,103.59L119.04,103.27"/><path d="M119.39,104.11L119.84,104.37L119.84,103.85"/><path d="M118.93,103.85L119.48,103.52"/><path d="M118.48,103.59L118.48,101.14L119.84,101.93L119.84,103.70"/><path d="M119.37,97.81L119.65,97.90L119.37,98.06"/><path d="M119.02,98.01L122.82,100.20L122.01,103.18L122.01,106.00"/><path d="M120.93,104.36L120.38,104.68L120.83,104.94L120.83,105.32"/><path d="M120.38,104.68L120.38,102.24L121.74,103.02L121.74,104.79"/><path d="M120.59,98.54L120.55,98.53L120.24,98.40L120.02,98.22L119.91,98.01L119.93,97.80L120.07,97.59L120.31,97.42L120.64,97.31L121.01,97.27L121.39,97.30L121.73,97.39L121.99,97.55L122.16,97.74L122.21,97.96L122.13,98.17L121.94,98.36L121.65,98.50L121.29,98.58L120.91,98.59L120.59,98.54"/><path d="M121.74,104.95L121.74,105.47L121.29,105.21"/><path d="M120.83,104.94L121.38,104.62"/><path d="M122.04,99.41L122.14,99.50L122.45,99.63L122.81,99.69L123.19,99.68L123.55,99.60L123.83,99.46L124.03,99.27L124.11,99.06L124.06,98.84L123.89,98.64L123.63,98.49L123.28,98.39L122.91,98.36L122.54,98.41L122.21,98.52L121.97,98.69L121.83,98.89L121.81,99.11L121.92,99.32L122.04,99.41"/><path d="M123.06,102.77L123.06,102.82L123.44,102.60L123.44,100.09L123.06,100.31L123.06,102.77"/><path d="M123.06,102.82L122.90,102.66L122.90,100.16L123.06,100.31"/><path d="M123.44,100.09L123.17,100.00L124.99,98.95"/><path d="M122.82,100.20L122.90,100.16"/><path d="M125.40,104.04L125.40,101.22L125.13,101.38L125.13,103.95"/><path d="M125.24,101.32L125.24,103.88"/></g><g style="stroke:#c00000;stroke-width:0.529"><path d="M124.26,104.70L125.13,104.20L125.13,103.95L125.24,103.88L125.40,104.04L125.81,103.81L125.81,100.99L124.99,98.95L121.19,96.76L119.37,97.81L119.37,98.06L119.27,98.12L119.10,97.96L119.02,98.01L118.21,100.99L118.21,103.81L118.93,104.22L119.81,103.71"/><path d="M121.71,104.81L120.83,105.32L119.39,104.49L119.39,104.11L119.84,103.85L119.84,103.70"/><path d="M122.24,105.86L122.01,106.00L121.29,105.58L121.29,105.21L121.74,104.95L121.74,104.79"/><path d="M122.89,105.49L123.62,105.07"/></g></g><g id="Actor_.26"><g style="stroke:#c00000;stroke-width:0.176"><path d="M123.89,99.40L122.12,99.48"/><path d="M123.56,99.59L122.53,99.64"/></g><g style="stroke:#c00000;stroke-width:0.529"><path d="M123.89,99.41L123.89,99.40L123.82,99.29L123.63,99.14L123.38,99.03L123.07,98.98L122.76,98.99L122.47,99.05L122.22,99.17L122.06,99.33L122.03,99.41"/></g></g><g id="Actor_.27"><g style="stroke:#c00000;stroke-width:0.176"><path d="M121.99,98.30L120.22,98.38"/><path d="M120.63,98.54L121.66,98.49"/></g><g style="stroke:#c00000;stroke-width:0.529"><path d="M121.99,98.31L121.99,98.30L121.92,98.19L121.74,98.04L121.48,97.94L121.18,97.88L120.86,97.89L120.57,97.96L120.33,98.08L120.16,98.23L120.13,98.31"/></g></g><g id="Actor_.28"><g style="stroke:#c00000;stroke-width:0.176"><path d="M153.25,95.84L153.25,90.83L152.16,90.20L152.16,90.83L151.85,90.65L148.91,88.95L148.91,88.32L147.82,87.70"/><path d="M150.53,86.44L150.53,86.88L150.91,86.66L150.53,86.44L148.36,87.70L149.18,88.17L149.18,88.79L148.91,88.95"/><path d="M149.10,92.82L148.55,92.50L148.55,93.13"/><path d="M148.91,88.32L149.18,88.17"/><path d="M149.18,88.79L152.16,90.51"/><path d="M150.72,93.77L150.72,93.76L150.78,93.79"/><path d="M149.64,93.76L149.64,93.13L150.18,93.44"/><path d="M150.48,89.54L150.48,86.91L150.94,87.18L151.02,87.32L151.02,89.11L151.12,89.16"/><path d="M150.48,86.91L150.53,86.88"/><path d="M152.35,94.70L151.81,94.38L151.81,94.45"/><path d="M152.20,89.79L151.38,89.31"/><path d="M151.02,89.11L151.29,88.95L151.46,89.04"/><path d="M151.29,88.95L151.29,87.16L151.02,87.32"/><path d="M150.94,87.18L151.21,87.02L151.02,86.91L151.46,86.66"/><path d="M151.29,87.16L151.21,87.02"/><path d="M152.46,89.94L153.36,90.45"/><path d="M153.63,90.30L153.25,90.51L152.43,90.04L152.16,90.20"/><path d="M153.25,90.83L155.96,89.26"/><path d="M154.06,90.04L155.04,89.48L155.04,89.04L154.60,89.29L154.14,89.03"/><path d="M154.06,89.07L154.06,89.07"/><path d="M154.60,89.73L154.60,89.29"/><path d="M155.04,89.48L155.42,89.26L155.04,89.04"/><path d="M154.41,88.87L154.41,88.87"/></g><g style="stroke:#c00000;stroke-width:0.529"><path d="M150.34,93.78L150.34,93.54L150.18,93.44L149.64,93.76L149.26,93.54L149.26,92.91L149.10,92.82L148.55,93.13L147.82,92.71L147.82,87.70L150.53,86.13L151.46,86.66L151.46,89.04L153.63,90.30"/><path d="M154.41,88.87L154.60,88.98L155.04,88.73L155.96,89.26L155.96,93.65L155.53,93.90L155.53,94.52L153.25,95.84L152.52,95.42L152.52,94.79L152.35,94.70L151.95,94.93"/><path d="M154.06,90.04L153.63,90.30"/><path d="M154.06,89.07L154.06,90.04"/><path d="M154.06,89.07L154.41,88.87"/></g></g><g id="Actor_.29"><g style="stroke:#c00000;stroke-width:0.176"><path d="M121.01,103.26L121.01,103.26"/></g><g style="stroke:#c00000;stroke-width:0.529"><path d="M121.74,103.68L120.97,103.24L120.95,103.20L120.94,103.14L120.94,102.56"/></g></g><g id="Actor_.30"><g style="stroke:#c00000;stroke-width:0.176"><path d="M119.11,102.16L119.11,102.16"/></g><g style="stroke:#c00000;stroke-width:0.529"><path d="M119.84,102.58L119.07,102.14L119.05,102.10L119.04,102.05L119.04,101.47"/></g></g><g id="Actor_.31"><g style="stroke:#c00000;stroke-width:0.176"><path d="M138.05,108.75L138.18,108.85L138.29,108.98L138.37,109.13L138.42,109.29L138.43,109.44L138.40,109.56L138.33,109.64"/></g><g style="stroke:#c00000;stroke-width:0.529"><path d="M138.05,108.58L139.56,107.71L139.67,107.70L139.79,107.75L139.91,107.85L140.02,107.98L140.11,108.13L140.16,108.29L140.17,108.44L140.14,108.56L140.07,108.64L138.33,109.64L138.23,109.68L138.12,109.66L138.05,109.63"/></g></g><g id="Actor_.32"><g style="stroke:#c00000;stroke-width:0.176"><path d="M145.90,85.17L144.15,85.25"/><path d="M145.55,85.36L144.55,85.41"/></g><g style="stroke:#c00000;stroke-width:0.529"><path d="M144.04,85.18L144.15,85.02L144.35,84.88L144.62,84.78L144.93,84.75L145.25,84.77L145.53,84.85L145.75,84.98L145.89,85.14L145.90,85.17L145.90,85.18"/></g></g><g id="Actor_.33"><g style="stroke:#c00000;stroke-width:0.176"><path d="M144.00,84.07L142.25,84.15"/><path d="M142.65,84.31L143.65,84.26"/></g><g style="stroke:#c00000;stroke-width:0.529"><path d="M142.14,84.09L142.25,83.92L142.45,83.78L142.73,83.69L143.03,83.65L143.35,83.67L143.63,83.75L143.85,83.88L143.99,84.04L144.00,84.07L144.00,84.08"/></g></g><g id="Actor_.34"><g style="stroke:#c00000;stroke-width:0.176"/><g style="stroke:#c00000;stroke-width:0.529"><path d="M125.28,99.66L125.41,99.59L125.50,99.56L125.62,99.58L125.68,99.61L125.74,99.65L125.86,99.76L125.96,99.91L126.03,100.07L126.06,100.22L126.05,100.36L126.00,100.46L125.91,100.52L125.67,100.66"/></g></g><g id="Actor_.35"><g style="stroke:#c00000;stroke-width:0.176"><path d="M131.22,98.47L131.22,96.91L129.59,95.97"/><path d="M131.22,96.91L132.85,95.97"/></g><g style="stroke:#c00000;stroke-width:0.529"><path d="M129.59,97.53L131.22,98.47L132.85,97.53L132.85,95.97L131.22,95.03L129.59,95.97L129.59,97.53"/></g></g><g id="Actor_.36"><g style="stroke:#c00000;stroke-width:0.176"><path d="M147.07,92.33L147.07,91.57L146.02,90.97"/><path d="M146.02,90.78L146.02,90.86"/><path d="M147.07,91.57L147.40,91.57L147.82,91.33"/><path d="M147.02,86.42L147.24,86.55L147.24,91.06L146.91,90.87L146.91,90.26"/><path d="M147.24,91.06L147.56,90.87L147.56,89.89"/><path d="M147.24,86.55L147.45,86.42"/><path d="M147.40,92.33L147.40,91.57"/><path d="M148.61,87.24L148.61,85.75L148.40,85.63"/><path d="M148.61,85.75L148.83,85.63"/></g><g style="stroke:#c00000;stroke-width:0.529"><path d="M147.82,92.08L147.40,92.33L147.07,92.33L146.02,91.72L146.02,91.68"/><path d="M146.02,91.72L146.02,91.51"/><path d="M146.02,91.60L146.02,90.86"/><path d="M146.02,90.78L146.91,90.26"/><path d="M147.56,89.89L147.56,87.68L147.45,86.42L147.24,86.30L147.02,86.42L146.91,87.68L146.91,90.26"/><path d="M147.82,89.74L147.56,89.89"/><path d="M148.29,87.43L148.29,86.88L148.40,85.63L148.61,85.51L148.83,85.63L148.94,86.88L148.94,87.05"/></g></g><g id="Actor_.37"><g style="stroke:#c00000;stroke-width:0.176"><path d="M141.04,83.78L144.84,85.97L144.02,88.95L144.02,91.77"/><path d="M141.97,83.89L142.14,84.09L142.40,84.24L142.75,84.34L143.12,84.36L143.40,84.33L143.49,84.32L143.82,84.21L144.06,84.04L144.20,83.84L144.22,83.62L144.11,83.41L143.89,83.23L143.58,83.10L143.22,83.04L142.84,83.05L142.48,83.13L142.20,83.27L142.00,83.46L141.92,83.67L141.97,83.89"/><path d="M142.59,82.89L142.86,82.73L142.59,82.64"/><path d="M143.85,84.89L143.87,84.99L144.04,85.18L144.30,85.34L144.64,85.43L145.02,85.46L145.39,85.42L145.72,85.30L145.96,85.14L146.10,84.93L146.12,84.72L146.01,84.51L145.79,84.33L145.48,84.20L145.15,84.14L145.12,84.14L144.74,84.15L144.38,84.23L144.09,84.37L143.90,84.56L143.82,84.77L143.85,84.89"/><path d="M144.43,91.53L144.43,88.71L144.59,88.87L144.59,91.69"/><path d="M144.97,91.22L144.97,88.65L144.59,88.87"/><path d="M144.43,88.71L144.70,88.56L144.97,88.65"/><path d="M144.84,85.97L146.66,84.92L146.66,87.43L146.93,87.27L146.93,84.77L147.01,84.72"/><path d="M146.93,87.27L146.76,87.12L146.66,87.18"/><path d="M146.76,87.12L146.76,84.61L146.93,84.77"/><path d="M146.66,84.92L146.38,84.83L146.76,84.61"/></g><g style="stroke:#c00000;stroke-width:0.529"><path d="M147.56,89.73L147.82,89.57L147.82,86.76L147.01,84.72L143.21,82.53L143.13,82.57L142.97,82.42L142.59,82.64L142.59,82.89L141.04,83.78L140.22,86.76L140.22,89.58L144.02,91.77L144.43,91.53L144.59,91.69L144.97,91.47L144.97,91.22L146.91,90.10"/></g></g><g id="Actor_.38"><g style="stroke:#c00000;stroke-width:0.176"><path d="M122.41,108.74L122.41,107.98L121.35,107.38L121.35,107.19"/><path d="M121.35,107.38L121.35,108.13"/><path d="M123.78,109.53L123.78,108.78L122.73,108.17L122.73,108.92"/><path d="M122.41,107.98L122.73,107.98L122.73,108.17"/><path d="M122.24,106.67L122.24,107.28L122.57,107.47L122.89,107.28L122.89,106.67"/><path d="M122.57,107.47L122.57,102.96L122.36,102.83"/><path d="M122.57,102.96L122.78,102.83"/><path d="M123.78,108.78L124.11,108.78L125.00,108.27"/><path d="M124.16,103.63L123.95,103.75L123.95,108.27L123.62,108.08L123.62,107.09"/><path d="M123.73,103.63L123.95,103.75"/><path d="M123.95,108.27L124.27,108.08L124.27,107.47"/></g><g style="stroke:#c00000;stroke-width:0.529"><path d="M121.35,108.13L122.41,108.74L122.73,108.74"/><path d="M121.35,107.19L122.24,106.67"/><path d="M122.73,108.92L123.78,109.53L124.11,109.53"/><path d="M122.89,106.67L122.89,104.09L122.78,102.83L122.57,102.71L122.36,102.83L122.24,104.09L122.24,106.67"/><path d="M123.62,107.09L122.89,106.67"/><path d="M124.27,107.47L124.27,104.88L124.16,103.63L123.95,103.51L123.73,103.63L123.62,104.88L123.62,107.09"/><path d="M125.00,107.89L124.27,107.47"/></g></g><g id="Actor_.39"><g style="stroke:#0024c0;stroke-width:0.176"><path d="M116.85,88.86L117.11,89.02L117.23,89.08L117.37,88.75L117.57,88.45L117.59,88.43L116.85,88.86L116.99,88.53L117.19,88.23L117.47,87.94L117.60,87.83L117.60,88.43L117.59,88.43"/><path d="M117.42,95.13L117.60,95.22L117.83,95.27L118.07,95.27L118.30,95.23L118.49,95.15"/><path d="M117.25,89.41L117.46,89.48L117.92,89.53L118.38,89.50L118.70,89.41"/><path d="M118.72,87.78L118.59,87.77L118.36,87.83L118.59,88.04L118.85,88.36L118.90,88.42L119.06,88.74L119.10,88.86L119.07,88.88L118.76,89.06L118.72,89.08L118.68,88.96L118.52,88.64L118.47,88.58L118.21,88.26L117.98,88.05L117.98,87.61L118.21,87.55L118.47,87.56"/><path d="M117.60,88.43L117.85,88.16L117.87,88.14L117.60,87.99"/><path d="M117.98,87.61L117.85,87.57L117.60,87.55"/><path d="M118.08,88.15L118.36,87.99L118.36,87.83"/><path d="M117.98,88.05L117.87,88.14"/><path d="M118.34,87.56L118.32,87.55"/><path d="M117.24,87.77L117.47,87.79L117.60,87.83"/><path d="M119.10,88.86L118.36,88.43L118.36,87.99"/></g><g style="stroke:#0024c0;stroke-width:0.529"><path d="M117.25,89.41L117.06,89.34L116.76,89.14L116.59,88.88L116.57,88.61L116.62,88.37L116.75,88.12L116.91,87.91L116.99,87.83L117.19,87.77L117.24,87.77L117.37,87.61L117.57,87.55L117.60,87.55L117.87,87.50L118.15,87.50L118.32,87.55L118.47,87.56L118.52,87.58L118.68,87.71L118.72,87.78L118.85,87.78L118.90,87.80L119.06,87.93L119.25,88.18L119.34,88.43L119.40,88.68L119.34,88.95L119.13,89.19L118.80,89.38L118.70,89.41"/><path d="M117.25,89.41L117.25,94.87L117.30,95.01L117.42,95.13L117.54,95.20L117.68,95.27L117.86,95.31L118.05,95.31L118.23,95.28L118.38,95.22L118.49,95.15L118.63,95.04L118.70,94.91L118.70,89.41"/></g></g><g id="Actor_.40"><g style="stroke:#0024c0;stroke-width:0.176"><path d="M139.00,173.41L138.60,173.25L138.30,173.02"/><path d="M137.97,171.74L138.60,171.99L138.91,172.13L139.29,172.22L139.69,172.25L140.08,172.22L140.45,172.14L140.77,171.99L141.01,171.81L141.16,171.60L140.94,172.20L140.94,173.23"/><path d="M139.22,173.50L139.22,172.47L138.60,171.99L138.36,171.81L138.20,171.60L138.15,171.36L138.20,171.14L138.35,170.93L138.60,170.74L138.81,170.65"/><path d="M140.56,173.34L140.08,173.48L139.48,173.49"/><path d="M139.22,172.47L140.08,172.22L140.94,172.20"/><path d="M139.90,171.97L139.78,171.94L139.52,171.95L139.48,171.96"/><path d="M139.57,171.17L139.40,171.19L139.19,171.27L139.02,171.38L138.93,171.51L138.92,171.66L138.99,171.80L139.05,171.85L138.93,171.80L138.73,171.64L138.63,171.44L138.65,171.24L138.77,171.05L138.99,170.90L139.00,170.90L139.30,170.80L139.64,170.76L139.98,170.78L140.30,170.87L140.54,171.01L140.68,171.18L140.70,171.19L140.74,171.39L140.67,171.59L140.49,171.76L140.31,171.85L140.40,171.77L140.45,171.62L140.42,171.48L140.31,171.35L140.13,171.24L139.90,171.18L139.65,171.16L139.57,171.17"/><path d="M139.05,171.85L139.22,171.92L139.55,171.97L139.90,171.97L140.22,171.89L140.31,171.85"/><path d="M140.36,170.58L140.08,170.51L139.89,170.50"/><path d="M141.01,170.92L141.16,171.14L141.22,171.37L141.16,171.60L141.39,171.21"/></g><g style="stroke:#0024c0;stroke-width:0.529"><path d="M137.97,172.77L138.30,173.02L138.36,173.07L138.60,173.25L138.91,173.39L139.00,173.41L139.22,173.50L139.48,173.49L139.69,173.51L140.08,173.48L140.45,173.39L140.56,173.34L140.94,173.23L141.16,172.85L141.39,172.24L141.39,171.21L141.07,170.97L141.01,170.92L140.77,170.74L140.45,170.60L140.36,170.58L140.14,170.49L139.89,170.50L139.68,170.48L139.29,170.51L138.92,170.60L138.81,170.65L138.43,170.76L138.20,171.14L137.97,171.74L137.97,172.77"/></g></g><g id="Actor_.41"><g style="stroke:#0024c0;stroke-width:0.176"><path d="M152.45,114.76L152.35,115.12L152.05,115.44L151.59,115.69L151.01,115.84L150.38,115.87L149.77,115.78L149.24,115.58L149.02,115.45L148.85,115.29L148.64,114.95L148.64,114.58"/><path d="M149.45,115.10L149.46,115.10L149.57,115.20L149.70,115.29L150.04,115.41L150.44,115.47L150.84,115.45L151.21,115.36L151.51,115.20L151.70,114.99L151.76,114.76L151.70,114.53L151.50,114.33L151.20,114.17L150.83,114.08L150.43,114.06L150.04,114.11L149.70,114.24L149.45,114.43L149.32,114.65L149.32,114.88L149.45,115.10"/></g><g style="stroke:#0024c0;stroke-width:0.529"><path d="M148.98,117.29L149.02,117.33L149.24,117.46L149.77,117.66L150.38,117.75L151.01,117.72L151.59,117.57L152.05,117.32L152.35,117.00L152.45,116.64L152.45,114.76L152.35,114.40L152.05,114.08L151.58,113.84L151.00,113.69L150.37,113.66L149.76,113.75L149.23,113.95L148.85,114.24L148.64,114.58L148.64,116.46L148.64,116.83L148.85,117.17L148.98,117.29"/></g></g><g id="Actor_.42"><g style="stroke:#0024c0;stroke-width:0.176"><path d="M149.41,95.12L149.66,95.29L149.79,95.34L149.93,95.01L150.13,94.72L150.15,94.69L149.41,95.12L149.55,94.80L149.75,94.50L150.03,94.20L150.15,94.10L150.15,94.25L150.42,94.41L150.53,94.32L150.53,93.88L150.77,93.82L151.03,93.83"/><path d="M149.98,101.39L150.16,101.48L150.39,101.53L150.62,101.54L150.73,101.52L150.86,101.50L151.05,101.42"/><path d="M149.81,95.67L150.02,95.74L150.48,95.80L150.94,95.77L151.26,95.68"/><path d="M150.53,93.88L150.41,93.84L150.16,93.81"/><path d="M150.42,94.41L150.41,94.42L150.15,94.69"/><path d="M150.64,94.41L150.77,94.53L151.03,94.84L151.07,94.91L151.24,95.23L151.28,95.34L151.32,95.33L151.63,95.15L151.66,95.12L151.62,95.01L151.45,94.69L151.41,94.62L151.15,94.31L150.91,94.10L150.91,94.25L150.64,94.41L150.53,94.32"/><path d="M150.15,94.69L150.15,94.25"/><path d="M149.80,94.04L150.03,94.06L150.15,94.10"/><path d="M151.66,95.12L150.91,94.69L150.91,94.25"/><path d="M151.28,94.04L151.15,94.03L150.91,94.10"/><path d="M150.90,93.82L150.87,93.82"/></g><g style="stroke:#0024c0;stroke-width:0.529"><path d="M151.26,95.68L151.36,95.65L151.69,95.46L151.90,95.22L151.95,94.95L151.90,94.70L151.81,94.44L151.62,94.20L151.45,94.07L151.41,94.05L151.28,94.04L151.24,93.98L151.07,93.85L151.03,93.83L150.87,93.82L150.71,93.77L150.43,93.76L150.16,93.81L150.13,93.81L149.93,93.88L149.80,94.04L149.75,94.03L149.55,94.10L149.47,94.18L149.31,94.38L149.18,94.63L149.13,94.88L149.15,95.15L149.32,95.40L149.62,95.61L149.81,95.67"/><path d="M149.81,95.67L149.81,101.14L149.86,101.27L149.98,101.39L150.10,101.46L150.24,101.53L150.42,101.57L150.61,101.58L150.79,101.55L150.94,101.48L151.05,101.42L151.19,101.31L151.26,101.17L151.26,95.68"/></g></g><g id="Actor_.43"><g style="stroke:#0024c0;stroke-width:0.176"><path d="M117.30,185.94L116.89,185.78L116.59,185.55"/><path d="M116.27,184.28L116.89,184.53L117.21,184.67L117.58,184.75L117.98,184.79L118.37,184.75L118.74,184.67L119.06,184.53L119.31,184.34L119.46,184.13L119.23,184.73L119.23,185.76"/><path d="M117.52,186.03L117.52,185.00L116.89,184.53L116.65,184.34L116.49,184.13L116.44,183.90L116.49,183.67L116.65,183.46L116.89,183.27L117.10,183.18"/><path d="M117.23,184.33L117.03,184.17L116.93,183.97L116.94,183.77L117.07,183.59L117.29,183.43L117.59,183.33L117.93,183.29L118.28,183.31L118.59,183.40L118.84,183.54L118.99,183.72L119.03,183.92L118.96,184.12L118.78,184.29L118.61,184.38L118.69,184.30L118.74,184.15L118.71,184.01L118.60,183.88L118.42,183.78L118.20,183.71L117.95,183.69L117.70,183.72L117.48,183.80L117.32,183.91L117.23,184.05L117.22,184.19L117.29,184.33L117.35,184.38L117.23,184.33"/><path d="M117.77,186.02L118.37,186.01L118.85,185.87"/><path d="M117.77,184.49L117.82,184.48L118.07,184.48L118.20,184.50"/><path d="M117.52,185.00L118.37,184.75L119.23,184.73"/><path d="M117.35,184.38L117.51,184.45L117.85,184.51L118.19,184.50L118.52,184.42L118.61,184.38"/><path d="M118.18,183.03L118.37,183.04L118.66,183.11"/><path d="M119.69,183.75L119.46,184.13L119.51,183.90L119.46,183.67L119.30,183.45"/></g><g style="stroke:#0024c0;stroke-width:0.529"><path d="M117.24,185.93L117.21,185.92L116.89,185.78L116.65,185.60L116.59,185.55L116.27,185.31L116.27,184.28L116.49,183.67L116.72,183.29L117.10,183.18L117.21,183.13L117.58,183.04L117.97,183.01L118.18,183.03L118.44,183.02L118.66,183.11L118.75,183.13L119.06,183.27L119.30,183.45L119.36,183.50L119.69,183.75L119.69,184.78L119.46,185.38L119.23,185.76L118.85,185.87L118.74,185.92L118.37,186.01L117.98,186.04L117.77,186.02L117.52,186.03L117.30,185.94L117.24,185.93"/></g></g><g id="Actor_.44"><g style="stroke:#0024c0;stroke-width:0.176"><path d="M139.13,82.60L139.31,82.69L139.53,82.74L139.77,82.74L140.00,82.70L140.20,82.62"/><path d="M138.56,76.33L138.81,76.49L138.94,76.54L139.08,76.22L139.28,75.92L139.30,75.90L138.56,76.33L138.70,76.00L138.90,75.70L139.18,75.40L139.30,75.30L139.30,75.46L139.57,75.61L139.68,75.52L139.68,75.08L139.92,75.02L140.18,75.03"/><path d="M140.41,76.88L140.09,76.97L139.62,77.00L139.17,76.95L138.95,76.87"/><path d="M139.68,75.08L139.56,75.04L139.30,75.02"/><path d="M139.30,75.90L139.56,75.62L139.57,75.61"/><path d="M139.30,75.89L139.30,75.46"/><path d="M138.95,75.24L139.18,75.26L139.30,75.30"/><path d="M140.43,76.54L140.47,76.53L140.68,76.40L140.78,76.35L140.81,76.33L140.06,75.90L140.06,75.46L139.79,75.62L139.92,75.73L140.18,76.04L140.22,76.11L140.39,76.43L140.43,76.54"/><path d="M140.81,76.33L140.77,76.21L140.60,75.89L140.56,75.83L140.30,75.51L140.06,75.30L140.06,75.46"/><path d="M139.79,75.62L139.68,75.52"/><path d="M140.42,75.24L140.30,75.24L140.06,75.30"/><path d="M140.05,75.03L140.02,75.02"/></g><g style="stroke:#0024c0;stroke-width:0.529"><path d="M140.41,76.88L140.51,76.85L140.84,76.66L141.04,76.42L141.10,76.15L141.05,75.90L140.95,75.65L140.77,75.40L140.60,75.27L140.56,75.25L140.42,75.24L140.39,75.18L140.22,75.05L140.18,75.03L140.02,75.02L139.85,74.97L139.58,74.97L139.30,75.02L139.28,75.01L139.08,75.08L138.95,75.24L138.90,75.23L138.70,75.30L138.62,75.38L138.46,75.59L138.33,75.83L138.27,76.08L138.29,76.35L138.46,76.60L138.76,76.81L138.95,76.87"/><path d="M138.95,76.87L138.95,82.34L139.00,82.48L139.13,82.60L139.24,82.66L139.39,82.74L139.56,82.78L139.75,82.78L139.94,82.75L140.09,82.68L140.20,82.62L140.34,82.51L140.41,82.38L140.41,76.88"/></g></g><g id="Actor_.45"><g style="stroke:#0024c0;stroke-width:0.176"><path d="M149.85,192.21L149.45,192.04L149.15,191.82"/><path d="M148.82,190.54L149.45,190.79L149.76,190.93L150.14,191.02L150.54,191.05L150.93,191.02L150.08,191.26L150.08,192.29"/><path d="M150.08,191.26L149.45,190.79L149.21,190.61L149.05,190.39L149.00,190.16L149.05,189.94L149.20,189.72L149.45,189.54L149.66,189.45"/><path d="M149.50,190.04L149.48,190.24L149.58,190.43L149.79,190.60L149.91,190.65L149.85,190.60L149.77,190.46L149.78,190.31L149.88,190.18L150.04,190.06L150.26,189.99L150.50,189.96L150.75,189.98L150.98,190.04L151.16,190.14L151.27,190.28L151.30,190.42L151.25,190.56L151.16,190.65L151.34,190.56L151.52,190.39L151.59,190.19L151.55,189.99L151.40,189.81L151.15,189.67L150.84,189.58L150.49,189.55L150.15,189.60L149.85,189.70L149.63,189.85L149.50,190.04"/><path d="M151.41,192.14L150.93,192.27L150.33,192.29"/><path d="M150.75,190.76L150.63,190.74L150.38,190.75L150.33,190.76"/><path d="M149.91,190.65L150.07,190.71L150.40,190.77L150.75,190.76L151.08,190.69L151.16,190.65"/><path d="M151.79,191.00L152.02,190.39L151.87,190.61L151.62,190.79L151.30,190.93L150.93,191.02L151.79,191.00L151.79,192.03"/><path d="M150.74,189.29L150.93,189.31L151.22,189.38"/><path d="M151.86,189.72L152.02,189.94L152.07,190.17L152.02,190.39L152.25,190.01"/></g><g style="stroke:#0024c0;stroke-width:0.529"><path d="M148.82,191.57L149.15,191.82L149.21,191.86L149.45,192.04L149.76,192.18L149.85,192.21L150.08,192.29L150.33,192.29L150.54,192.30L150.93,192.27L151.30,192.19L151.41,192.14L151.79,192.03L152.02,191.65L152.25,191.04L152.25,190.01L151.92,189.76L151.86,189.72L151.62,189.54L151.31,189.40L151.22,189.38L150.99,189.29L150.74,189.29L150.53,189.28L150.14,189.31L149.77,189.40L149.66,189.45L149.28,189.55L149.05,189.94L148.82,190.54L148.82,191.57"/></g></g><g id="Actor_.46"><g style="stroke:#0024c0;stroke-width:0.176"><path d="M119.79,108.86L119.49,109.18L119.03,109.42L118.45,109.57L117.82,109.60L117.24,109.52L117.21,109.51L116.68,109.31L116.47,109.18L116.29,109.03L116.09,108.68L116.08,108.32"/><path d="M119.20,108.51L119.14,108.73L118.95,108.93L118.65,109.09L118.28,109.18L117.88,109.20L117.49,109.15L117.15,109.02L117.01,108.93L116.90,108.84L116.77,108.62L116.77,108.38L116.90,108.16L117.14,107.98L117.48,107.85L117.87,107.79L118.28,107.81L118.65,107.90L118.94,108.06L118.95,108.07"/></g><g style="stroke:#0024c0;stroke-width:0.529"><path d="M119.90,108.92L119.90,110.38L119.79,110.74L119.49,111.06L119.03,111.30L118.45,111.45L117.82,111.48L117.21,111.39L116.68,111.19L116.47,111.06L116.29,110.91L116.09,110.56L116.08,110.20L116.08,108.32L116.29,107.97L116.68,107.68L117.20,107.48L117.82,107.39L118.45,107.42L118.95,107.55"/></g></g><g><g><path style="stroke:#00c000;stroke-width:0.500;stroke-dasharray:0.7 0.7" d="M139.68,167.06L139.68,171.97"/></g></g><g><g><path style="stroke:#00c000;stroke-width:0.500;stroke-dasharray:0.7 0.7" d="M117.98,168.55L117.98,184.50"/></g></g><g><g><path style="stroke:#00c000;stroke-width:0.500;stroke-dasharray:0.7 0.7" d="M150.53,160.79L150.53,190.77"/></g></g><g><g><path style="stroke:#00c000;stroke-width:0.500;stroke-dasharray:0.7 0.7" d="M139.68,82.78L139.68,88.49"/></g></g><g><g><path style="stroke:#00c000;stroke-width:0.500;stroke-dasharray:0.7 0.7" d="M117.97,114.70L117.97,111.47"/><path style="stroke:#00c000;stroke-width:0.500;stroke-dasharray:0.7 0.7" d="M117.97,107.02L117.97,109.20"/><path style="stroke:#00c000;stroke-width:0.500;stroke-dasharray:0.7 0.7" d="M117.97,95.31L117.97,101.02"/></g></g><g><g><path style="stroke:#00c000;stroke-width:0.500;stroke-dasharray:0.7 0.7" d="M150.53,120.97L150.53,117.74"/><path style="stroke:#00c000;stroke-width:0.500;stroke-dasharray:0.7 0.7" d="M150.53,108.60L150.53,115.47"/><path style="stroke:#00c000;stroke-width:0.500;stroke-dasharray:0.7 0.7" d="M150.53,107.29L150.53,101.57"/></g></g><g/><g id="paperID" visibility="hidden" opacity="0.00" transform="scale(0.000100)"><path style="stroke:#000000;stroke-width:0.500;fill:#e6e6e6;fill-rule:evenodd" d="M-2000.00,-2000.00L2297.00,-2000.00L2297.00,2210.00L-2000.00,2210.00zM0.00,0.00L297.00,0.00L297.00,210.00L0.00,210.00z"/><path style="fill:#000000;fill-opacity:0.118" d="M3.00,210.00L297.00,210.00L297.00,3.00L300.00,3.00L300.00,213.00L3.00,213.00z"/></g><g id="ToolTip" visibility="hidden" opacity="0" transform="translate(0,0)"><rect id="ToolTipShadow" opacity="0.20" fill="black" stroke="none" x="0" y="0" width="30" height="8"/><rect id="ToolTipBG" fill="#ffffe1" stroke="black" x="0" y="0" width="30" height="8"/><text xml:space="preserve" id="ToolTipText" fill="black" x="0" y="0" width="30" height="8">tooltip</text></g></g></svg>
